<svg width="28" height="28" viewBox="0 0 28 28" fill="none" xmlns="http://www.w3.org/2000/svg">
<path d="M12.2308 15H16.4616C17.1626 15 17.7308 14.441 17.7308 13.7514V9.99327C17.9392 9.96472 18.1292 9.86084 18.2639 9.70195L18.8063 9.0577C18.9501 8.88677 19.0184 8.66631 18.9957 8.44557C18.9732 8.22483 18.8617 8.02215 18.6862 7.88284L17.7308 7.12373V5.01157C17.7308 4.55186 17.352 4.17919 16.8846 4.17919H16.0385C15.5712 4.17919 15.1923 4.55186 15.1923 5.01157V5.1048L14.0373 4.18586C13.7234 3.93805 13.2766 3.93805 12.9627 4.18586L8.31428 7.8832C8.1386 8.02239 8.02696 8.22507 8.00427 8.44586C7.98161 8.66664 8.04982 8.88718 8.19369 9.05811L8.7361 9.70236C8.87098 9.86109 9.06094 9.96489 9.26919 9.99368V13.7514C9.26919 14.441 9.83746 15 10.5384 15H12.2308ZM12.6538 14.1677V12.0867C12.6538 11.8569 12.8433 11.6705 13.0769 11.6705H13.9231C14.1567 11.6705 14.3461 11.8569 14.3461 12.0867V14.1677H12.6538ZM16.0385 5.01153H16.8847V6.45069L16.0385 5.77772V5.01153ZM13.5051 4.83298L18.1539 8.52745L17.6124 9.17338C17.6095 9.1751 17.6059 9.1751 17.6031 9.17338L17.5967 9.1692L13.7632 6.17682C13.6091 6.05643 13.391 6.05643 13.2369 6.17682L9.38682 9.17334L8.84612 8.53073L13.5051 4.83298ZM10.1153 13.7514V9.67283L13.5 7.03214L16.8847 9.67283V13.7514C16.8847 13.9813 16.6953 14.1676 16.4616 14.1676H15.1924V12.0867C15.1924 11.3972 14.6241 10.8382 13.9231 10.8382H13.0769C12.376 10.8382 11.8077 11.3972 11.8077 12.0867V14.1677H10.5384C10.3047 14.1677 10.1153 13.9813 10.1153 13.7514V13.7514Z" fill="white"/>
<path d="M27.7011 23.5843L22.1744 18.4539C22.0019 18.2912 21.7737 18.2007 21.5365 18.201H19.4832C21.8464 15.4349 23.979 11.6414 23.1483 7.4601C22.3817 3.6389 19.3087 0.703955 15.4559 0.113365C12.7594 -0.310518 10.0123 0.466479 7.93739 2.24004C5.86248 4.0136 4.66749 6.60604 4.6668 9.33543C4.6668 12.7645 6.51151 15.8521 8.51955 18.201H6.53347C6.29904 18.2029 6.07367 18.2915 5.9007 18.4497L0.296575 23.5866C0.125304 23.7504 0.0235246 23.9737 0.0123638 24.2104C0.00712784 24.229 0.00304012 24.2478 0.00023843 24.2669V27.0665C-0.00545682 27.3157 0.0910868 27.5564 0.267364 27.7327C0.443641 27.9089 0.684357 28.0054 0.93357 27.9998H27.0664C27.3156 28.0054 27.5564 27.9089 27.7326 27.7327C27.9089 27.5564 28.0054 27.3157 27.9998 27.0665V24.2669C27.9972 24.2485 27.9935 24.2302 27.9886 24.2123C27.978 23.9735 27.8749 23.7483 27.7011 23.5843V23.5843ZM8.52607 2.96477C10.0565 1.65303 12.0071 0.934083 14.0229 0.938767C14.4557 0.938813 14.888 0.97142 15.3159 1.03631C18.7806 1.56683 21.5443 4.20589 22.2337 7.6421C23.6971 15.0154 14.9944 21.2479 14 21.9339C13.1404 21.3413 5.60013 15.9575 5.60013 9.33543C5.59945 6.88678 6.66813 4.55996 8.52607 2.96477V2.96477ZM6.53347 19.1342H9.35955C10.6101 20.4557 11.9878 21.6509 13.4727 22.7024C13.7893 22.9227 14.2097 22.9227 14.5264 22.7024C16.013 21.6514 17.3921 20.4562 18.6437 19.1342H21.537L27.0664 24.2669L0.93357 24.2702L6.53347 19.1342ZM0.93357 27.0665V25.2001H27.0664V27.0665H0.93357Z" fill="white"/>
</svg>
