<?xml version="1.0" encoding="utf-8"?><svg viewBox="0 0 984 294" xmlns="http://www.w3.org/2000/svg" xmlns:xlink="http://www.w3.org/1999/xlink"><style>:root>svg{display:none}:root>svg:target{display:block}</style><svg viewBox="0 0 8 14" id="arrow" xmlns="http://www.w3.org/2000/svg"><path d="M7 13L1 7l6-6"/></svg><svg viewBox="0 0 8 14" id="arrow-pag" xmlns="http://www.w3.org/2000/svg"><path fill-rule="evenodd" clip-rule="evenodd" d="M7.707.293a1 1 0 010 1.414L2.414 7l5.293 5.293a1 1 0 11-1.414 1.414l-6-6a1 1 0 010-1.414l6-6a1 1 0 011.414 0z"/></svg><svg viewBox="0 0 24 24" id="arrow-right" xmlns="http://www.w3.org/2000/svg"><path d="M5 12h14M12 5l7 7-7 7"/></svg><svg fill="none" viewBox="0 0 24 24" id="arrow-right-black" xmlns="http://www.w3.org/2000/svg"><path d="M5 12h14M12 5l7 7-7 7" stroke="#100D0D" stroke-width="2" stroke-linecap="round" stroke-linejoin="round"/></svg><svg fill="none" viewBox="0 0 8 14" id="arrow-slider" xmlns="http://www.w3.org/2000/svg"><path d="M7 13L1 7l6-6" stroke="#F9AF31" stroke-width="2" stroke-linecap="round" stroke-linejoin="round"/></svg><svg fill="none" viewBox="0 0 8 14" id="arrow-up" xmlns="http://www.w3.org/2000/svg"><path d="M7 13L1 7l6-6" stroke="#B3B3B3" stroke-width="2" stroke-linecap="round" stroke-linejoin="round"/></svg><svg fill="none" viewBox="0 0 30 30" id="build" xmlns="http://www.w3.org/2000/svg"><path d="M29.337 8.816h-7.856V1.683a.663.663 0 00-.663-.663H6.103a.663.663 0 00-.663.663v12.034c-1.699.307-3 1.775-3.048 3.55A3.386 3.386 0 000 20.502a3.387 3.387 0 003.383 3.384h2.058v4.431c0 .366.296.663.662.663H29.337a.663.663 0 00.663-.663V9.48a.663.663 0 00-.663-.663zM10.5 27.654H6.766v-3.768h2.058c.61 0 1.182-.163 1.676-.446v4.214zm.192-6.29l-.029.06c-.008.015-.015.031-.024.046l-.02.038a2.059 2.059 0 01-1.795 1.052H6.766v-2.406a.663.663 0 10-1.325 0v2.406H3.383a2.057 2.057 0 01-.25-4.1.663.663 0 00.584-.658v-.433a2.39 2.39 0 012.387-2.387 2.391 2.391 0 012.373 2.131l.003.025.007.088.001.03c.002.037.003.075.003.113v.433a.665.665 0 00.583.658l.006.001a2.018 2.018 0 01.155.026c.007 0 .014.002.021.004a2.059 2.059 0 011.436 2.873zm.67-3.357h-.253a3.37 3.37 0 00-1.293-.74 3.79 3.79 0 00-.008-.16l-.002-.017-.002-.032a3.768 3.768 0 00-.011-.112l-.003-.022-.002-.014-.002-.022a3.744 3.744 0 00-.016-.108v-.007a3.666 3.666 0 00-.157-.622h1.749v1.856zm3.734 9.647h-3.27V22.28H15.095v5.375zm5.06-18.175v18.175h-3.734V22.28h.537a.663.663 0 000-1.326h-4.782a3.37 3.37 0 00-.178-1.62h.026a.663.663 0 00.662-.663v-3.182a.663.663 0 00-.662-.663H8.806a3.622 3.622 0 00-.106-.107l-.04-.04a3.772 3.772 0 00-.084-.077l-.055-.047-.071-.06-.06-.048a3.69 3.69 0 00-.071-.054l-.064-.047a3.736 3.736 0 00-.138-.094l-.075-.047-.067-.04c-.026-.016-.053-.03-.08-.045l-.066-.037-.087-.044-.063-.03a3.56 3.56 0 00-.149-.067l-.055-.022a3.863 3.863 0 00-.102-.04l-.07-.023-.09-.03-.075-.022a3.908 3.908 0 00-.334-.081l-.038-.008V2.345h13.39V9.48zm8.518 18.175h-7.193V10.142h7.193v17.512z" fill="#fff"/><path d="M26.611 12.13h-3.166a.663.663 0 00-.663.662v11.405c0 .366.296.663.663.663h3.166a.663.663 0 00.663-.663V12.792a.663.663 0 00-.663-.663zm-.663 11.404h-1.84V21.06h1.84v2.473zm0-3.799h-1.84v-2.477h1.84v2.477zm0-3.803h-1.84v-2.477h1.84v2.477zM19.615 21.148a.63.63 0 00-.215-.144.657.657 0 00-.723.143.64.64 0 00-.143.215.704.704 0 00-.05.254.653.653 0 00.111.368.64.64 0 00.298.244.665.665 0 00.722-.143.665.665 0 000-.938zM12.025 3.717H8.533a.663.663 0 00-.662.663v3.182c0 .366.296.663.662.663h3.492a.663.663 0 00.662-.663V4.38a.663.663 0 00-.662-.663zM11.362 6.9H9.196V5.043h2.166v1.856zM18.238 3.717h-3.491a.663.663 0 00-.663.663v3.182c0 .366.297.663.663.663h3.491a.663.663 0 00.663-.663V4.38a.663.663 0 00-.663-.663zM17.575 6.9H15.41V5.043h2.165v1.856zM12.025 9.271H8.533a.663.663 0 00-.662.663v3.182c0 .366.296.663.662.663h3.492a.663.663 0 00.662-.663V9.934a.663.663 0 00-.662-.663zm-.663 3.182H9.196v-1.856h2.166v1.856zM18.238 9.271h-3.491a.663.663 0 00-.663.663v3.182c0 .366.297.663.663.663h3.491a.663.663 0 00.663-.663V9.934a.663.663 0 00-.663-.663zm-.663 3.182H15.41v-1.856h2.165v1.856zM18.238 14.825h-3.491a.663.663 0 00-.663.663v3.182c0 .366.297.663.663.663h3.491a.663.663 0 00.663-.663v-3.182a.663.663 0 00-.663-.663zm-.663 3.182H15.41v-1.856h2.165v1.856zM6.754 17.837a.67.67 0 00-.396-.482.665.665 0 00-.805.243.658.658 0 00-.099.498.701.701 0 00.099.238.641.641 0 00.183.184.679.679 0 00.368.111.654.654 0 00.551-.295.674.674 0 00.112-.368.653.653 0 00-.013-.129z" fill="#fff"/></svg><svg fill="none" viewBox="0 0 16 16" id="check" xmlns="http://www.w3.org/2000/svg"><path d="M14.48.209a1.257 1.257 0 00-.956-.18 1.259 1.259 0 00-.801.561L5.604 11.77 2.133 8.5a1.267 1.267 0 00-.912-.343 1.26 1.26 0 00-.883.415 1.309 1.309 0 00.07 1.829l4.558 4.294s.131.115.192.155a1.254 1.254 0 001.757-.381l3.97-6.235 3.97-6.235a1.308 1.308 0 00.176-.974 1.305 1.305 0 00-.551-.816z" fill="#fff"/></svg><svg fill="none" viewBox="0 0 30 30" id="clipboard" xmlns="http://www.w3.org/2000/svg"><g clip-path="url(#aiclip0_1120_11098)" fill="#fff"><path d="M19.55 10.732h-3.44a.635.635 0 00-.636.636v3.44c0 .35.285.635.636.635h3.44c.35 0 .635-.284.635-.635v-3.44a.635.635 0 00-.636-.636zm-.636 3.44h-2.17v-2.169h2.17v2.17zM13.833 16.406h-3.44a.635.635 0 00-.636.635v3.44c0 .351.285.636.636.636h3.44c.35 0 .635-.285.635-.636v-3.44a.635.635 0 00-.635-.635zm-.636 3.44h-2.169v-2.17h2.17v2.17zM19.55 16.406h-3.44a.635.635 0 00-.636.635v3.44c0 .351.285.636.636.636h3.44c.35 0 .635-.285.635-.636v-3.44a.635.635 0 00-.636-.635zm-.636 3.44h-2.17v-2.17h2.17v2.17z"/><path d="M29.729 17.191l-7.37-5.153v-.218a.635.635 0 00.826-.193l1.263-1.8a.635.635 0 00-.156-.886l-8.928-6.243a.635.635 0 00-.728 0L5.708 8.94a.636.636 0 00-.156.885l1.263 1.801a.636.636 0 00.825.192v.22L.271 17.19A.636.636 0 00.068 18l1.08 2.138a.635.635 0 00.738.325v6.32c0 .35.284.635.635.635H27.48c.35 0 .635-.285.635-.636v-6.319a.635.635 0 00.737-.325l1.08-2.138a.635.635 0 00-.202-.808zM7.64 26.146H6.581v-4.479a.635.635 0 00-1.27 0v4.48H3.155v-6.531l1.692-1.187L7.64 16.47v9.676zm0-11.228l-5.484 3.847-.204.143-.501-.991 6.19-4.328v1.329zm8.818 11.228h-2.916V23.23h2.916v2.916zM21.09 12.37V26.146h-3.36v-3.552a.635.635 0 00-.635-.635h-4.187a.635.635 0 00-.636.636v3.551h-3.36V10.933L15 6.661l6.089 4.272v1.436zm1-2.287l-6.724-4.717A.629.629 0 0015 5.25a.635.635 0 00-.365.115l-6.724 4.718-.42.295-.533-.76L15 3.994l8.042 5.623-.533.76-.42-.294zm4.755 16.064H24.69v-4.479a.635.635 0 00-1.271 0v4.48h-1.06V16.47l3.962 2.78.523.366v6.53zm1.204-7.238l-.204-.143-5.484-3.848V13.59l6.189 4.328-.501.991z"/><path d="M24.677 19.447a.593.593 0 00-.095-.23.629.629 0 00-.652-.27.658.658 0 00-.325.174.64.64 0 00-.079.803.676.676 0 00.176.175.644.644 0 00.476.095.642.642 0 00.463-.38.6.6 0 00.049-.243.637.637 0 00-.013-.125zM6.568 19.447a.595.595 0 00-.095-.23.635.635 0 10.095.23z"/></g><defs><clipPath id="aiclip0_1120_11098"><path fill="#fff" d="M0 0h30v30H0z"/></clipPath></defs></svg><svg fill="none" viewBox="0 0 176 80" id="cursor-slider" xmlns="http://www.w3.org/2000/svg"><path d="M15 46l-6-6 6-6" stroke="#F9AF31" stroke-width="2" stroke-linecap="round" stroke-linejoin="round"/><circle cx="88" cy="40" r="39" stroke="#F9AF31" stroke-width="2"/><path d="M161 46l6-6-6-6" stroke="#F9AF31" stroke-width="2" stroke-linecap="round" stroke-linejoin="round"/></svg><svg fill="none" viewBox="0 0 176 80" id="cursor-slider-active" xmlns="http://www.w3.org/2000/svg"><path d="M15 46l-6-6 6-6" stroke="#F9AF31" stroke-width="2" stroke-linecap="round" stroke-linejoin="round"/><circle cx="88" cy="40" r="8" fill="#F9AF31"/><circle cx="88" cy="40" r="39" stroke="#F9AF31" stroke-width="2"/><path d="M161 46l6-6-6-6" stroke="#F9AF31" stroke-width="2" stroke-linecap="round" stroke-linejoin="round"/></svg><svg fill="none" viewBox="0 0 24 25" id="double-arrow" xmlns="http://www.w3.org/2000/svg"><path d="M7 18.721l5-5 5 5M7 11.721l5-5 5 5" stroke="#000" stroke-width="2" stroke-linecap="round" stroke-linejoin="round"/></svg><svg fill="none" viewBox="0 0 24 24" id="double-arrow-red" xmlns="http://www.w3.org/2000/svg"><path d="M7 6l5 5 5-5M7 13l5 5 5-5" stroke="#D22" stroke-width="2" stroke-linecap="round" stroke-linejoin="round"/></svg><svg fill="none" viewBox="0 0 23 30" id="drawing" xmlns="http://www.w3.org/2000/svg"><path d="M13.505.907V.905H7.682c-.844 0-1.527.683-1.527 1.527v.382h-.382 0a1.527 1.527 0 00-1.41.954H2.432c-.844 0-1.527.684-1.527 1.527v21c0 .844.683 1.528 1.527 1.528h.382v.382c0 .843.683 1.527 1.527 1.527h16.227c.844 0 1.527-.684 1.527-1.527v-21c0-.844-.683-1.528-1.527-1.528h-.382v-.382c0-.843-.683-1.527-1.527-1.527h-1.93a1.527 1.527 0 00-1.41-.954h0-.383v-.382c0-.812-.632-1.475-1.431-1.525zm7.063 5.916c.211 0 .382.17.382.382v21c0 .21-.17.381-.382.381H4.341a.382.382 0 01-.382-.381v-.382h14.7c.844 0 1.527-.684 1.527-1.527V6.823h.382zm-1.527-1.528v21c0 .211-.171.382-.382.382H2.432a.382.382 0 01-.382-.381v-21c0-.211.171-.382.382-.382h1.813v.859c0 .58.47 1.05 1.05 1.05h10.5c.58 0 1.05-.47 1.05-1.05v-.86h1.814c.211 0 .382.172.382.382zM15.318 3.96c.211 0 .382.171.382.382v1.336H5.391V4.341c0-.211.17-.382.382-.382h.954a.573.573 0 00.573-.573v-.954c0-.211.171-.382.382-.382h5.727c.211 0 .382.171.382.382v.954c0 .317.256.573.573.573h.954z" fill="#fff" stroke="#fff" stroke-width=".191"/><path d="M11.977 3.768h-1.909a.573.573 0 100 1.145h1.91a.573.573 0 000-1.145zM3.343 23.05H6.38c.78 0 1.397-.693 1.397-1.527V9.113c0-.834-.617-1.527-1.397-1.527H3.343c-.3 0-.53.265-.53.573v14.318s0 0 0 0c0 .308.23.573.53.573zm.53-5.727h2.846v1.718H3.872v-1.718zm0-2.864h2.846v1.718H3.872V14.46zm2.846-1.146H3.872v-1.718H6.72v1.718zm0 8.21c0 .22-.16.381-.339.381H3.872v-1.718H6.72v1.337zM3.872 8.732H6.38c.179 0 .339.162.339.381v1.337H3.872V8.732zM13.852 7.586v0h-.096c-.78 0-1.397.693-1.397 1.527v12.41c0 .834.617 1.527 1.397 1.527h3.038c.3 0 .529-.265.529-.573V8.16c0-.308-.229-.573-.53-.573h-2.941zm2.412 5.727h-2.846v-1.718h2.846v1.718zm0 2.864h-2.846V14.46h2.846v1.718zm-2.846 1.146h2.846v1.718h-2.846v-1.718zm0-8.21c0-.22.16-.381.338-.381h2.508v1.718h-2.846V9.113zm2.846 12.791h-2.508c-.178 0-.338-.162-.338-.381v-1.337h2.846v1.718zM3.371 23.814c-.31 0-.557.26-.557.573 0 .313.246.572.557.572h13.394c.311 0 .558-.26.558-.572a.565.565 0 00-.558-.573H3.371zM10.069 9.686c.295 0 .572-.195.572-.477V8.063c0-.282-.277-.477-.572-.477-.296 0-.573.195-.573.477V9.21c0 .282.277.477.573.477zM10.069 12.55c.295 0 .572-.195.572-.478v-1.145c0-.283-.277-.477-.572-.477-.296 0-.573.194-.573.477v1.145c0 .283.277.478.573.478zM10.069 16.368c.295 0 .572-.195.572-.477v-1.146c0-.282-.277-.477-.572-.477-.296 0-.573.195-.573.477v1.146c0 .282.277.477.573.477zM10.069 19.231c.295 0 .572-.195.572-.477v-1.146c0-.282-.277-.477-.572-.477-.296 0-.573.195-.573.477v1.146c0 .282.277.477.573.477zM10.069 23.05c.295 0 .572-.195.572-.478v-1.145c0-.283-.277-.477-.572-.477-.296 0-.573.194-.573.477v1.145c0 .283.277.477.573.477z" fill="#fff" stroke="#fff" stroke-width=".191"/></svg><svg fill="none" viewBox="0 0 70 70" id="ellipce" xmlns="http://www.w3.org/2000/svg"><g filter="url(#aofilter0_b_461:231)"><circle cx="35" cy="35" r="35" fill="#fff" fill-opacity=".15"/><circle cx="35" cy="35" r="34.5" stroke="#fff" stroke-opacity=".5"/></g><defs><filter id="aofilter0_b_461:231" x="-4" y="-4" width="78" height="78" filterUnits="userSpaceOnUse" color-interpolation-filters="sRGB"><feFlood flood-opacity="0" result="BackgroundImageFix"/><feGaussianBlur in="BackgroundImage" stdDeviation="2"/><feComposite in2="SourceAlpha" operator="in" result="effect1_backgroundBlur_461:231"/><feBlend in="SourceGraphic" in2="effect1_backgroundBlur_461:231" result="shape"/></filter></defs></svg><svg viewBox="0 0 25 24" id="facebook" xmlns="http://www.w3.org/2000/svg"><path d="M18.5 2h-3a5 5 0 00-5 5v3h-3v4h3v8h4v-8h3l1-4h-4V7a1 1 0 011-1h3V2z"/></svg><svg fill="none" viewBox="0 0 31 30" id="house" xmlns="http://www.w3.org/2000/svg"><g clip-path="url(#aqclip0)" fill="#fff"><path d="M20.538 10.732h-3.44a.635.635 0 00-.636.636v3.44c0 .35.285.635.636.635h3.44c.35 0 .635-.284.635-.635v-3.44a.635.635 0 00-.635-.636zm-.636 3.44h-2.169v-2.169h2.17v2.17zM14.821 16.406h-3.44a.635.635 0 00-.635.635v3.44c0 .351.284.636.635.636h3.44c.351 0 .636-.285.636-.636v-3.44a.635.635 0 00-.636-.635zm-.635 3.44h-2.17v-2.17h2.17v2.17zM20.538 16.406h-3.44a.635.635 0 00-.636.635v3.44c0 .351.285.636.636.636h3.44c.35 0 .635-.285.635-.636v-3.44a.635.635 0 00-.635-.635zm-.636 3.44h-2.169v-2.17h2.17v2.17z"/><path d="M30.717 17.191l-7.37-5.153v-.218a.636.636 0 00.827-.193l1.262-1.8a.635.635 0 00-.156-.886l-8.928-6.243a.635.635 0 00-.728 0L6.696 8.94a.636.636 0 00-.156.885l1.263 1.801a.636.636 0 00.826.192v.22l-7.37 5.152a.636.636 0 00-.202.808l1.08 2.138a.635.635 0 00.737.325v6.32c0 .35.284.635.635.635h24.958c.351 0 .636-.285.636-.636v-6.319a.636.636 0 00.736-.325l1.08-2.138a.635.635 0 00-.202-.808zM8.629 26.146h-1.06v-4.479a.635.635 0 00-1.27 0v4.479H4.145v-6.53l1.69-1.187L8.63 16.47v9.676zm0-11.228l-5.484 3.847-.205.143-.5-.991 6.189-4.328v1.329zm8.817 11.228H14.53V23.23h2.916v2.916zm4.631-13.777v13.777h-3.36v-3.552a.635.635 0 00-.635-.635h-4.187a.635.635 0 00-.636.636v3.551H9.9V10.933l6.09-4.272 6.088 4.272v1.436zm1-2.287l-6.724-4.717a.63.63 0 00-.365-.115.635.635 0 00-.365.115L8.9 10.083l-.42.294-.533-.76 8.042-5.623 8.043 5.623-.533.76-.42-.294zm4.755 16.064h-2.154v-4.479a.635.635 0 00-1.27 0v4.479h-1.06V16.47l3.962 2.78.522.366v6.53zm1.204-7.238l-.204-.143-5.484-3.848V13.59l6.19 4.328-.502.991z"/><path d="M25.665 19.447a.593.593 0 00-.094-.23.629.629 0 00-.652-.27.659.659 0 00-.326.174.635.635 0 00-.078.803.67.67 0 00.175.175.64.64 0 00.595.058.628.628 0 00.38-.462.627.627 0 000-.248zM7.556 19.447a.596.596 0 00-.094-.23.635.635 0 10.094.23z"/></g><defs><clipPath id="aqclip0"><path fill="#fff" transform="translate(.988)" d="M0 0h30v30H0z"/></clipPath></defs></svg><svg viewBox="0 0 25 24" id="linkedin" xmlns="http://www.w3.org/2000/svg"><path d="M16.5 8a6 6 0 016 6v7h-4v-7a2 2 0 00-4 0v7h-4v-7a6 6 0 016-6zM6.5 9h-4v12h4V9zM4.5 6a2 2 0 100-4 2 2 0 000 4z"/></svg><svg fill="none" viewBox="0 0 28 28" id="location" xmlns="http://www.w3.org/2000/svg"><path d="M12.23 15h4.232c.7 0 1.269-.559 1.269-1.249V9.993a.85.85 0 00.533-.291l.542-.644a.82.82 0 00-.12-1.175l-.955-.76V5.013a.84.84 0 00-.846-.833h-.847a.84.84 0 00-.846.833v.093l-1.155-.92a.87.87 0 00-1.074 0L8.314 7.884a.82.82 0 00-.12 1.175l.542.644a.852.852 0 00.533.292v3.757c0 .69.568 1.249 1.27 1.249h1.692zm.424-.832v-2.081c0-.23.19-.416.423-.416h.846a.42.42 0 01.423.416v2.08h-1.692zm3.384-9.156h.847V6.45l-.847-.673v-.766zm-2.533-.179l4.649 3.694-.542.646a.009.009 0 01-.009 0l-.006-.004-3.834-2.992a.429.429 0 00-.526 0l-3.85 2.996-.54-.642 4.658-3.698zm-3.39 8.918V9.673l3.385-2.64 3.385 2.64v4.078a.42.42 0 01-.423.417h-1.27v-2.081a1.26 1.26 0 00-1.269-1.249h-.846c-.701 0-1.27.56-1.27 1.249v2.08h-1.269a.42.42 0 01-.423-.416z" fill="#fff"/><path d="M27.701 23.584l-5.527-5.13a.928.928 0 00-.637-.253h-2.054c2.363-2.766 4.496-6.56 3.665-10.74A9.28 9.28 0 0015.456.112a9.34 9.34 0 00-10.79 9.222c0 3.43 1.846 6.517 3.854 8.866H6.533a.949.949 0 00-.632.249L.297 23.587a.923.923 0 00-.285.623.448.448 0 00-.012.057v2.8A.913.913 0 00.934 28h26.132a.913.913 0 00.934-.933v-2.8a.44.44 0 00-.011-.055.92.92 0 00-.288-.628zM8.526 2.964A8.417 8.417 0 0114.023.94a8.343 8.343 0 018.21 6.703c1.464 7.373-7.239 13.606-8.233 14.292-.86-.593-8.4-5.977-8.4-12.599a8.394 8.394 0 012.926-6.37zm-1.993 16.17H9.36a27.711 27.711 0 004.113 3.568c.316.22.737.22 1.053 0a27.652 27.652 0 004.118-3.568h2.893l5.53 5.133-26.133.003 5.6-5.136zm-5.6 7.933V25.2h26.133v1.867H.934z" fill="#fff"/></svg><svg fill="none" viewBox="0 0 30 30" id="location-pin" xmlns="http://www.w3.org/2000/svg"><path d="M29.337 8.816h-7.856V1.683a.663.663 0 00-.663-.663H6.103a.663.663 0 00-.663.663v12.034c-1.699.307-3 1.775-3.048 3.55A3.386 3.386 0 000 20.502a3.387 3.387 0 003.383 3.384h2.058v4.431c0 .366.296.663.662.663H29.337a.663.663 0 00.663-.663V9.48a.663.663 0 00-.663-.663zM10.5 27.654H6.766v-3.768h2.058a3.36 3.36 0 001.676-.446v4.214zm.192-6.29l-.029.06c-.008.015-.015.031-.024.046l-.02.038a2.059 2.059 0 01-1.795 1.052H6.766v-2.406a.663.663 0 10-1.325 0v2.406H3.383a2.057 2.057 0 01-.25-4.1.663.663 0 00.584-.658v-.433a2.39 2.39 0 012.387-2.387c1.193 0 2.184.879 2.36 2.023v.004c.005.034.01.07.013.104l.003.025.007.088.001.03c.002.037.003.075.003.113v.433a.665.665 0 00.583.658l.006.001a2.018 2.018 0 01.155.026c.007 0 .014.002.021.004.417.089.798.307 1.089.626l.003.003a2.054 2.054 0 01.344 2.244zm.67-3.357h-.253a3.368 3.368 0 00-1.293-.74 3.787 3.787 0 00-.008-.16l-.002-.017-.002-.032a3.761 3.761 0 00-.011-.112l-.003-.022-.002-.014-.002-.022a3.688 3.688 0 00-.173-.737h1.749v1.856zm3.734 9.647h-3.27V22.28H15.095v5.375zm5.06-18.175v18.175h-3.734V22.28h.537a.663.663 0 000-1.326h-4.782a3.37 3.37 0 00-.178-1.62h.026a.663.663 0 00.662-.663v-3.182a.663.663 0 00-.662-.663H8.806a3.622 3.622 0 00-.106-.107l-.04-.04a3.772 3.772 0 00-.084-.077l-.055-.047-.071-.06-.06-.048a3.695 3.695 0 00-.071-.054l-.064-.047a3.736 3.736 0 00-.213-.14c-.022-.015-.045-.028-.067-.042l-.08-.044-.066-.037-.087-.044-.063-.03a3.696 3.696 0 00-.149-.067l-.055-.022-.102-.04-.07-.023-.09-.03-.075-.022a3.463 3.463 0 00-.334-.08l-.038-.009V2.345h13.39V9.48zm8.518 18.175h-7.193V10.142h7.193v17.512z" fill="#fff"/><path d="M26.611 12.13h-3.166a.663.663 0 00-.663.662v11.405c0 .366.296.663.663.663h3.166a.663.663 0 00.663-.663V12.792a.663.663 0 00-.663-.663zm-.663 11.404h-1.84V21.06h1.84v2.473zm0-3.799h-1.84v-2.477h1.84v2.477zm0-3.803h-1.84v-2.477h1.84v2.477zM19.615 21.148a.64.64 0 00-.215-.144.657.657 0 00-.723.143.64.64 0 00-.143.215.705.705 0 00-.05.254.654.654 0 00.111.368.635.635 0 00.298.244.665.665 0 00.722-.143.665.665 0 000-.938zM12.025 3.717H8.533a.663.663 0 00-.662.663v3.182c0 .366.296.663.662.663h3.492a.663.663 0 00.662-.663V4.38a.663.663 0 00-.662-.663zM11.362 6.9H9.196V5.043h2.166v1.856zM18.238 3.717h-3.491a.663.663 0 00-.663.663v3.182c0 .366.297.663.663.663h3.491a.663.663 0 00.663-.663V4.38a.663.663 0 00-.663-.663zM17.575 6.9H15.41V5.043h2.165v1.856zM12.025 9.271H8.533a.663.663 0 00-.662.663v3.182c0 .366.296.663.662.663h3.492a.663.663 0 00.662-.663V9.934a.663.663 0 00-.662-.663zm-.663 3.182H9.196v-1.856h2.166v1.856zM18.238 9.271h-3.491a.663.663 0 00-.663.663v3.182c0 .366.297.663.663.663h3.491a.663.663 0 00.663-.663V9.934a.663.663 0 00-.663-.663zm-.663 3.182H15.41v-1.856h2.165v1.856zM18.238 14.825h-3.491a.663.663 0 00-.663.663v3.182c0 .366.297.663.663.663h3.491a.663.663 0 00.663-.663v-3.182a.663.663 0 00-.663-.663zm-.663 3.182H15.41v-1.856h2.165v1.856zM6.754 17.837a.668.668 0 00-.52-.52.657.657 0 00-.598.18.634.634 0 00-.144.216.668.668 0 000 .507.674.674 0 00.358.359.706.706 0 00.254.05.646.646 0 00.368-.111.684.684 0 00.244-.298.699.699 0 00.051-.254.653.653 0 00-.013-.129z" fill="#fff"/></svg><svg fill="none" viewBox="0 0 24 24" id="map-pin" xmlns="http://www.w3.org/2000/svg"><path d="M21 10c0 7-9 13-9 13s-9-6-9-13a9 9 0 1118 0z" stroke="#F9AF31" stroke-width="2" stroke-linecap="round" stroke-linejoin="round"/><path d="M12 13a3 3 0 100-6 3 3 0 000 6z" stroke="#F9AF31" stroke-width="2" stroke-linecap="round" stroke-linejoin="round"/></svg><svg fill="none" viewBox="0 0 24 24" id="minus-circle" xmlns="http://www.w3.org/2000/svg"><path d="M12 22c5.523 0 10-4.477 10-10S17.523 2 12 2 2 6.477 2 12s4.477 10 10 10zM14.828 9.172l-5.657 5.656" stroke="#F9AF31" stroke-width="2" stroke-linecap="round" stroke-linejoin="round"/></svg><svg fill="none" viewBox="0 0 24 24" id="phone" xmlns="http://www.w3.org/2000/svg"><path d="M22 16.92v3a1.998 1.998 0 01-2.18 2 19.791 19.791 0 01-8.63-3.07 19.5 19.5 0 01-6-6 19.79 19.79 0 01-3.07-8.67A2 2 0 014.11 2h3a2 2 0 012 1.72c.127.96.361 1.903.7 2.81a2 2 0 01-.45 2.11L8.09 9.91a16 16 0 006 6l1.27-1.27a2 2 0 012.11-.45c.907.339 1.85.574 2.81.7A2 2 0 0122 16.92z" stroke="#F9AF31" stroke-width="2" stroke-linecap="round" stroke-linejoin="round"/></svg><svg viewBox="0 0 15 17" id="play" xmlns="http://www.w3.org/2000/svg"><path d="M3.705 4.23a1 1 0 011.54-.842L12.42 8a1 1 0 010 1.682l-7.174 4.612a1 1 0 01-1.54-.842V4.23z"/></svg><svg fill="none" viewBox="0 0 30 30" id="plug" xmlns="http://www.w3.org/2000/svg"><path d="M28.026 28.52h-3.285v-2.186a.648.648 0 00-.65-.646h-1.977v-2.269a.648.648 0 00-.65-.646h-1.782V11.296h5.225c.358 0 .65-.29.65-.646V6.067a.648.648 0 00-.65-.646h-2.258l-4.237-3.76V.646a.648.648 0 00-.65-.646h-2.831c-.36 0-.65.29-.65.646v1.016L10.044 5.42H5.093c-.359 0-.65.289-.65.646V18.197c0 .356.29.646.65.646h.836v.715a1.842 1.842 0 00-1.285 1.75c0 1.013.83 1.838 1.85 1.838a1.86 1.86 0 001.495-.757.643.643 0 00-.143-.902.652.652 0 00-.907.142.549.549 0 01-.995-.32c0-.302.246-.547.55-.547h.085c.359 0 .65-.29.65-.646v-1.273h.844c.359 0 .65-.29.65-.646v-6.901h4.287v11.477H11.23c-.36 0-.65.29-.65.646v2.269H8.6c-.358 0-.65.289-.65.646v2.187H4.119c-.36 0-.65.29-.65.646 0 .356.29.646.65.646H28.026c.36 0 .65-.29.65-.646a.648.648 0 00-.65-.646zM18.412 3.394l2.285 2.028h-2.285V3.393zM16.346 1.56l.766.68v3.18h-1.531V2.24l.765-.68zm-2.065 1.833v2.028h-2.286l2.286-2.028zM7.423 17.551h-.425a.649.649 0 00-.838 0h-.417v-6.255h1.68v6.255zm.65-7.547h-2.33v-1h14.236c.358 0 .65-.29.65-.646a.648.648 0 00-.65-.646H5.743v-1h18.514v3.292H8.073zm10.31 11.336v1.433h-3.06l3.06-1.433zm-4.073.48v-3.736l3.33 2.176-3.33 1.56zm.67-4.845l3.402-1.888V19.2l-3.402-2.225zm-.67-1.107v-4.025l3.387 2.145-3.387 1.88zm1.554-4.572h2.518v1.594l-2.518-1.594zm-3.985 12.769H20.814v1.623h-8.935v-1.623zm11.562 4.456H9.251v-1.542h14.19v1.542zM2.433 28.71a.618.618 0 00-.211-.14.657.657 0 00-.609.06.646.646 0 10.721 1.074.67.67 0 00.18-.179.654.654 0 00.11-.358c0-.17-.07-.337-.19-.457z" fill="#F6F6F6"/><path d="M22.76 8.232a.648.648 0 00-.998-.41.649.649 0 00-.24.784.69.69 0 00.142.21.687.687 0 00.21.139.659.659 0 00.25.049.655.655 0 00.6-.399.648.648 0 00.037-.373z" fill="#F6F6F6"/></svg><svg fill="none" viewBox="0 0 24 24" id="plus-circle" xmlns="http://www.w3.org/2000/svg"><path d="M12 22c5.523 0 10-4.477 10-10S17.523 2 12 2 2 6.477 2 12s4.477 10 10 10zM12 8v8M8 12h8" stroke="#100D0D" stroke-width="2" stroke-linecap="round" stroke-linejoin="round"/></svg><svg fill="none" viewBox="0 0 30 30" id="rent" xmlns="http://www.w3.org/2000/svg"><path d="M19.375 9.375L23.75 5m2.5-2.5L23.75 5l2.5-2.5zM14.237 14.512a6.873 6.873 0 01.033 9.756 6.875 6.875 0 01-9.755-.033 6.875 6.875 0 019.721-9.721l.001-.002zm0 0l5.138-5.137-5.138 5.137zm5.138-5.137l3.75 3.75L27.5 8.75 23.75 5l-4.375 4.375z" stroke="#fff" stroke-width="1.5" stroke-linecap="round" stroke-linejoin="round"/></svg><svg viewBox="0 0 24 24" id="telegram" xmlns="http://www.w3.org/2000/svg"><path d="M2.178 12.986h.001l-.076-2.656c-.518.197-.821.448-.993.699-.173.25-.208.493-.203.664.005.17.054.41.24.651.186.24.503.474 1.031.642zm18.934-9.913L2.104 10.33l.122 2.572-.026.09H2.2l3.896 1.115 2.116 6.052.089-.03-.089.03c.301.861.985 1.41 1.792 1.41.507 0 1-.212 1.427-.604l2.38-2.192 3.473 2.798.005.003.03.025.002.001.004.004.005.004c.407.315.856.485 1.3.486.873 0 1.556-.649 1.753-1.62l3.114-15.38c.13-.637.024-1.22-.314-1.633-.294-.36-.732-.555-1.23-.555-.27 0-.552.057-.84.167zm-2.337 4.094a.751.751 0 00-.943-.218L6.598 12.688l-3.69-1.056 18.74-7.155a.875.875 0 01.305-.068.3.3 0 01.07.008l.007.018c.005.017.011.04.015.073a.94.94 0 01-.02.288l-3.115 15.38a.988.988 0 01-.095.273c-.052.093-.113.141-.186.141-.09 0-.223-.052-.373-.166l-4.006-3.226a.092.092 0 00-.006-.005l-2.303-1.855 6.78-7.205a.751.751 0 00.054-.966zm3.317-2.814c.035.043.08.189.024.461l-.024-.46zm-14.49 9.51l7.055-3.604-4.367 4.64a.75.75 0 00-.183.335l-.838 3.394-1.666-4.765zm2.941 5.875l.74-2.999 1.343 1.081-2.083 1.918z"/></svg><svg fill="none" viewBox="0 0 16 16" id="viber" xmlns="http://www.w3.org/2000/svg"><path d="M7.6.003C6.316.02 3.556.23 2.012 1.646.863 2.784.462 4.466.415 6.547.376 8.62.33 12.513 4.082 13.573v1.615s-.024.646.403.778c.526.167.826-.33 1.326-.864l.932-1.055c2.568.214 4.534-.278 4.76-.351.522-.167 3.456-.542 3.936-4.435.492-4.021-.24-6.555-1.56-7.7h-.008c-.399-.368-2-1.535-5.578-1.548 0 0-.266-.018-.693-.01zm.044 1.13c.365-.002.586.014.586.014 3.029.008 4.474.92 4.815 1.226 1.112.953 1.685 3.237 1.266 6.594-.399 3.255-2.779 3.461-3.22 3.602-.187.06-1.919.487-4.1.346 0 0-1.626 1.961-2.134 2.466-.08.089-.174.115-.234.102-.086-.021-.112-.128-.107-.274l.015-2.68c-3.182-.88-2.995-4.2-2.96-5.934.038-1.735.364-3.154 1.333-4.115 1.304-1.18 3.648-1.338 4.74-1.346zm.24 1.735a.199.199 0 00-.2.198.2.2 0 00.2.2 3.757 3.757 0 012.688 1.06c.726.706 1.08 1.654 1.094 2.893 0 .11.088.2.2.2v-.007a.2.2 0 00.2-.198 4.31 4.31 0 00-1.208-3.175c-.791-.773-1.794-1.172-2.974-1.172zm-2.635.458a.626.626 0 00-.41.08h-.01c-.285.168-.543.38-.763.628-.182.211-.281.425-.307.63a.852.852 0 00.031.362l.013.008c.206.604.474 1.185.802 1.732.423.769.943 1.48 1.547 2.115l.018.026.029.02.018.022.02.018c.638.606 1.35 1.128 2.12 1.554.88.48 1.415.706 1.735.8v.005c.094.028.18.041.266.041.273-.02.532-.13.734-.315.247-.22.457-.478.62-.765v-.005c.154-.29.102-.563-.12-.748a9.234 9.234 0 00-1.432-1.028c-.341-.185-.688-.073-.828.114l-.3.378c-.153.187-.432.161-.432.161l-.008.005c-2.08-.531-2.636-2.638-2.636-2.638s-.026-.286.167-.432l.375-.302c.18-.146.304-.492.112-.834a8.997 8.997 0 00-1.026-1.432.57.57 0 00-.336-.2zm2.981.594c-.265 0-.265.401.003.401a2.513 2.513 0 011.765.766 2.33 2.33 0 01.6 1.713.201.201 0 00.2.198l.008.01a.202.202 0 00.2-.2c.018-.794-.229-1.46-.713-1.995-.487-.534-1.167-.833-2.034-.893H8.23zm.329 1.078c-.274-.008-.284.401-.013.41.659.033.979.366 1.02 1.051a.2.2 0 00.199.196h.008a.201.201 0 00.192-.214C9.918 5.548 9.431 5.045 8.567 5h-.008z" fill="#F9AF31"/></svg><svg fill="none" viewBox="0 0 984 294" id="wawe" xmlns="http://www.w3.org/2000/svg"><path d="M1 232.917S34.704 3.351 144.937 3.351C325.358 3.35 308.544 293.5 488.786 293.5 674.205 293.5 670.706-2.353 835.634.52c162.928 2.84 146.935 232.397 146.935 232.397" stroke="#EAEAEA" stroke-dasharray="5 5"/></svg><svg viewBox="0 0 24 24" id="whatsapp" xmlns="http://www.w3.org/2000/svg"><g clip-path="url(#clip0_762:22007)"><path d="M17.507 14.307l-.009.075c-2.199-1.096-2.429-1.242-2.713-.816-.197.295-.77.964-.944 1.162-.175.195-.349.21-.646.075-.3-.15-1.263-.465-2.403-1.485-.888-.795-1.484-1.77-1.66-2.07-.293-.506.32-.578.878-1.634.1-.21.05-.375-.025-.524-.075-.15-.672-1.62-.922-2.206-.24-.584-.487-.51-.672-.51-.576-.05-.997-.042-1.368.344-1.614 1.774-1.207 3.604.174 5.55 2.714 3.552 4.16 4.206 6.804 5.114.714.227 1.365.195 1.88.121.574-.091 1.767-.721 2.016-1.426.255-.705.255-1.29.18-1.425-.074-.135-.27-.21-.57-.345z"/><path d="M20.52 3.45C12.831-3.985.106 1.406.101 11.892c0 2.096.549 4.14 1.595 5.945L0 24l6.335-1.652C14.24 26.618 23.996 20.948 24 11.9c0-3.176-1.24-6.165-3.495-8.41l.015-.04zm1.482 8.416c-.006 7.633-8.385 12.4-15.012 8.504l-.36-.214-3.75.975 1.005-3.645-.239-.375c-4.124-6.565.614-15.145 8.426-15.145a9.865 9.865 0 017.021 2.91 9.788 9.788 0 012.909 6.99z"/></g></svg></svg>