<svg width="79" height="79" viewBox="0 0 79 79" fill="none" xmlns="http://www.w3.org/2000/svg">
<g clip-path="url(#clip0)">
<path d="M29.5861 75.9999C28.9024 75.9999 28.207 75.9028 27.5172 75.7018C24.3066 74.7661 22.197 71.8792 22.2676 68.5181C22.288 67.5499 21.8371 66.6983 21.0303 66.182C20.2444 65.6787 19.3127 65.6243 18.4746 66.0321C15.4946 67.4827 12.0255 66.7765 9.84207 64.2755C7.63194 61.7437 7.40041 58.1638 9.26641 55.3671C9.80233 54.5638 9.87835 53.5983 9.47483 52.7183C9.07997 51.857 8.32105 51.2974 7.3926 51.1829C4.09547 50.7764 1.55827 48.2817 1.07945 44.9753C0.598891 41.6574 2.33107 38.5341 5.38987 37.2032C6.25632 36.8263 6.83169 36.0665 6.96855 35.1188C7.10644 34.1636 6.76506 33.2636 6.03187 32.6497C3.46287 30.4985 2.68054 27.0024 4.08492 23.9501C5.4763 20.926 8.60751 19.2609 11.8762 19.8065C12.7942 19.9597 13.6738 19.6414 14.2898 18.9334C14.9234 18.2051 15.12 17.2564 14.8293 16.3306C13.8208 13.1191 15.0435 9.74937 17.8719 7.94518C20.6691 6.16093 24.1975 6.46647 26.6519 8.70541C27.3459 9.33846 28.2576 9.55122 29.1537 9.28932C30.0635 9.02324 30.7282 8.3383 30.9774 7.41012C31.846 4.17419 34.6682 2.00014 38 2C41.332 2 44.1543 4.17405 45.0228 7.41012C45.272 8.33816 45.9365 9.0231 46.8463 9.28918C47.7424 9.55122 48.6542 9.33846 49.3482 8.70527C51.8025 6.46633 55.3307 6.16079 58.1282 7.94503C60.9565 9.74908 62.1793 13.119 61.1708 16.3305C60.8802 17.2562 61.0769 18.2048 61.7104 18.9331C62.3262 19.641 63.2058 19.9594 64.1238 19.8062C67.3938 19.2604 70.5238 20.9259 71.9151 23.9499C73.3196 27.0023 72.5373 30.4984 69.9683 32.6494C69.2351 33.2634 68.8936 34.1634 69.0316 35.1186C69.1683 36.0663 69.7438 36.826 70.6103 37.2031C73.6689 38.5339 75.4011 41.6574 74.9206 44.9753C74.4417 48.2816 71.9045 50.7762 68.6074 51.1828C67.6789 51.2972 66.92 51.8569 66.5252 52.7183C66.1218 53.5982 66.1977 54.5637 66.7336 55.367C68.5994 58.1638 68.3682 61.7437 66.1579 64.2755C63.9744 66.7766 60.5053 67.4827 57.5254 66.0321C56.6871 65.6241 55.7556 65.679 54.9695 66.182C54.1629 66.6983 53.712 67.5499 53.7322 68.5181C53.8028 71.8792 51.6932 74.7661 48.4827 75.7018C45.2938 76.6314 41.9864 75.3404 40.2536 72.4901C39.7602 71.6781 38.9386 71.2126 37.9997 71.2126C37.0609 71.2126 36.2394 71.6783 35.7459 72.4901C34.3885 74.724 32.0635 75.9999 29.5861 75.9999ZM38 66.5874C40.5538 66.5874 42.8739 67.8959 44.2061 70.0877C45.1851 71.6982 46.737 71.3931 47.189 71.2614C48.1381 70.9848 49.1408 70.1444 49.1088 68.6152C49.0546 66.0372 50.3135 63.6713 52.4764 62.2867C54.6191 60.9151 57.2632 60.7606 59.5495 61.8737C61.2207 62.6869 62.3636 61.5895 62.6741 61.2338C63.3354 60.476 63.7387 59.2112 62.8865 57.9339C61.4613 55.7975 61.25 53.1272 62.3213 50.7907C63.3841 48.4725 65.5224 46.9032 68.0416 46.5926C69.5217 46.41 70.2011 45.295 70.3436 44.3123C70.4873 43.3202 70.1479 42.0459 68.7651 41.4442C66.4312 40.4287 64.8196 38.311 64.4542 35.7794C64.0878 33.2404 65.0393 30.7448 66.9992 29.1036C68.1682 28.1247 68.1346 26.7982 67.7136 25.8833C67.5145 25.4505 66.722 24.0618 64.8854 24.3683C62.383 24.786 59.8913 23.8891 58.221 21.9688C56.5332 20.0288 55.9866 17.4029 56.7585 14.9449C57.2191 13.4783 56.4833 12.3816 55.6412 11.8445C55.245 11.5916 53.8444 10.8641 52.4651 12.1223C50.5788 13.8428 47.9937 14.4436 45.5482 13.7282C43.0896 13.0091 41.2234 11.0954 40.5561 8.60901C40.1634 7.1462 38.9783 6.62502 38.0001 6.62502C37.022 6.62502 35.837 7.1462 35.4443 8.60916C34.7769 11.0955 32.9106 13.0093 30.452 13.7283C28.007 14.4435 25.4214 13.8429 23.5351 12.1224C22.1561 10.8644 20.7556 11.5919 20.3591 11.8445C19.517 12.3817 18.7813 13.4783 19.2419 14.945C20.0137 17.4031 19.467 20.0288 17.7793 21.969C16.1088 23.8891 13.6177 24.7863 11.1149 24.3685C9.27856 24.0622 8.48567 25.4506 8.28651 25.8835C7.8655 26.7985 7.83211 28.1249 9.00106 29.1038C10.9612 30.7449 11.9126 33.2407 11.5461 35.7797C11.1807 38.3112 9.56906 40.4289 7.23507 41.4444C5.85222 42.0462 5.51301 43.3205 5.65667 44.3126C5.79903 45.2953 6.47846 46.4105 7.95858 46.5929C10.4777 46.9035 12.6162 48.4729 13.679 50.7911C14.7503 53.1276 14.539 55.798 13.1136 57.9342C12.2615 59.2115 12.6647 60.4763 13.3261 61.2341C13.6367 61.5897 14.7796 62.6872 16.4505 61.8739C18.7369 60.7611 21.3811 60.9154 23.5237 62.287C25.6866 63.6716 26.9456 66.0373 26.8914 68.6155C26.8593 70.1446 27.8619 70.9851 28.811 71.2617C29.2635 71.3935 30.8152 71.6984 31.7939 70.0881C33.1264 67.896 35.4462 66.5874 38 66.5874Z" fill="#F4EDE5"/>
<path d="M18.4365 67.9093L18.6553 68.3589L18.4365 67.9093C15.4586 69.3588 11.999 68.6551 9.81615 66.1548C7.60523 63.6222 7.37403 60.049 9.24086 57.2511L9.24088 57.2511C9.90956 56.2488 10.0048 55.0342 9.50194 53.9374C9.00926 52.8628 8.05175 52.1543 6.88571 52.0105C3.59131 51.6043 1.05878 49.1166 0.579654 45.8082L0.0848164 45.8798L0.579653 45.8082C0.0987091 42.4877 1.82865 39.3715 4.88595 38.0413C5.97242 37.5687 6.69622 36.6094 6.86669 35.4291L6.8667 35.4291C7.03836 34.2398 6.60994 33.1062 5.69281 32.3384C3.12388 30.1873 2.34222 26.698 3.74758 23.6436C5.13928 20.6189 8.26306 18.9592 11.5287 19.5043C12.682 19.6968 13.7945 19.2928 14.565 18.4072C15.3562 17.4977 15.6028 16.3037 15.2408 15.1507L15.2407 15.1507C14.2315 11.9369 15.4527 8.57417 18.2808 6.77022C21.0761 4.98722 24.5946 5.29151 27.0481 7.52966L27.0482 7.52968C27.917 8.32217 29.0709 8.59242 30.1962 8.26353L30.1963 8.26351C31.3379 7.92965 32.1752 7.06366 32.4857 5.90712C33.3548 2.66939 36.171 0.502098 39.5 0.501953C42.8291 0.501953 45.6454 2.66925 46.5143 5.90708L46.5144 5.90714C46.8248 7.06348 47.662 7.92948 48.8036 8.26335L48.944 7.78346L48.8036 8.26336C49.929 8.59244 51.0831 8.32218 51.9519 7.52948C54.4053 5.29137 57.9236 4.98706 60.7193 6.77008C63.5472 8.57386 64.7686 11.9367 63.7593 15.1505L63.7593 15.1506C63.3973 16.3036 63.644 17.4974 64.4351 18.4069L64.8123 18.0787L64.4351 18.4069C65.2054 19.2924 66.3178 19.6965 67.4712 19.504C70.7382 18.9587 73.8608 20.6187 75.2523 23.6434L75.7066 23.4344L75.2523 23.6434C76.6578 26.6979 75.8762 30.1872 73.3072 32.3382L73.6282 32.7215L73.3072 32.3382C72.3902 33.1061 71.9615 34.2396 72.1334 35.429C72.3037 36.6094 73.0278 37.5684 74.1141 38.0412L74.3136 37.5827L74.1141 38.0412C77.1712 39.3713 78.9012 42.4877 78.4203 45.8082C77.9411 49.1165 75.4086 51.6042 72.1142 52.0104C70.9482 52.1541 69.9906 52.8627 69.4979 53.9375C68.9953 55.034 69.0903 56.2486 69.759 57.2509C71.6257 60.049 71.3948 63.6222 69.1838 66.1548C67.0008 68.6552 63.5411 69.3588 60.5634 67.9094L60.3446 68.3589L60.5634 67.9093C59.5115 67.3974 58.3321 67.4672 57.3466 68.0978L57.3465 68.0978C56.3366 68.7442 55.7701 69.8179 55.7953 71.0232C55.8658 74.387 53.7597 77.2665 50.551 78.2016C47.3651 79.1304 44.0662 77.8441 42.3331 74.9934C41.717 73.9795 40.679 73.3893 39.4996 73.3893C38.3202 73.3893 37.2824 73.9797 36.6663 74.9934L37.0936 75.2531L36.6663 74.9934C35.3074 77.2297 32.9868 78.5 30.5176 78.5C29.8351 78.5 29.1399 78.403 28.4488 78.2016C25.24 77.2665 23.1338 74.387 23.2045 71.0233C23.2299 69.8179 22.6633 68.7441 21.6532 68.0978C20.6676 67.4667 19.488 67.3976 18.4365 67.9093ZM45.6981 72.9481L46.1253 72.6884L45.6981 72.9481C46.2991 73.9367 47.1003 74.3628 47.8345 74.5034C48.5478 74.6401 49.1691 74.5032 49.4497 74.4215L49.3098 73.9414L49.4497 74.4215C50.6259 74.0786 51.8993 73.0164 51.8592 71.106C51.805 68.5271 53.0625 66.1654 55.2241 64.7817C57.3648 63.4113 60.0026 63.2572 62.2866 64.3691L62.2867 64.3692C63.3168 64.8705 64.2167 64.79 64.9066 64.5091C65.5769 64.2363 66.0258 63.7854 66.2179 63.5653C67.0323 62.6321 67.5497 61.0339 66.4839 59.4362C65.0588 57.3 64.8476 54.6332 65.919 52.2964C66.9818 49.9785 69.1163 48.4129 71.6325 48.1026L71.5713 47.6064L71.6325 48.1026C73.496 47.8728 74.3488 46.4503 74.5237 45.2439L74.5238 45.2438C74.7 44.0266 74.2808 42.4078 72.5432 41.6518C70.2115 40.6373 68.6019 38.5236 68.2365 35.9915C67.87 33.4518 68.8206 30.9599 70.7795 29.3196L70.4586 28.9362L70.7796 29.3196C72.2448 28.0925 72.1926 26.4131 71.6754 25.2894C71.5526 25.0223 71.2476 24.4589 70.6799 24.0037C70.0958 23.5352 69.2525 23.1988 68.1195 23.3879C65.6202 23.8051 63.134 22.9106 61.4645 20.9914L61.4644 20.9913C59.777 19.0517 59.2308 16.4296 60.0029 13.9709C60.5784 12.1388 59.6425 10.7534 58.6019 10.0898C58.356 9.93284 57.7998 9.62781 57.0802 9.55712C56.3393 9.48432 55.4541 9.66443 54.6055 10.4385C52.7201 12.158 50.1412 12.757 47.6985 12.0424L47.6985 12.0424C45.2423 11.3241 43.3791 9.41456 42.7117 6.92774L42.7117 6.92771C42.2204 5.09773 40.7144 4.43936 39.5001 4.43936C38.2858 4.43936 36.7799 5.09777 36.2887 6.92788C35.6211 9.4147 33.7578 11.3242 31.3016 12.0425L31.442 12.5224L31.3016 12.0425C28.8594 12.7569 26.2799 12.1581 24.3947 10.4387C23.5462 9.66465 22.6611 9.4846 21.9202 9.55736C21.2005 9.62805 20.6441 9.93316 20.3984 10.0897L20.3983 10.0898C19.3577 10.7536 18.422 12.1389 18.9974 13.9711C19.7694 16.4297 19.2231 19.0517 17.5358 20.9915C15.8661 22.9107 13.3805 23.8054 10.8807 23.3881L10.8806 23.3881C9.74779 23.1991 8.90458 23.5355 8.3204 24.0039C7.75269 24.459 7.44754 25.0224 7.32461 25.2896C6.80749 26.4135 6.75542 28.0927 8.22065 29.3197L8.22068 29.3197C10.1798 30.96 11.1304 33.4521 10.7638 35.9918L11.2586 36.0632L10.7638 35.9918C10.3983 38.5238 8.78874 40.6374 6.45687 41.652L6.45682 41.652C4.71927 42.4082 4.3002 44.0269 4.47646 45.2441L4.47647 45.2441C4.65125 46.4506 5.50406 47.8733 7.36759 48.103C9.88373 48.4132 12.0184 49.9789 13.0812 52.2969C14.1526 54.6337 13.9414 57.3005 12.5162 59.4365L12.5162 59.4365C11.4503 61.0342 11.9678 62.6325 12.7822 63.5656L12.7824 63.5658C12.9744 63.7856 13.4233 64.2365 14.0936 64.5094C14.7835 64.7903 15.6833 64.8708 16.7133 64.3695C18.9975 63.2577 21.6353 63.4116 23.776 64.782C25.9376 66.1657 27.1951 68.5273 27.1409 71.1063C27.1008 73.0166 28.374 74.0789 29.5502 74.4218L29.5503 74.4218C29.8311 74.5036 30.4525 74.6404 31.1658 74.5038C31.8999 74.3631 32.701 73.937 33.3018 72.9486C34.6341 70.7568 36.9492 69.4517 39.5 69.4517C42.0508 69.4517 44.3662 70.7567 45.6981 72.9481Z" fill="black" stroke="white"/>
<path d="M27.1571 54.312C26.5253 54.312 25.8936 54.071 25.4116 53.5889C24.4474 52.6248 24.4474 51.0617 25.4116 50.0977L50.0986 25.4106C51.0627 24.4465 52.6258 24.4465 53.5898 25.4106C54.554 26.3747 54.554 27.9378 53.5898 28.9018L28.9028 53.5889C28.4207 54.071 27.789 54.312 27.1571 54.312Z" fill="#BF9366"/>
<path d="M32.0946 32.0936C29.3721 32.0936 27.1572 29.8787 27.1572 27.1562C27.1572 24.4336 29.3721 22.2188 32.0946 22.2188C34.8171 22.2188 37.032 24.4336 37.032 27.1562C37.032 29.8787 34.8171 32.0936 32.0946 32.0936ZM32.0946 27.1562C32.0946 27.1583 32.0948 27.1592 32.0948 27.1592L32.0946 27.1562Z" fill="#BF9366"/>
<path d="M46.9062 56.7811C44.1836 56.7811 41.9688 54.5662 41.9688 51.8437C41.9688 49.1211 44.1836 46.9062 46.9062 46.9062C49.6287 46.9062 51.8436 49.1211 51.8436 51.8437C51.8436 54.5662 49.6285 56.7811 46.9062 56.7811ZM46.9062 51.8437C46.9062 51.8458 46.9063 51.8467 46.9063 51.8469L46.9062 51.8437Z" fill="#BF9366"/>
</g>
<defs>
<clipPath id="clip0">
<rect width="79" height="79" fill="white"/>
</clipPath>
</defs>
</svg>
