<svg width="156" height="17" viewBox="0 0 156 17" fill="none" xmlns="http://www.w3.org/2000/svg">
<path d="M0.520809 16H1.88581C2.20081 16 2.32681 15.874 2.32681 15.559V10.729C2.32681 10.414 2.41081 10.33 2.72581 10.33H3.83881C6.06481 10.33 7.68181 8.713 7.68181 6.004V4.576C7.68181 1.867 6.06481 0.249999 3.83881 0.249999H0.520809C0.205809 0.249999 0.0798086 0.376 0.0798086 0.690999V15.559C0.0798086 15.874 0.205809 16 0.520809 16ZM2.72581 8.251C2.41081 8.251 2.32681 8.167 2.32681 7.852V2.644C2.32681 2.329 2.41081 2.245 2.72581 2.245H3.64981C4.57381 2.245 5.43481 2.938 5.43481 4.534V5.962C5.43481 7.558 4.57381 8.251 3.64981 8.251H2.72581ZM28.1829 15.58L25.7469 9.532C26.8809 8.839 27.5949 7.537 27.5949 5.731V4.576C27.5949 1.867 25.9779 0.249999 23.7519 0.249999H20.4339C20.1189 0.249999 19.9929 0.376 19.9929 0.690999V15.559C19.9929 15.874 20.1189 16 20.4339 16H21.7989C22.1139 16 22.2399 15.874 22.2399 15.559V10.456C22.2399 10.141 22.3239 10.057 22.6389 10.057H23.7099L25.8939 15.706C25.9779 15.916 26.1249 16 26.3769 16H27.9729C28.1829 16 28.2879 15.832 28.1829 15.58ZM22.2399 7.579V2.644C22.2399 2.329 22.3239 2.245 22.6389 2.245H23.5629C24.4869 2.245 25.3479 2.938 25.3479 4.534V5.71C25.3479 7.285 24.4869 7.978 23.5629 7.978H22.6389C22.3239 7.978 22.2399 7.894 22.2399 7.579ZM40.3366 15.559C40.3366 15.874 40.4626 16 40.7776 16H42.1426C42.4576 16 42.5836 15.874 42.5836 15.559V0.690999C42.5836 0.376 42.4576 0.249999 42.1426 0.249999H40.7776C40.4626 0.249999 40.3366 0.376 40.3366 0.690999V15.559ZM61.8144 0.67L59.5044 11.128C59.4834 11.275 59.2944 11.275 59.2524 11.128L56.9634 0.67C56.9004 0.354999 56.7324 0.249999 56.4594 0.249999H54.9894C54.7584 0.249999 54.6324 0.354999 54.6954 0.67L58.3074 15.58C58.3914 15.937 58.5174 16 58.8534 16H59.9244C60.2604 16 60.3864 15.937 60.4704 15.58L64.0824 0.67C64.1664 0.354999 64.0194 0.249999 63.7884 0.249999H62.3184C62.0454 0.249999 61.8774 0.354999 61.8144 0.67ZM76.2048 15.559C76.2048 15.874 76.3308 16 76.6458 16H78.0108C78.3258 16 78.4518 15.874 78.4518 15.559V0.690999C78.4518 0.376 78.3258 0.249999 78.0108 0.249999H76.6458C76.3308 0.249999 76.2048 0.376 76.2048 0.690999V15.559ZM96.8846 14.005H93.9446C93.6296 14.005 93.5456 13.921 93.5456 13.606V0.690999C93.5456 0.376 93.4196 0.249999 93.1046 0.249999H91.7396C91.4246 0.249999 91.2986 0.376 91.2986 0.690999V15.559C91.2986 15.874 91.4246 16 91.7396 16H96.8846C97.1996 16 97.3256 15.874 97.3256 15.559V14.446C97.3256 14.131 97.1996 14.005 96.8846 14.005ZM111.695 2.644C111.695 2.329 111.779 2.245 112.094 2.245H115.139C115.454 2.245 115.58 2.119 115.58 1.804V0.690999C115.58 0.376 115.454 0.249999 115.139 0.249999H109.889C109.574 0.249999 109.448 0.376 109.448 0.690999V15.559C109.448 15.874 109.574 16 109.889 16H115.139C115.454 16 115.58 15.874 115.58 15.559V14.446C115.58 14.131 115.454 14.005 115.139 14.005H112.094C111.779 14.005 111.695 13.921 111.695 13.606V9.322C111.695 9.007 111.779 8.923 112.094 8.923H115.139C115.454 8.923 115.58 8.797 115.58 8.482V7.348C115.58 7.033 115.454 6.907 115.139 6.907H112.094C111.779 6.907 111.695 6.823 111.695 6.508V2.644ZM135.728 6.991H132.557C132.242 6.991 132.137 7.096 132.137 7.411V8.398C132.137 8.713 132.242 8.818 132.557 8.818H133.586C133.943 8.818 134.006 8.86 134.006 9.238V11.905C134.006 13.312 133.229 14.089 132.263 14.089C131.15 14.089 130.478 13.102 130.478 11.485V4.765C130.478 3.148 131.129 2.161 132.242 2.161C133.208 2.161 133.754 2.917 133.901 3.82C133.943 4.051 134.048 4.135 134.279 4.135H135.812C136.064 4.135 136.106 3.946 136.085 3.757C135.98 1.678 134.657 0.0609987 132.221 0.0609987C129.638 0.0609987 128.231 1.846 128.231 4.765V11.485C128.231 14.404 129.638 16.189 132.221 16.189C134.741 16.189 136.148 14.488 136.148 12.01V7.411C136.148 7.096 136.043 6.991 135.728 6.991ZM151.131 2.644C151.131 2.329 151.215 2.245 151.53 2.245H154.575C154.89 2.245 155.016 2.119 155.016 1.804V0.690999C155.016 0.376 154.89 0.249999 154.575 0.249999H149.325C149.01 0.249999 148.884 0.376 148.884 0.690999V15.559C148.884 15.874 149.01 16 149.325 16H154.575C154.89 16 155.016 15.874 155.016 15.559V14.446C155.016 14.131 154.89 14.005 154.575 14.005H151.53C151.215 14.005 151.131 13.921 151.131 13.606V9.322C151.131 9.007 151.215 8.923 151.53 8.923H154.575C154.89 8.923 155.016 8.797 155.016 8.482V7.348C155.016 7.033 154.89 6.907 154.575 6.907H151.53C151.215 6.907 151.131 6.823 151.131 6.508V2.644Z" fill="#BF9366"/>
</svg>
