<svg width="2324" height="428" viewBox="0 0 2324 428" fill="none" xmlns="http://www.w3.org/2000/svg">
<path fill-rule="evenodd" clip-rule="evenodd" d="M222.589 16.6414C231.678 23.8811 240.753 31.1208 249.827 38.3606C260.669 47.0115 271.512 55.6624 282.38 64.3132L386.495 147.327C394.495 153.691 402.497 160.054 410.499 166.514C417.899 172.395 428.6 162.272 421.1 156.294C410.091 147.531 399.108 138.769 388.126 130.007C377.356 121.414 366.585 112.822 355.79 104.229L251.675 21.2156C243.675 14.8518 235.673 8.48852 227.673 2.02856C223.919 -0.995362 219.264 0.23706 216.636 2.948C193.171 19.9377 169.62 37.012 146.161 53.9968C127.065 67.8503 107.946 81.6799 88.8269 95.5095C69.491 109.496 50.155 123.482 30.8445 137.493L26.7312 140.472L22.9851 143.187C16.8406 147.646 10.7156 152.09 4.53981 156.487C2.14332 158.238 0.641371 160.753 0.844496 163.402L0.840589 163.718V250.299V388.366V420.183C0.840589 429.439 15.8425 429.439 15.8425 420.183V333.602V195.535V166.341L48.7312 142.518C60.6804 133.861 72.6277 125.204 84.5515 116.571C103.675 102.697 122.821 88.8464 141.969 74.9963C161.278 61.0305 180.587 47.0647 199.868 33.0745C207.471 27.5764 215.003 22.0779 222.589 16.6414ZM866.366 139.517C866.366 145.302 868.466 150.219 872.766 154.365C877.067 158.415 882.368 160.536 888.569 160.536C894.87 160.536 900.071 158.511 904.372 154.365C908.671 150.219 910.772 145.206 910.772 139.132C910.772 133.636 908.671 128.911 904.372 124.959C900.071 121.006 894.87 118.981 888.569 118.981C882.268 118.981 877.067 121.102 872.766 125.151C868.466 129.201 866.366 134.022 866.366 139.517ZM903.571 207.876H873.266V424.426H903.571V207.876ZM137.464 347.389H303.987L339.792 424.329H373.096L236.477 136.143H205.272L68.6531 424.329H101.557L137.464 347.389ZM220.774 167.96L292.485 322.707H149.065L220.774 167.96ZM529.518 206.237C508.716 206.237 491.313 209.901 477.212 217.325C463.108 224.749 452.507 235.74 445.305 250.299V207.876H416.302V424.522H446.606V314.222C446.606 288.962 453.307 269.293 466.71 255.313C480.112 241.332 498.614 234.294 522.218 234.294L529.518 234.679V206.237ZM765.852 229.859C782.553 245.671 790.854 268.618 790.854 298.796V424.329H760.552V301.688C760.552 279.223 754.751 262.062 743.048 250.202C731.346 238.44 714.745 232.462 693.042 232.462C668.839 232.462 649.735 239.404 635.634 253.288C621.53 267.172 614.53 286.262 614.53 310.752V424.329H584.225V207.876H613.229V247.792C621.53 234.583 632.932 224.363 647.636 217.132C662.337 209.901 679.339 206.237 698.641 206.237C726.747 206.237 749.149 214.143 765.852 229.859ZM1106.4 136.239H1138V424.426H1106.4V136.239ZM1435.65 298.796C1435.65 268.618 1427.34 245.671 1410.64 229.859C1393.94 214.143 1371.54 206.237 1343.43 206.237C1324.13 206.237 1307.13 209.901 1292.43 217.132C1277.72 224.363 1266.32 234.583 1258.02 247.792V207.876H1229.02V424.329H1259.32V310.752C1259.32 286.262 1266.32 267.172 1280.42 253.288C1294.53 239.404 1313.63 232.462 1337.83 232.462C1359.54 232.462 1376.14 238.44 1387.84 250.202C1399.54 262.062 1405.34 279.223 1405.34 301.688V424.329H1435.65V298.796ZM1702.48 207.876L1602.57 424.426H1571.37L1471.85 207.876H1503.46L1587.57 392.319L1672.58 207.876H1702.48ZM1746.49 325.214H1934.32L1934.82 316.054C1934.82 294.65 1930.12 275.656 1920.71 259.073C1911.31 242.489 1898.31 229.57 1881.81 220.217C1865.31 210.865 1846.7 206.237 1825.9 206.237C1805.2 206.237 1786.49 210.865 1769.79 220.217C1753.09 229.57 1739.99 242.586 1730.49 259.362C1720.99 276.042 1716.19 295.036 1716.19 316.151C1716.19 337.266 1721.09 356.163 1731.09 372.94C1740.99 389.716 1754.89 402.828 1772.69 412.277C1790.5 421.726 1810.9 426.45 1834 426.45C1851.91 426.45 1868.41 423.462 1883.31 417.387C1898.31 411.409 1910.71 402.635 1920.71 391.066L1903.61 372.168C1895.11 381.521 1885.01 388.559 1873.31 393.38C1861.71 398.2 1848.8 400.611 1834.9 400.611C1810.1 400.611 1789.6 393.669 1773.39 379.785C1757.19 365.901 1748.19 347.679 1746.49 325.214ZM1746.39 303.327C1748.39 281.923 1756.69 264.569 1771.39 251.263C1786.09 237.958 1804.2 231.305 1825.8 231.305C1847.8 231.305 1866.01 237.958 1880.71 251.263C1895.41 264.569 1903.71 281.923 1905.71 303.327H1746.39ZM2004.53 418.834C1987.82 413.723 1974.82 407.36 1965.42 399.647L1979.12 376.603C1988.52 383.738 2000.32 389.523 2014.53 394.055C2028.73 398.586 2043.53 400.804 2058.93 400.804C2079.44 400.804 2094.64 397.719 2104.44 391.548C2114.24 385.377 2119.14 376.7 2119.14 365.419C2119.14 357.417 2116.44 351.246 2111.04 346.715C2105.64 342.183 2098.84 338.712 2090.54 336.398C2082.24 334.084 2071.34 331.77 2057.63 329.649C2039.43 326.371 2024.73 322.996 2013.63 319.525C2002.53 316.054 1993.02 310.269 1985.22 302.074C1977.42 293.879 1973.52 282.502 1973.52 267.943C1973.52 249.817 1981.32 234.969 1997.03 223.495C2012.73 211.926 2034.43 206.237 2062.33 206.237C2076.84 206.237 2091.34 208.069 2105.84 211.829C2120.34 215.493 2132.34 220.41 2141.74 226.484L2128.54 249.913C2110.04 237.572 2087.94 231.402 2062.33 231.402C2042.93 231.402 2028.43 234.679 2018.53 241.236C2008.73 247.792 2003.83 256.469 2003.83 267.172C2003.83 275.367 2006.63 282.02 2012.13 286.937C2017.63 291.854 2024.53 295.518 2032.83 297.832C2041.13 300.146 2052.43 302.556 2067.04 305.063C2084.94 308.341 2099.34 311.619 2110.14 314.897C2120.94 318.176 2130.24 323.864 2137.94 331.77C2145.65 339.773 2149.45 350.668 2149.45 364.744C2149.45 383.642 2141.24 398.683 2124.94 409.867C2108.54 420.955 2085.84 426.547 2056.83 426.547C2038.63 426.45 2021.23 423.944 2004.53 418.834ZM2302.67 422.497C2311.07 419.894 2318.07 416.134 2323.77 411.217L2312.97 390.295C2308.67 393.862 2303.57 396.561 2297.77 398.49C2291.97 400.418 2285.97 401.382 2279.66 401.382C2267.16 401.382 2257.56 398.008 2250.86 391.259C2244.16 384.606 2240.86 374.772 2240.86 361.852V232.558H2309.17V207.876H2240.86V160.536H2210.56V207.876H2170.45V232.558H2210.56V363.491C2210.56 383.449 2216.26 398.972 2227.66 409.963C2239.06 420.955 2255.26 426.45 2276.36 426.45C2285.47 426.45 2294.27 425.1 2302.67 422.497Z" fill="black"/>
</svg>
