<?xml version="1.0" encoding="utf-8"?><svg viewBox="0 0 31 30" xmlns="http://www.w3.org/2000/svg" xmlns:xlink="http://www.w3.org/1999/xlink"><style>:root>svg{display:none}:root>svg:target{display:block}</style><svg viewBox="0 0 24 24" id="arrow-right" xmlns="http://www.w3.org/2000/svg"><path d="M5 12h14M12 5l7 7-7 7"/></svg><svg fill="none" viewBox="0 0 30 30" id="build" xmlns="http://www.w3.org/2000/svg"><path d="M29.337 8.816h-7.856V1.683a.663.663 0 00-.663-.663H6.103a.663.663 0 00-.663.663v12.034c-1.699.307-3 1.775-3.048 3.55A3.386 3.386 0 000 20.502a3.387 3.387 0 003.383 3.384h2.058v4.431c0 .366.296.663.662.663H29.337a.663.663 0 00.663-.663V9.48a.663.663 0 00-.663-.663zM10.5 27.654H6.766v-3.768h2.058c.61 0 1.182-.163 1.676-.446v4.214zm.192-6.29l-.029.06c-.008.015-.015.031-.024.046l-.02.038a2.059 2.059 0 01-1.795 1.052H6.766v-2.406a.663.663 0 10-1.325 0v2.406H3.383a2.057 2.057 0 01-.25-4.1.663.663 0 00.584-.658v-.433a2.39 2.39 0 012.387-2.387 2.391 2.391 0 012.373 2.131l.003.025.007.088.001.03c.002.037.003.075.003.113v.433a.665.665 0 00.583.658l.006.001a2.018 2.018 0 01.155.026c.007 0 .014.002.021.004a2.059 2.059 0 011.436 2.873zm.67-3.357h-.253a3.37 3.37 0 00-1.293-.74 3.79 3.79 0 00-.008-.16l-.002-.017-.002-.032a3.768 3.768 0 00-.011-.112l-.003-.022-.002-.014-.002-.022a3.744 3.744 0 00-.016-.108v-.007a3.666 3.666 0 00-.157-.622h1.749v1.856zm3.734 9.647h-3.27V22.28H15.095v5.375zm5.06-18.175v18.175h-3.734V22.28h.537a.663.663 0 000-1.326h-4.782a3.37 3.37 0 00-.178-1.62h.026a.663.663 0 00.662-.663v-3.182a.663.663 0 00-.662-.663H8.806a3.622 3.622 0 00-.106-.107l-.04-.04a3.772 3.772 0 00-.084-.077l-.055-.047-.071-.06-.06-.048a3.69 3.69 0 00-.071-.054l-.064-.047a3.736 3.736 0 00-.138-.094l-.075-.047-.067-.04c-.026-.016-.053-.03-.08-.045l-.066-.037-.087-.044-.063-.03a3.56 3.56 0 00-.149-.067l-.055-.022a3.863 3.863 0 00-.102-.04l-.07-.023-.09-.03-.075-.022a3.908 3.908 0 00-.334-.081l-.038-.008V2.345h13.39V9.48zm8.518 18.175h-7.193V10.142h7.193v17.512z" fill="#fff"/><path d="M26.611 12.13h-3.166a.663.663 0 00-.663.662v11.405c0 .366.296.663.663.663h3.166a.663.663 0 00.663-.663V12.792a.663.663 0 00-.663-.663zm-.663 11.404h-1.84V21.06h1.84v2.473zm0-3.799h-1.84v-2.477h1.84v2.477zm0-3.803h-1.84v-2.477h1.84v2.477zM19.615 21.148a.63.63 0 00-.215-.144.657.657 0 00-.723.143.64.64 0 00-.143.215.704.704 0 00-.05.254.653.653 0 00.111.368.64.64 0 00.298.244.665.665 0 00.722-.143.665.665 0 000-.938zM12.025 3.717H8.533a.663.663 0 00-.662.663v3.182c0 .366.296.663.662.663h3.492a.663.663 0 00.662-.663V4.38a.663.663 0 00-.662-.663zM11.362 6.9H9.196V5.043h2.166v1.856zM18.238 3.717h-3.491a.663.663 0 00-.663.663v3.182c0 .366.297.663.663.663h3.491a.663.663 0 00.663-.663V4.38a.663.663 0 00-.663-.663zM17.575 6.9H15.41V5.043h2.165v1.856zM12.025 9.271H8.533a.663.663 0 00-.662.663v3.182c0 .366.296.663.662.663h3.492a.663.663 0 00.662-.663V9.934a.663.663 0 00-.662-.663zm-.663 3.182H9.196v-1.856h2.166v1.856zM18.238 9.271h-3.491a.663.663 0 00-.663.663v3.182c0 .366.297.663.663.663h3.491a.663.663 0 00.663-.663V9.934a.663.663 0 00-.663-.663zm-.663 3.182H15.41v-1.856h2.165v1.856zM18.238 14.825h-3.491a.663.663 0 00-.663.663v3.182c0 .366.297.663.663.663h3.491a.663.663 0 00.663-.663v-3.182a.663.663 0 00-.663-.663zm-.663 3.182H15.41v-1.856h2.165v1.856zM6.754 17.837a.67.67 0 00-.396-.482.665.665 0 00-.805.243.658.658 0 00-.099.498.701.701 0 00.099.238.641.641 0 00.183.184.679.679 0 00.368.111.654.654 0 00.551-.295.674.674 0 00.112-.368.653.653 0 00-.013-.129z" fill="#fff"/></svg><svg fill="none" viewBox="0 0 31 30" id="house" xmlns="http://www.w3.org/2000/svg"><g clip-path="url(#cclip0)" fill="#fff"><path d="M20.538 10.732h-3.44a.635.635 0 00-.636.636v3.44c0 .35.285.635.636.635h3.44c.35 0 .635-.284.635-.635v-3.44a.635.635 0 00-.635-.636zm-.636 3.44h-2.169v-2.169h2.17v2.17zM14.821 16.406h-3.44a.635.635 0 00-.635.635v3.44c0 .351.284.636.635.636h3.44c.351 0 .636-.285.636-.636v-3.44a.635.635 0 00-.636-.635zm-.635 3.44h-2.17v-2.17h2.17v2.17zM20.538 16.406h-3.44a.635.635 0 00-.636.635v3.44c0 .351.285.636.636.636h3.44c.35 0 .635-.285.635-.636v-3.44a.635.635 0 00-.635-.635zm-.636 3.44h-2.169v-2.17h2.17v2.17z"/><path d="M30.717 17.191l-7.37-5.153v-.218a.636.636 0 00.827-.193l1.262-1.8a.635.635 0 00-.156-.886l-8.928-6.243a.635.635 0 00-.728 0L6.696 8.94a.636.636 0 00-.156.885l1.263 1.801a.636.636 0 00.826.192v.22l-7.37 5.152a.636.636 0 00-.202.808l1.08 2.138a.635.635 0 00.737.325v6.32c0 .35.284.635.635.635h24.958c.351 0 .636-.285.636-.636v-6.319a.636.636 0 00.736-.325l1.08-2.138a.635.635 0 00-.202-.808zM8.629 26.146h-1.06v-4.479a.635.635 0 00-1.27 0v4.479H4.145v-6.53l1.69-1.187L8.63 16.47v9.676zm0-11.228l-5.484 3.847-.205.143-.5-.991 6.189-4.328v1.329zm8.817 11.228H14.53V23.23h2.916v2.916zm4.631-13.777v13.777h-3.36v-3.552a.635.635 0 00-.635-.635h-4.187a.635.635 0 00-.636.636v3.551H9.9V10.933l6.09-4.272 6.088 4.272v1.436zm1-2.287l-6.724-4.717a.63.63 0 00-.365-.115.635.635 0 00-.365.115L8.9 10.083l-.42.294-.533-.76 8.042-5.623 8.043 5.623-.533.76-.42-.294zm4.755 16.064h-2.154v-4.479a.635.635 0 00-1.27 0v4.479h-1.06V16.47l3.962 2.78.522.366v6.53zm1.204-7.238l-.204-.143-5.484-3.848V13.59l6.19 4.328-.502.991z"/><path d="M25.665 19.447a.593.593 0 00-.094-.23.629.629 0 00-.652-.27.659.659 0 00-.326.174.635.635 0 00-.078.803.67.67 0 00.175.175.64.64 0 00.595.058.628.628 0 00.38-.462.627.627 0 000-.248zM7.556 19.447a.596.596 0 00-.094-.23.635.635 0 10.094.23z"/></g><defs><clipPath id="cclip0"><path fill="#fff" transform="translate(.988)" d="M0 0h30v30H0z"/></clipPath></defs></svg><svg fill="none" viewBox="0 0 24 24" id="map-pin" xmlns="http://www.w3.org/2000/svg"><path d="M21 10c0 7-9 13-9 13s-9-6-9-13a9 9 0 1118 0z" stroke="#F9AF31" stroke-width="2" stroke-linecap="round" stroke-linejoin="round"/><path d="M12 13a3 3 0 100-6 3 3 0 000 6z" stroke="#F9AF31" stroke-width="2" stroke-linecap="round" stroke-linejoin="round"/></svg><svg fill="none" viewBox="0 0 24 24" id="phone" xmlns="http://www.w3.org/2000/svg"><path d="M22 16.92v3a1.998 1.998 0 01-2.18 2 19.791 19.791 0 01-8.63-3.07 19.5 19.5 0 01-6-6 19.79 19.79 0 01-3.07-8.67A2 2 0 014.11 2h3a2 2 0 012 1.72c.127.96.361 1.903.7 2.81a2 2 0 01-.45 2.11L8.09 9.91a16 16 0 006 6l1.27-1.27a2 2 0 012.11-.45c.907.339 1.85.574 2.81.7A2 2 0 0122 16.92z" stroke="#F9AF31" stroke-width="2" stroke-linecap="round" stroke-linejoin="round"/></svg><svg fill="none" viewBox="0 0 30 30" id="plug" xmlns="http://www.w3.org/2000/svg"><path d="M28.026 28.52h-3.285v-2.186a.648.648 0 00-.65-.646h-1.977v-2.269a.648.648 0 00-.65-.646h-1.782V11.296h5.225c.358 0 .65-.29.65-.646V6.067a.648.648 0 00-.65-.646h-2.258l-4.237-3.76V.646a.648.648 0 00-.65-.646h-2.831c-.36 0-.65.29-.65.646v1.016L10.044 5.42H5.093c-.359 0-.65.289-.65.646V18.197c0 .356.29.646.65.646h.836v.715a1.842 1.842 0 00-1.285 1.75c0 1.013.83 1.838 1.85 1.838a1.86 1.86 0 001.495-.757.643.643 0 00-.143-.902.652.652 0 00-.907.142.549.549 0 01-.995-.32c0-.302.246-.547.55-.547h.085c.359 0 .65-.29.65-.646v-1.273h.844c.359 0 .65-.29.65-.646v-6.901h4.287v11.477H11.23c-.36 0-.65.29-.65.646v2.269H8.6c-.358 0-.65.289-.65.646v2.187H4.119c-.36 0-.65.29-.65.646 0 .356.29.646.65.646H28.026c.36 0 .65-.29.65-.646a.648.648 0 00-.65-.646zM18.412 3.394l2.285 2.028h-2.285V3.393zM16.346 1.56l.766.68v3.18h-1.531V2.24l.765-.68zm-2.065 1.833v2.028h-2.286l2.286-2.028zM7.423 17.551h-.425a.649.649 0 00-.838 0h-.417v-6.255h1.68v6.255zm.65-7.547h-2.33v-1h14.236c.358 0 .65-.29.65-.646a.648.648 0 00-.65-.646H5.743v-1h18.514v3.292H8.073zm10.31 11.336v1.433h-3.06l3.06-1.433zm-4.073.48v-3.736l3.33 2.176-3.33 1.56zm.67-4.845l3.402-1.888V19.2l-3.402-2.225zm-.67-1.107v-4.025l3.387 2.145-3.387 1.88zm1.554-4.572h2.518v1.594l-2.518-1.594zm-3.985 12.769H20.814v1.623h-8.935v-1.623zm11.562 4.456H9.251v-1.542h14.19v1.542zM2.433 28.71a.618.618 0 00-.211-.14.657.657 0 00-.609.06.646.646 0 10.721 1.074.67.67 0 00.18-.179.654.654 0 00.11-.358c0-.17-.07-.337-.19-.457z" fill="#F6F6F6"/><path d="M22.76 8.232a.648.648 0 00-.998-.41.649.649 0 00-.24.784.69.69 0 00.142.21.687.687 0 00.21.139.659.659 0 00.25.049.655.655 0 00.6-.399.648.648 0 00.037-.373z" fill="#F6F6F6"/></svg></svg>