<?xml version="1.0" encoding="utf-8"?><svg viewBox="0 0 1440 850" xmlns="http://www.w3.org/2000/svg" xmlns:xlink="http://www.w3.org/1999/xlink"><style>:root>svg{display:none}:root>svg:target{display:block}</style><svg viewBox="0 0 28 12" id="arrow" xmlns="http://www.w3.org/2000/svg"><path fill-rule="evenodd" clip-rule="evenodd" d="M19.21.386a1 1 0 011.404-.175l6.429 5a1 1 0 010 1.578l-6.429 5a1 1 0 01-1.228-1.578L24.8 6l-5.414-4.21a1 1 0 01-.175-1.404z"/><path fill-rule="evenodd" clip-rule="evenodd" d="M26 6a1 1 0 01-1 1H1a1 1 0 010-2h24a1 1 0 011 1z"/></svg><svg fill="none" viewBox="0 0 10 7" id="arrow-footer" xmlns="http://www.w3.org/2000/svg"><path d="M9 1.028l-4 4-4-4" stroke="#fff" stroke-width="2" stroke-linecap="round" stroke-linejoin="round"/></svg><svg fill="none" viewBox="0 0 28 16" id="arrow-golden" xmlns="http://www.w3.org/2000/svg"><path d="M20 3l6.429 5L20 13" stroke="#C09D79" stroke-width="2" stroke-linecap="round" stroke-linejoin="round"/><path stroke="#C09D79" stroke-width="2" stroke-linecap="round" d="M25 8H1"/></svg><svg fill="none" viewBox="0 0 24 9" id="arrow-white" xmlns="http://www.w3.org/2000/svg"><path d="M18 1l4.5 3.5L18 8" stroke="#fff" stroke-width="2" stroke-linecap="round" stroke-linejoin="round"/><path d="M20.5 4.5h-19" stroke="#fff" stroke-width="2" stroke-linecap="round"/></svg><svg fill="none" viewBox="0 0 1440 850" id="backdrop" xmlns="http://www.w3.org/2000/svg"><g filter="url(#efilter0_b)"><path fill="#000" fill-opacity=".7" d="M0 0h1440v850H0z"/></g><defs><filter id="efilter0_b" x="-25" y="-25" width="1490" height="900" filterUnits="userSpaceOnUse" color-interpolation-filters="sRGB"><feFlood flood-opacity="0" result="BackgroundImageFix"/><feGaussianBlur in="BackgroundImage" stdDeviation="12.5"/><feComposite in2="SourceAlpha" operator="in" result="effect1_backgroundBlur"/><feBlend in="SourceGraphic" in2="effect1_backgroundBlur" result="shape"/></filter></defs></svg><svg fill="none" viewBox="0 0 24 24" id="camera" xmlns="http://www.w3.org/2000/svg"><path d="M23 19a2 2 0 01-2 2H3a2 2 0 01-2-2V8a2 2 0 012-2h4l2-3h6l2 3h4a2 2 0 012 2v11z"/><path d="M12 17a4 4 0 100-8 4 4 0 000 8z"/></svg><svg fill="none" viewBox="0 0 17 13" id="check" xmlns="http://www.w3.org/2000/svg"><path d="M16 1L6.921 12 1 7.286" stroke="#BF9366" stroke-width="2" stroke-linecap="round" stroke-linejoin="round"/></svg><svg viewBox="0 0 14 14" id="close" xmlns="http://www.w3.org/2000/svg"><path fill-rule="evenodd" clip-rule="evenodd" d="M13.3.71a.996.996 0 00-1.41 0L7 5.59 2.11.7A.996.996 0 10.7 2.11L5.59 7 .7 11.89a.996.996 0 101.41 1.41L7 8.41l4.89 4.89a.996.996 0 101.41-1.41L8.41 7l4.89-4.89c.38-.38.38-1.02 0-1.4z"/></svg><svg fill="none" viewBox="0 0 25 24" id="edit" xmlns="http://www.w3.org/2000/svg"><path d="M11.5 4h-7a2 2 0 00-2 2v14a2 2 0 002 2h14a2 2 0 002-2v-7"/><path d="M19 2.5a2.121 2.121 0 113 3L12.5 15l-4 1 1-4L19 2.5z"/></svg><svg viewBox="0 0 15 16" id="facebook" xmlns="http://www.w3.org/2000/svg"><path d="M12.897.731H2.254A1.961 1.961 0 00.29 2.691v10.62c0 1.081.879 1.958 1.963 1.958h5.25l.008-5.195H6.16a.319.319 0 01-.319-.317l-.006-1.675c0-.176.142-.32.319-.32h1.35V6.146c0-1.878 1.15-2.9 2.828-2.9h1.378c.176 0 .32.142.32.318v1.412a.319.319 0 01-.32.318h-.845c-.913 0-1.09.434-1.09 1.069v1.4h2.006c.191 0 .34.167.317.357l-.199 1.674a.319.319 0 01-.317.281H9.783l-.01 5.195h3.124a1.961 1.961 0 001.964-1.959V2.69A1.961 1.961 0 0012.897.731z"/></svg><svg viewBox="0 0 30 28" id="favorite" xmlns="http://www.w3.org/2000/svg"><path d="M26.787 4.146a7.333 7.333 0 00-10.373 0L15 5.56l-1.413-1.413A7.335 7.335 0 103.214 14.52l1.413 1.414L15 26.306l10.374-10.373 1.413-1.413a7.332 7.332 0 000-10.374z"/></svg><svg viewBox="0 0 502.664 502.664" id="icon" xmlns="http://www.w3.org/2000/svg"><g fill="#010002"><path d="M153.821 358.226L0 274.337v-46.463l153.821-83.414v54.574L46.636 250.523l107.185 53.431v54.272zM180.094 387.584L282.103 115.08h32.227L212.084 387.584h-31.99zM348.843 358.226v-54.272l107.164-52.999-107.164-52.59v-53.927l153.821 83.522v46.183l-153.821 84.083z"/></g></svg><svg viewBox="0 0 17 16" id="instagram" xmlns="http://www.w3.org/2000/svg"><g clip-path="url(#mclip0)"><path d="M1.356 3.609v8.767a3.117 3.117 0 003.117 3.116h8.767a3.117 3.117 0 003.116-3.117V3.61A3.117 3.117 0 0013.24.492H4.473A3.117 3.117 0 001.356 3.61zm9.09 8.633a4.55 4.55 0 01-5.84-5.839 4.303 4.303 0 012.661-2.66 4.55 4.55 0 015.84 5.838 4.303 4.303 0 01-2.662 2.661zm3.615-8.786a.586.586 0 01-1.058.237.587.587 0 01.33-.894.587.587 0 01.728.658z"/><path d="M8.857 4.348a3.648 3.648 0 00-3.644 3.644 3.648 3.648 0 003.644 3.644A3.648 3.648 0 0012.5 7.992a3.648 3.648 0 00-3.644-3.644z"/></g><defs><clipPath id="mclip0"><path transform="translate(.864)" d="M0 0h16v16H0z"/></clipPath></defs></svg><svg fill="none" viewBox="0 0 44 51" id="like" xmlns="http://www.w3.org/2000/svg"><path d="M37.73 24h3.065a1 1 0 01.999 1.053l-1.276 24a1 1 0 01-.998.947h-3.066a1 1 0 01-.998-1.053l1.276-24A1 1 0 0137.73 24z" fill="#F4EDE5"/><path d="M9.6 16.64V49a1 1 0 001 1h28.224a1 1 0 00.997-.92l1.942-24.098a1 1 0 00-.997-1.08h-20.35a1 1 0 01-1-1v-6.213c0-.099-.016-.201-.047-.295-2.254-7.053-8.734-4.543-9.748.048a.923.923 0 00-.02.198zM4.07 24H8.6a1 1 0 011 1v24a1 1 0 01-1 1H2.086a1 1 0 01-.996-1.082l1.984-24A1 1 0 014.071 24z" stroke="#000" stroke-width="2"/><path d="M34.553 2.807c.306-.907 1.588-.907 1.895 0l1.331 3.945a1 1 0 00.525.586l3.757 1.756a1 1 0 010 1.812l-3.757 1.756a1 1 0 00-.525.586l-1.332 3.945c-.306.907-1.588.907-1.895 0l-1.331-3.945a1 1 0 00-.525-.586l-3.757-1.756a1 1 0 010-1.812l3.757-1.756a1 1 0 00.525-.586l1.332-3.945z" fill="#C09D79"/></svg><svg viewBox="0 0 16 16" id="minus" xmlns="http://www.w3.org/2000/svg"><path d="M15.333 7.333H.667a.667.667 0 100 1.334h14.666a.667.667 0 100-1.334z"/></svg><svg viewBox="0 0 16 16" id="plus" xmlns="http://www.w3.org/2000/svg"><path d="M15.2 7.2H8.8V.8a.8.8 0 00-1.6 0v6.4H.8a.8.8 0 000 1.6h6.4v6.4a.8.8 0 001.6 0V8.8h6.4a.8.8 0 000-1.6z"/></svg><svg fill="none" viewBox="0 0 24 24" id="search" xmlns="http://www.w3.org/2000/svg"><path d="M11 19a8 8 0 100-16 8 8 0 000 16zM21 21l-4.35-4.35" stroke="#000" stroke-linecap="round" stroke-linejoin="round"/></svg><svg fill="none" viewBox="0 0 16 16" id="search-acc" xmlns="http://www.w3.org/2000/svg"><circle cx="5.778" cy="5.778" r="5.178" stroke="#000" stroke-width="1.2"/><path stroke="#000" stroke-width="1.2" stroke-linecap="round" d="M9.737 9.777l5.374 5.374"/></svg><svg fill="none" viewBox="0 0 45 45" id="shirt" xmlns="http://www.w3.org/2000/svg"><rect x="39.065" y="8.754" width="4.23" height="35.246" rx="1" fill="#F4EDE5"/><rect x="36.894" y="5.863" width="3.588" height="14.259" rx="1" transform="rotate(47.049 36.894 5.863)" fill="#F4EDE5"/><rect x="18.496" y="15.731" width="3.49" height="14.259" rx="1" transform="rotate(133.399 18.496 15.731)" fill="#F4EDE5"/><path d="M6.545 8.754H2a1 1 0 00-1 1V43a1 1 0 001 1h40.295a1 1 0 001-1V9.754a1 1 0 00-1-1h-3.887" stroke="#000" stroke-width="2"/><path d="M19.072 15.408l2.973-4.07a1 1 0 011.615 0l2.973 4.07a1 1 0 01.193.59v16.206a1 1 0 01-.189.584l-2.973 4.13a1 1 0 01-1.623 0l-2.973-4.13a1 1 0 01-.189-.584V15.997a1 1 0 01.193-.59z" fill="#C09D79"/><path d="M22.823 10.834l-9.32-8.545h17.862l-8.542 8.545z" fill="#fff" stroke="#000" stroke-width="2"/><path d="M23.37 11.92l3.906 5.229a1 1 0 001.473.143l9.274-8.393a1 1 0 00.088-1.392l-4.623-5.395a1 1 0 00-1.466-.056l-8.558 8.558a1 1 0 00-.094 1.305zM22.132 10.572l-9.733-8.824a1 1 0 00-1.48.153L6.455 8.039a1 1 0 00.126 1.319l9.165 8.553a1 1 0 001.441-.08l5.032-5.867a1 1 0 00-.087-1.392z" stroke="#000" stroke-width="2"/></svg><svg viewBox="0 0 24 24" id="shopping-cart" xmlns="http://www.w3.org/2000/svg"><path d="M6 2L3 6v14a2 2 0 002 2h14a2 2 0 002-2V6l-3-4H6zM3 6h18M16 10a4 4 0 11-8 0"/></svg><svg fill="none" viewBox="0 0 52 52" id="track" xmlns="http://www.w3.org/2000/svg"><rect x="8" y="11.3" width="18.2" height="12.6" rx="1" fill="#C09D79"/><path fill="#BF9366" fill-opacity=".17" d="M1 35.1h49v4.2H1zM42.369 12a1 1 0 01.903.57l6.047 12.7a1 1 0 01-.903 1.43h-1.298a1 1 0 01-.894-.553l-5.048-10.094a1 1 0 00-.894-.553H33.5a1 1 0 01-1-1V13a1 1 0 011-1h8.869z"/><path d="M32.5 12h9.792a1 1 0 01.943.668l5.476 15.543" stroke="#000" stroke-width="2"/><path d="M32.5 6v20.4a1 1 0 001 1H49a1 1 0 011 1v9.9a1 1 0 01-1 1H2a1 1 0 01-1-1V6a1 1 0 011-1h29.5a1 1 0 011 1z" stroke="#000" stroke-width="2"/><circle cx="12.2" cy="42.1" r="4.6" fill="#fff" stroke="#000" stroke-width="2"/><circle cx="38.8" cy="42.1" r="4.6" fill="#fff" stroke="#000" stroke-width="2"/></svg><svg viewBox="0 0 17 14" id="twitter" xmlns="http://www.w3.org/2000/svg"><path d="M6.832 13.534a13.76 13.76 0 01-2.121-.168c-1.263-.197-2.54-.856-2.902-1.053l-.948-.518 1.026-.336c1.123-.369 1.805-.597 2.65-.955A3.52 3.52 0 012.725 8.41l-.239-.723.196.03a3.555 3.555 0 01-.446-.55c-.404-.612-.618-1.36-.573-2.002l.045-.632.38.147a3.53 3.53 0 01-.344-.96 3.646 3.646 0 01.39-2.46l.33-.604.441.53C4.301 2.856 6.07 3.85 8.168 4.14a3.134 3.134 0 01.191-1.669 3.126 3.126 0 011.273-1.456 3.83 3.83 0 012.22-.544c.828.05 1.58.36 2.178.897.292-.076.507-.157.797-.266.175-.066.373-.14.622-.226l.914-.314-.596 1.7c.039-.004.08-.007.122-.009l.976-.044-.577.787c-.033.045-.041.058-.053.076-.047.07-.104.157-.896 1.212a1.486 1.486 0 00-.28.97c.07 1.37-.098 2.611-.5 3.687a6.524 6.524 0 01-1.756 2.595c-.97.871-2.207 1.468-3.676 1.773-.72.15-1.494.224-2.295.224z"/></svg><svg viewBox="0 0 24 24" id="user" xmlns="http://www.w3.org/2000/svg"><path d="M20 21v-2a4 4 0 00-4-4H8a4 4 0 00-4 4v2M12 11a4 4 0 100-8 4 4 0 000 8z"/></svg><svg viewBox="0 0 17 12" id="youtube" xmlns="http://www.w3.org/2000/svg"><path fill-rule="evenodd" clip-rule="evenodd" d="M15.13.751a2.003 2.003 0 011.41 1.408c.343 1.25.33 3.854.33 3.854s0 2.591-.33 3.84a2.003 2.003 0 01-1.41 1.408c-1.253.329-6.263.329-6.263.329s-4.996 0-6.262-.342a2.003 2.003 0 01-1.41-1.408C.865 8.604.865 6 .865 6s0-2.592.33-3.841a2.044 2.044 0 011.41-1.42c1.253-.33 6.262-.33 6.262-.33s5.01 0 6.262.342zM11.437 6L7.272 8.394V3.606L11.438 6z"/></svg></svg>