<?xml version="1.0" encoding="utf-8"?><svg viewBox="0 0 984 294" xmlns="http://www.w3.org/2000/svg" xmlns:xlink="http://www.w3.org/1999/xlink"><style>:root>svg{display:none}:root>svg:target{display:block}</style><svg viewBox="0 0 8 14" id="arrow" xmlns="http://www.w3.org/2000/svg"><path d="M7 13L1 7l6-6"/></svg><svg viewBox="0 0 24 24" id="arrow-right" xmlns="http://www.w3.org/2000/svg"><path d="M5 12h14M12 5l7 7-7 7"/></svg><svg fill="none" viewBox="0 0 24 24" id="arrow-right-black" xmlns="http://www.w3.org/2000/svg"><path d="M5 12h14M12 5l7 7-7 7" stroke="#100D0D" stroke-width="2" stroke-linecap="round" stroke-linejoin="round"/></svg><svg fill="none" viewBox="0 0 8 14" id="arrow-slider" xmlns="http://www.w3.org/2000/svg"><path d="M7 13L1 7l6-6" stroke="#F9AF31" stroke-width="2" stroke-linecap="round" stroke-linejoin="round"/></svg><svg fill="none" viewBox="0 0 30 30" id="build" xmlns="http://www.w3.org/2000/svg"><path d="M29.337 8.816h-7.856V1.683a.663.663 0 00-.663-.663H6.103a.663.663 0 00-.663.663v12.034c-1.699.307-3 1.775-3.048 3.55A3.386 3.386 0 000 20.502a3.387 3.387 0 003.383 3.384h2.058v4.431c0 .366.296.663.662.663H29.337a.663.663 0 00.663-.663V9.48a.663.663 0 00-.663-.663zM10.5 27.654H6.766v-3.768h2.058c.61 0 1.182-.163 1.676-.446v4.214zm.192-6.29l-.029.06c-.008.015-.015.031-.024.046l-.02.038a2.059 2.059 0 01-1.795 1.052H6.766v-2.406a.663.663 0 10-1.325 0v2.406H3.383a2.057 2.057 0 01-.25-4.1.663.663 0 00.584-.658v-.433a2.39 2.39 0 012.387-2.387 2.391 2.391 0 012.373 2.131l.003.025.007.088.001.03c.002.037.003.075.003.113v.433a.665.665 0 00.583.658l.006.001a2.018 2.018 0 01.155.026c.007 0 .014.002.021.004a2.059 2.059 0 011.436 2.873zm.67-3.357h-.253a3.37 3.37 0 00-1.293-.74 3.79 3.79 0 00-.008-.16l-.002-.017-.002-.032a3.768 3.768 0 00-.011-.112l-.003-.022-.002-.014-.002-.022a3.744 3.744 0 00-.016-.108v-.007a3.666 3.666 0 00-.157-.622h1.749v1.856zm3.734 9.647h-3.27V22.28H15.095v5.375zm5.06-18.175v18.175h-3.734V22.28h.537a.663.663 0 000-1.326h-4.782a3.37 3.37 0 00-.178-1.62h.026a.663.663 0 00.662-.663v-3.182a.663.663 0 00-.662-.663H8.806a3.622 3.622 0 00-.106-.107l-.04-.04a3.772 3.772 0 00-.084-.077l-.055-.047-.071-.06-.06-.048a3.69 3.69 0 00-.071-.054l-.064-.047a3.736 3.736 0 00-.138-.094l-.075-.047-.067-.04c-.026-.016-.053-.03-.08-.045l-.066-.037-.087-.044-.063-.03a3.56 3.56 0 00-.149-.067l-.055-.022a3.863 3.863 0 00-.102-.04l-.07-.023-.09-.03-.075-.022a3.908 3.908 0 00-.334-.081l-.038-.008V2.345h13.39V9.48zm8.518 18.175h-7.193V10.142h7.193v17.512z" fill="#fff"/><path d="M26.611 12.13h-3.166a.663.663 0 00-.663.662v11.405c0 .366.296.663.663.663h3.166a.663.663 0 00.663-.663V12.792a.663.663 0 00-.663-.663zm-.663 11.404h-1.84V21.06h1.84v2.473zm0-3.799h-1.84v-2.477h1.84v2.477zm0-3.803h-1.84v-2.477h1.84v2.477zM19.615 21.148a.63.63 0 00-.215-.144.657.657 0 00-.723.143.64.64 0 00-.143.215.704.704 0 00-.05.254.653.653 0 00.111.368.64.64 0 00.298.244.665.665 0 00.722-.143.665.665 0 000-.938zM12.025 3.717H8.533a.663.663 0 00-.662.663v3.182c0 .366.296.663.662.663h3.492a.663.663 0 00.662-.663V4.38a.663.663 0 00-.662-.663zM11.362 6.9H9.196V5.043h2.166v1.856zM18.238 3.717h-3.491a.663.663 0 00-.663.663v3.182c0 .366.297.663.663.663h3.491a.663.663 0 00.663-.663V4.38a.663.663 0 00-.663-.663zM17.575 6.9H15.41V5.043h2.165v1.856zM12.025 9.271H8.533a.663.663 0 00-.662.663v3.182c0 .366.296.663.662.663h3.492a.663.663 0 00.662-.663V9.934a.663.663 0 00-.662-.663zm-.663 3.182H9.196v-1.856h2.166v1.856zM18.238 9.271h-3.491a.663.663 0 00-.663.663v3.182c0 .366.297.663.663.663h3.491a.663.663 0 00.663-.663V9.934a.663.663 0 00-.663-.663zm-.663 3.182H15.41v-1.856h2.165v1.856zM18.238 14.825h-3.491a.663.663 0 00-.663.663v3.182c0 .366.297.663.663.663h3.491a.663.663 0 00.663-.663v-3.182a.663.663 0 00-.663-.663zm-.663 3.182H15.41v-1.856h2.165v1.856zM6.754 17.837a.67.67 0 00-.396-.482.665.665 0 00-.805.243.658.658 0 00-.099.498.701.701 0 00.099.238.641.641 0 00.183.184.679.679 0 00.368.111.654.654 0 00.551-.295.674.674 0 00.112-.368.653.653 0 00-.013-.129z" fill="#fff"/></svg><svg fill="none" viewBox="0 0 23 30" id="clipboard" xmlns="http://www.w3.org/2000/svg"><path d="M13.505.907V.905H7.682c-.844 0-1.527.683-1.527 1.527v.382h-.382 0a1.527 1.527 0 00-1.41.954H2.432c-.844 0-1.527.684-1.527 1.527v21c0 .844.683 1.528 1.527 1.528h.382v.382c0 .843.683 1.527 1.527 1.527h16.227c.844 0 1.527-.684 1.527-1.527v-21c0-.844-.683-1.528-1.527-1.528h-.382v-.382c0-.843-.683-1.527-1.527-1.527h-1.93a1.527 1.527 0 00-1.41-.954h0-.383v-.382c0-.812-.632-1.475-1.431-1.525zm7.063 5.916c.211 0 .382.17.382.382v21c0 .21-.17.381-.382.381H4.341a.382.382 0 01-.382-.381v-.382h14.7c.844 0 1.527-.684 1.527-1.527V6.823h.382zm-1.527-1.528v21c0 .211-.171.382-.382.382H2.432a.382.382 0 01-.382-.381v-21c0-.211.171-.382.382-.382h1.813v.859c0 .58.47 1.05 1.05 1.05h10.5c.58 0 1.05-.47 1.05-1.05v-.86h1.814c.211 0 .382.172.382.382zM15.318 3.96c.211 0 .382.171.382.382v1.336H5.391V4.341c0-.211.17-.382.382-.382h.954a.573.573 0 00.573-.573v-.954c0-.211.171-.382.382-.382h5.727c.211 0 .382.171.382.382v.954c0 .317.256.573.573.573h.954z" fill="#fff" stroke="#fff" stroke-width=".191"/><path d="M11.977 3.768h-1.909a.573.573 0 000 1.146h1.91a.573.573 0 000-1.146zM3.343 23.05H6.38c.78 0 1.397-.692 1.397-1.527V9.113c0-.834-.617-1.527-1.397-1.527H3.343c-.3 0-.53.266-.53.573v14.318s0 0 0 0c0 .308.23.573.53.573zm.53-5.727h2.846v1.718H3.872v-1.718zm0-2.864h2.846v1.718H3.872V14.46zm2.846-1.145H3.872v-1.719H6.72v1.719zm0 8.209c0 .22-.16.382-.339.382H3.872v-1.719H6.72v1.337zM3.872 8.732H6.38c.179 0 .339.162.339.382v1.336H3.872V8.732zM13.852 7.586v0h-.096c-.78 0-1.397.693-1.397 1.528v12.409c0 .835.617 1.527 1.397 1.527h3.038c.3 0 .529-.265.529-.573V8.16c0-.307-.229-.573-.53-.573h-2.941zm2.412 5.728h-2.846v-1.719h2.846v1.719zm0 2.863h-2.846V14.46h2.846v1.718zm-2.846 1.146h2.846v1.718h-2.846v-1.718zm0-8.21c0-.219.16-.381.338-.381h2.508v1.718h-2.846V9.114zm2.846 12.792h-2.508c-.178 0-.338-.163-.338-.382v-1.337h2.846v1.719zM3.371 23.814c-.31 0-.557.259-.557.572 0 .314.246.573.557.573h13.394c.311 0 .558-.26.558-.573a.565.565 0 00-.558-.572H3.371zM10.069 9.686c.295 0 .572-.194.572-.477V8.064c0-.283-.277-.478-.572-.478-.296 0-.573.195-.573.478v1.145c0 .283.277.477.573.477zM10.069 12.55c.295 0 .572-.195.572-.477v-1.146c0-.282-.277-.477-.572-.477-.296 0-.573.195-.573.477v1.146c0 .282.277.477.573.477zM10.069 16.368c.295 0 .572-.195.572-.477v-1.145c0-.283-.277-.478-.572-.478-.296 0-.573.195-.573.478v1.145c0 .282.277.477.573.477zM10.069 19.232c.295 0 .572-.195.572-.477v-1.146c0-.282-.277-.477-.572-.477-.296 0-.573.195-.573.477v1.146c0 .282.277.477.573.477zM10.069 23.05c.295 0 .572-.195.572-.477v-1.146c0-.282-.277-.477-.572-.477-.296 0-.573.195-.573.477v1.146c0 .282.277.477.573.477z" fill="#fff" stroke="#fff" stroke-width=".191"/></svg><svg fill="none" viewBox="0 0 176 80" id="cursor-slider" xmlns="http://www.w3.org/2000/svg"><path d="M15 46l-6-6 6-6" stroke="#F9AF31" stroke-width="2" stroke-linecap="round" stroke-linejoin="round"/><circle cx="88" cy="40" r="39" stroke="#F9AF31" stroke-width="2"/><path d="M161 46l6-6-6-6" stroke="#F9AF31" stroke-width="2" stroke-linecap="round" stroke-linejoin="round"/></svg><svg fill="none" viewBox="0 0 176 80" id="cursor-slider-active" xmlns="http://www.w3.org/2000/svg"><path d="M15 46l-6-6 6-6" stroke="#F9AF31" stroke-width="2" stroke-linecap="round" stroke-linejoin="round"/><circle cx="88" cy="40" r="8" fill="#F9AF31"/><circle cx="88" cy="40" r="39" stroke="#F9AF31" stroke-width="2"/><path d="M161 46l6-6-6-6" stroke="#F9AF31" stroke-width="2" stroke-linecap="round" stroke-linejoin="round"/></svg><svg fill="none" viewBox="0 0 24 25" id="double-arrow" xmlns="http://www.w3.org/2000/svg"><path d="M7 18.721l5-5 5 5M7 11.721l5-5 5 5" stroke="#000" stroke-width="2" stroke-linecap="round" stroke-linejoin="round"/></svg><svg fill="none" viewBox="0 0 24 24" id="double-arrow-red" xmlns="http://www.w3.org/2000/svg"><path d="M7 6l5 5 5-5M7 13l5 5 5-5" stroke="#D22" stroke-width="2" stroke-linecap="round" stroke-linejoin="round"/></svg><svg fill="none" viewBox="0 0 30 27" id="drawing" xmlns="http://www.w3.org/2000/svg"><path d="M20.4 3.52v-.105c0-.6.494-1.082 1.1-1.082H23c.606 0 1.1.483 1.1 1.082v3.357l1.628 1.429.005.004h0a.39.39 0 01.018.02H29c.606 0 1.1.482 1.1 1.082v15.711c0 .6-.494 1.082-1.1 1.082H2.5h0V26L20.4 3.52zm0 0l-2.67-2.346h0a1.11 1.11 0 00-1.46 0L8.271 8.201h0a.316.316 0 00-.024.024H5.1L20.4 3.52zM3.9 8.823h0V6.852c0-.757-.625-1.373-1.4-1.373-.775 0-1.4.616-1.4 1.373v14.532c.243-.152.512-.263.794-.328M3.9 8.823L1.916 21.154M3.9 8.824l.01 12.575M3.9 8.823l.11 12.642m-2.116-.409l.022.098m-.022-.098s0 0 0 0l.022.098m-.022-.098a2.661 2.661 0 012.016.343m-1.994-.245a2.56 2.56 0 011.994.364v-.12m0 0l.1.067m0 0v.123-.123zM2.5 25.018h26.4v-.1m-26.4.1l7.5-8.347c0 .814.671 1.473 1.5 1.473h11c.828 0 1.5-.66 1.5-1.473v-5.844c.033.01.066.02.1.027M2.5 25.018a1.504 1.504 0 01-1.173-.555l1.173.555zm26.4-.1h.1V9.408h-.1m0 15.51V9.408m0 15.51H2.5h0c-.427.001-.831-.19-1.096-.518h0a1.334 1.334 0 01-.304-.861v-.007M28.9 9.407v-.1h-2.944a.983.983 0 01-.2.368l-.663.761a1.002 1.002 0 01-.692.344h-.068c-.078 0-.157-.01-.233-.029v.103m4.8-1.447h-2.872a1.084 1.084 0 01-.196.334h0l-.663.76s0 0 0 0a1.102 1.102 0 01-.76.379H24.4v0h-.068 0c-.079 0-.157-.01-.233-.026m0 0v5.817c0 .87-.718 1.573-1.6 1.573h-11c-.882 0-1.6-.702-1.6-1.573v-5.816m0 0L5.1 21.584c0 .412-.238.788-.612.97m5.412-11.7a1.103 1.103 0 01-1.07-.353l-.661-.76h0a1.083 1.083 0 01-.197-.334H5.1l4.8 1.447zM1.1 23.532c.001-.107.014-.213.039-.317m-.039.317s0 0 0 0H1m.1 0v0H1m.139-.317a1.37 1.37 0 011.025-1.006h0c.412-.099.847-.01 1.184.24m-2.21.766s0 0 0 0l-.096-.023m.097.023s0 0 0 0l-.097-.023m2.306-.742c.328.246.77.287 1.14.104m-1.14-.104s0 0 0 0l.06-.08-.06.08s0 0 0 0zm1.14.104s0 0 0 0l-.045-.09.045.09s0 0 0 0zm-3.447.638c-.026.111-.04.225-.041.34m.042-.34a1.47 1.47 0 011.1-1.08L1 23.532m0 0v.006-.006zM16.6 3.568l.066.075-.066-.075-6.923 6.087-.532-.632 7.852-6.908 7.86 6.931-.529.61L17.4 3.568a.607.607 0 00-.8 0zm1.8 13.494h-2.8v-3.828c0-.214.177-.39.4-.39h2c.223 0 .4.176.4.39v3.828zM1.1 21.503a2.448 2.448 0 00-.1.07v-.123l.1.053zM21.6 3.515h1.3v2.203l-1.3-1.143v-1.06zM16 11.662c-.882 0-1.6.702-1.6 1.572v3.828h-2.9a.396.396 0 01-.4-.39V9.985L17 4.8l5.9 5.185v6.685a.396.396 0 01-.4.391h-2.9v-3.828c0-.87-.718-1.572-1.6-1.572h-2z" stroke="#fff" stroke-width=".75"/><path d="M7 18.9A1.1 1.1 0 005.9 20v3A1.1 1.1 0 007 24.1h19a1.1 1.1 0 001.1-1.1v-3a1.1 1.1 0 00-1.1-1.1H7zm.1 4v-2.8h.8v1.4a.6.6 0 101.2 0v-1.4h.8v.4a.6.6 0 001.2 0v-.4h.8v1.4a.6.6 0 101.2 0v-1.4h.8v.4a.6.6 0 001.2 0v-.4h.8v1.4a.6.6 0 001.2 0v-1.4h.8v.4a.6.6 0 001.2 0v-.4h.8v1.4a.6.6 0 101.2 0v-1.4h.8v.4a.6.6 0 001.2 0v-.4h.8v1.4a.6.6 0 101.2 0v-1.4h.8v2.8H7.1z" stroke="#fff" stroke-width=".75"/></svg><svg fill="none" viewBox="0 0 70 70" id="ellipce" xmlns="http://www.w3.org/2000/svg"><g filter="url(#lfilter0_b_461:231)"><circle cx="35" cy="35" r="35" fill="#fff" fill-opacity=".15"/><circle cx="35" cy="35" r="34.5" stroke="#fff" stroke-opacity=".5"/></g><defs><filter id="lfilter0_b_461:231" x="-4" y="-4" width="78" height="78" filterUnits="userSpaceOnUse" color-interpolation-filters="sRGB"><feFlood flood-opacity="0" result="BackgroundImageFix"/><feGaussianBlur in="BackgroundImage" stdDeviation="2"/><feComposite in2="SourceAlpha" operator="in" result="effect1_backgroundBlur_461:231"/><feBlend in="SourceGraphic" in2="effect1_backgroundBlur_461:231" result="shape"/></filter></defs></svg><svg viewBox="0 0 25 24" id="facebook" xmlns="http://www.w3.org/2000/svg"><path d="M18.5 2h-3a5 5 0 00-5 5v3h-3v4h3v8h4v-8h3l1-4h-4V7a1 1 0 011-1h3V2z"/></svg><svg fill="none" viewBox="0 0 31 30" id="house" xmlns="http://www.w3.org/2000/svg"><g clip-path="url(#nclip0)" fill="#fff"><path d="M20.538 10.732h-3.44a.635.635 0 00-.636.636v3.44c0 .35.285.635.636.635h3.44c.35 0 .635-.284.635-.635v-3.44a.635.635 0 00-.635-.636zm-.636 3.44h-2.169v-2.169h2.17v2.17zM14.821 16.406h-3.44a.635.635 0 00-.635.635v3.44c0 .351.284.636.635.636h3.44c.351 0 .636-.285.636-.636v-3.44a.635.635 0 00-.636-.635zm-.635 3.44h-2.17v-2.17h2.17v2.17zM20.538 16.406h-3.44a.635.635 0 00-.636.635v3.44c0 .351.285.636.636.636h3.44c.35 0 .635-.285.635-.636v-3.44a.635.635 0 00-.635-.635zm-.636 3.44h-2.169v-2.17h2.17v2.17z"/><path d="M30.717 17.191l-7.37-5.153v-.218a.636.636 0 00.827-.193l1.262-1.8a.635.635 0 00-.156-.886l-8.928-6.243a.635.635 0 00-.728 0L6.696 8.94a.636.636 0 00-.156.885l1.263 1.801a.636.636 0 00.826.192v.22l-7.37 5.152a.636.636 0 00-.202.808l1.08 2.138a.635.635 0 00.737.325v6.32c0 .35.284.635.635.635h24.958c.351 0 .636-.285.636-.636v-6.319a.636.636 0 00.736-.325l1.08-2.138a.635.635 0 00-.202-.808zM8.629 26.146h-1.06v-4.479a.635.635 0 00-1.27 0v4.479H4.145v-6.53l1.69-1.187L8.63 16.47v9.676zm0-11.228l-5.484 3.847-.205.143-.5-.991 6.189-4.328v1.329zm8.817 11.228H14.53V23.23h2.916v2.916zm4.631-13.777v13.777h-3.36v-3.552a.635.635 0 00-.635-.635h-4.187a.635.635 0 00-.636.636v3.551H9.9V10.933l6.09-4.272 6.088 4.272v1.436zm1-2.287l-6.724-4.717a.63.63 0 00-.365-.115.635.635 0 00-.365.115L8.9 10.083l-.42.294-.533-.76 8.042-5.623 8.043 5.623-.533.76-.42-.294zm4.755 16.064h-2.154v-4.479a.635.635 0 00-1.27 0v4.479h-1.06V16.47l3.962 2.78.522.366v6.53zm1.204-7.238l-.204-.143-5.484-3.848V13.59l6.19 4.328-.502.991z"/><path d="M25.665 19.447a.593.593 0 00-.094-.23.629.629 0 00-.652-.27.659.659 0 00-.326.174.635.635 0 00-.078.803.67.67 0 00.175.175.64.64 0 00.595.058.628.628 0 00.38-.462.627.627 0 000-.248zM7.556 19.447a.596.596 0 00-.094-.23.635.635 0 10.094.23z"/></g><defs><clipPath id="nclip0"><path fill="#fff" transform="translate(.988)" d="M0 0h30v30H0z"/></clipPath></defs></svg><svg viewBox="0 0 25 24" id="linkedin" xmlns="http://www.w3.org/2000/svg"><path d="M16.5 8a6 6 0 016 6v7h-4v-7a2 2 0 00-4 0v7h-4v-7a6 6 0 016-6zM6.5 9h-4v12h4V9zM4.5 6a2 2 0 100-4 2 2 0 000 4z"/></svg><svg fill="none" viewBox="0 0 30 30" id="location-pin" xmlns="http://www.w3.org/2000/svg"><path d="M16.099 5.903a.942.942 0 01.94-.824h.846a.94.94 0 01.946.933v2.063l.917.73s0 0 0 0a.926.926 0 01.347.63M16.1 5.903l2.632 8.848c0 .69-.568 1.249-1.27 1.249h-5.923c-.7 0-1.269-.559-1.269-1.249v-3.757m5.83-5.091l-1-.795h0a.97.97 0 00-1.198 0h0L9.251 8.805M16.1 5.903L9.252 8.805m10.843.63l-.1.01.1-.01s0 0 0 0zm0 0a.92.92 0 01-.212.687h0l-.543.644h0a.948.948 0 01-.51.31m0 0v-.083h-.1l.014.1a.92.92 0 00.087-.017zm0 0v3.675c0 .747-.614 1.349-1.368 1.349H11.538c-.754 0-1.369-.602-1.369-1.349v-3.674m0 0a.957.957 0 00.086.016l.014-.1m-.1.084a.951.951 0 01-.51-.31h0l-.542-.644h0a.92.92 0 01-.212-.687h0a.926.926 0 01.347-.631m.917 2.272v-.083h.1m0 0l-1.017-2.19m0 0h0l.062.08m-.062-.08l.484 1.898-.542-.644a.82.82 0 01.12-1.175m0 0l-.062-.078m.062.078l4.649-3.697-4.71 3.619m.736.74l.412.49 3.774-2.937s0 0 0 0h0l.062.079a.429.429 0 01.526 0L9.99 9.545zm0 0l4.516-3.584 4.506 3.58-.417.499-3.77-2.942L9.99 9.545zm3.765 5.523v-1.981a.32.32 0 01.323-.316h.846a.32.32 0 01.323.316v1.98h-1.492zm3.385-8.956h.646v1.131l-.646-.514v-.617zm-5.924 8.64v-4.03L14.5 8.159l3.285 2.563v4.03a.32.32 0 01-.323.316h-1.17v-1.981c0-.747-.614-1.349-1.369-1.349h-.846c-.755 0-1.37.602-1.37 1.349v1.98h-1.169a.32.32 0 01-.323-.316z" stroke="#fff" stroke-width=".75"/><path d="M28.77 24.511h0c.19.18.304.425.318.686a.524.524 0 01.01.056l.003.014H29.1v2.799a1.013 1.013 0 01-1.035 1.034H1.935A1.013 1.013 0 01.9 28.065V25.26l.001-.008a.543.543 0 01.012-.057c.015-.259.127-.502.314-.68l.002-.002h0l5.604-5.137h0c.191-.175.44-.273.7-.275h1.77c-1.959-2.335-3.736-5.382-3.736-8.766v0a9.437 9.437 0 0110.904-9.32 9.38 9.38 0 017.775 7.425h0c.824 4.145-1.233 7.902-3.547 10.661h1.837v.1c.238 0 .466.09.638.253l5.595 5.057zm0 0l-5.527-5.13s0 0 0 0l5.526 5.13zM15.022 2.039h0a8.243 8.243 0 018.113 6.623c.723 3.642-1.064 7.013-3.175 9.57-2.037 2.469-4.36 4.161-4.961 4.58-.531-.37-2.54-1.83-4.447-3.983C8.566 16.588 6.7 13.61 6.7 10.335v0a8.293 8.293 0 018.323-8.296zm-.608 21.745h0c.352.245.818.245 1.169 0h0a27.744 27.744 0 004.103-3.55h2.81l5.315 4.933-25.621.003 5.381-4.936h2.744a27.812 27.812 0 004.099 3.55zM2.034 27.967V26.3h25.932v1.666H2.034z" stroke="#fff" stroke-width=".75"/></svg><svg fill="none" viewBox="0 0 24 24" id="map-pin" xmlns="http://www.w3.org/2000/svg"><path d="M21 10c0 7-9 13-9 13s-9-6-9-13a9 9 0 1118 0z" stroke="#F9AF31" stroke-width="2" stroke-linecap="round" stroke-linejoin="round"/><path d="M12 13a3 3 0 100-6 3 3 0 000 6z" stroke="#F9AF31" stroke-width="2" stroke-linecap="round" stroke-linejoin="round"/></svg><svg fill="none" viewBox="0 0 24 24" id="phone" xmlns="http://www.w3.org/2000/svg"><path d="M22 16.92v3a1.998 1.998 0 01-2.18 2 19.791 19.791 0 01-8.63-3.07 19.5 19.5 0 01-6-6 19.79 19.79 0 01-3.07-8.67A2 2 0 014.11 2h3a2 2 0 012 1.72c.127.96.361 1.903.7 2.81a2 2 0 01-.45 2.11L8.09 9.91a16 16 0 006 6l1.27-1.27a2 2 0 012.11-.45c.907.339 1.85.574 2.81.7A2 2 0 0122 16.92z" stroke="#F9AF31" stroke-width="2" stroke-linecap="round" stroke-linejoin="round"/></svg><svg viewBox="0 0 15 17" id="play" xmlns="http://www.w3.org/2000/svg"><path d="M3.705 4.23a1 1 0 011.54-.842L12.42 8a1 1 0 010 1.682l-7.174 4.612a1 1 0 01-1.54-.842V4.23z"/></svg><svg fill="none" viewBox="0 0 30 30" id="plug" xmlns="http://www.w3.org/2000/svg"><path d="M28.026 28.52h-3.285v-2.186a.648.648 0 00-.65-.646h-1.977v-2.269a.648.648 0 00-.65-.646h-1.782V11.296h5.225c.358 0 .65-.29.65-.646V6.067a.648.648 0 00-.65-.646h-2.258l-4.237-3.76V.646a.648.648 0 00-.65-.646h-2.831c-.36 0-.65.29-.65.646v1.016L10.044 5.42H5.093c-.359 0-.65.289-.65.646V18.197c0 .356.29.646.65.646h.836v.715a1.842 1.842 0 00-1.285 1.75c0 1.013.83 1.838 1.85 1.838a1.86 1.86 0 001.495-.757.643.643 0 00-.143-.902.652.652 0 00-.907.142.549.549 0 01-.995-.32c0-.302.246-.547.55-.547h.085c.359 0 .65-.29.65-.646v-1.273h.844c.359 0 .65-.29.65-.646v-6.901h4.287v11.477H11.23c-.36 0-.65.29-.65.646v2.269H8.6c-.358 0-.65.289-.65.646v2.187H4.119c-.36 0-.65.29-.65.646 0 .356.29.646.65.646H28.026c.36 0 .65-.29.65-.646a.648.648 0 00-.65-.646zM18.412 3.394l2.285 2.028h-2.285V3.393zM16.346 1.56l.766.68v3.18h-1.531V2.24l.765-.68zm-2.065 1.833v2.028h-2.286l2.286-2.028zM7.423 17.551h-.425a.649.649 0 00-.838 0h-.417v-6.255h1.68v6.255zm.65-7.547h-2.33v-1h14.236c.358 0 .65-.29.65-.646a.648.648 0 00-.65-.646H5.743v-1h18.514v3.292H8.073zm10.31 11.336v1.433h-3.06l3.06-1.433zm-4.073.48v-3.736l3.33 2.176-3.33 1.56zm.67-4.845l3.402-1.888V19.2l-3.402-2.225zm-.67-1.107v-4.025l3.387 2.145-3.387 1.88zm1.554-4.572h2.518v1.594l-2.518-1.594zm-3.985 12.769H20.814v1.623h-8.935v-1.623zm11.562 4.456H9.251v-1.542h14.19v1.542zM2.433 28.71a.618.618 0 00-.211-.14.657.657 0 00-.609.06.646.646 0 10.721 1.074.67.67 0 00.18-.179.654.654 0 00.11-.358c0-.17-.07-.337-.19-.457z" fill="#F6F6F6"/><path d="M22.76 8.232a.648.648 0 00-.998-.41.649.649 0 00-.24.784.69.69 0 00.142.21.687.687 0 00.21.139.659.659 0 00.25.049.655.655 0 00.6-.399.648.648 0 00.037-.373z" fill="#F6F6F6"/></svg><svg fill="none" viewBox="0 0 24 24" id="plus-circle" xmlns="http://www.w3.org/2000/svg"><path d="M12 22c5.523 0 10-4.477 10-10S17.523 2 12 2 2 6.477 2 12s4.477 10 10 10zM12 8v8M8 12h8"/></svg><svg viewBox="0 0 24 24" id="telegram" xmlns="http://www.w3.org/2000/svg"><path d="M2.178 12.986h.001l-.076-2.656c-.518.197-.821.448-.993.699-.173.25-.208.493-.203.664.005.17.054.41.24.651.186.24.503.474 1.031.642zm18.934-9.913L2.104 10.33l.122 2.572-.026.09H2.2l3.896 1.115 2.116 6.052.089-.03-.089.03c.301.861.985 1.41 1.792 1.41.507 0 1-.212 1.427-.604l2.38-2.192 3.473 2.798.005.003.03.025.002.001.004.004.005.004c.407.315.856.485 1.3.486.873 0 1.556-.649 1.753-1.62l3.114-15.38c.13-.637.024-1.22-.314-1.633-.294-.36-.732-.555-1.23-.555-.27 0-.552.057-.84.167zm-2.337 4.094a.751.751 0 00-.943-.218L6.598 12.688l-3.69-1.056 18.74-7.155a.875.875 0 01.305-.068.3.3 0 01.07.008l.007.018c.005.017.011.04.015.073a.94.94 0 01-.02.288l-3.115 15.38a.988.988 0 01-.095.273c-.052.093-.113.141-.186.141-.09 0-.223-.052-.373-.166l-4.006-3.226a.092.092 0 00-.006-.005l-2.303-1.855 6.78-7.205a.751.751 0 00.054-.966zm3.317-2.814c.035.043.08.189.024.461l-.024-.46zm-14.49 9.51l7.055-3.604-4.367 4.64a.75.75 0 00-.183.335l-.838 3.394-1.666-4.765zm2.941 5.875l.74-2.999 1.343 1.081-2.083 1.918z"/></svg><svg viewBox="0 0 24 24" id="viber" xmlns="http://www.w3.org/2000/svg"><g clip-path="url(#clip0_762:21999)"><path d="M23.155 13.893c.716-6.027-.344-9.832-2.256-11.553l.001-.001C17.814-.6 7.392-1.035 3.7 2.471 2.042 4.186 1.458 6.703 1.394 9.819c-.064 3.117-.14 8.956 5.301 10.54H6.7l-.005 2.42s-.037.98.59 1.176c.715.232 1.04-.223 3.266-2.883 3.724.323 6.584-.417 6.91-.525.751-.252 5.006-.815 5.694-6.654zM10.918 19.37s-2.357 2.94-3.09 3.702c-.24.248-.503.225-.499-.267 0-.323.018-4.016.018-4.016-4.613-1.322-4.34-6.294-4.29-8.895.05-2.602.525-4.733 1.93-6.168C8.224.689 17.361 1.368 19.69 3.556c2.846 2.523 1.833 9.651 1.84 9.894-.586 4.874-4.034 5.183-4.668 5.394-.27.09-2.786.737-5.944.526z"/><path d="M12.222 4.297c-.385 0-.385.6 0 .605 2.987.023 5.447 2.105 5.474 5.924 0 .403.59.398.585-.005h-.001c-.032-4.115-2.718-6.501-6.058-6.524z"/><path d="M16.151 10.193c-.009.398.58.417.585.014.049-2.269-1.35-4.138-3.98-4.335-.384-.028-.424.577-.04.605 2.28.173 3.481 1.729 3.435 3.716zM15.52 12.774c-.493-.286-.996-.108-1.204.173l-.435.563c-.221.286-.634.248-.634.248-3.014-.797-3.82-3.951-3.82-3.951s-.037-.427.239-.656l.544-.45c.272-.216.444-.736.167-1.247-.74-1.337-1.237-1.798-1.49-2.152-.266-.333-.666-.408-1.082-.183h-.01c-.864.506-1.811 1.453-1.508 2.428.517 1.028 1.467 4.305 4.495 6.781 1.423 1.171 3.675 2.371 4.63 2.648l.01.014c.942.314 1.858-.67 2.347-1.561v-.007c.217-.431.145-.839-.172-1.106-.562-.548-1.41-1.153-2.076-1.542z"/><path d="M13.169 8.104c.96.056 1.427.558 1.477 1.59.018.402.603.374.585-.029-.064-1.346-.766-2.096-2.03-2.166-.385-.023-.421.582-.032.605z"/></g></svg><svg fill="none" viewBox="0 0 984 294" id="wawe" xmlns="http://www.w3.org/2000/svg"><path d="M1 232.917S34.704 3.351 144.937 3.351C325.358 3.35 308.544 293.5 488.786 293.5 674.205 293.5 670.706-2.353 835.634.52c162.928 2.84 146.935 232.397 146.935 232.397" stroke="#EAEAEA" stroke-dasharray="5 5"/></svg><svg viewBox="0 0 24 24" id="whatsapp" xmlns="http://www.w3.org/2000/svg"><g clip-path="url(#clip0_762:22007)"><path d="M17.507 14.307l-.009.075c-2.199-1.096-2.429-1.242-2.713-.816-.197.295-.77.964-.944 1.162-.175.195-.349.21-.646.075-.3-.15-1.263-.465-2.403-1.485-.888-.795-1.484-1.77-1.66-2.07-.293-.506.32-.578.878-1.634.1-.21.05-.375-.025-.524-.075-.15-.672-1.62-.922-2.206-.24-.584-.487-.51-.672-.51-.576-.05-.997-.042-1.368.344-1.614 1.774-1.207 3.604.174 5.55 2.714 3.552 4.16 4.206 6.804 5.114.714.227 1.365.195 1.88.121.574-.091 1.767-.721 2.016-1.426.255-.705.255-1.29.18-1.425-.074-.135-.27-.21-.57-.345z"/><path d="M20.52 3.45C12.831-3.985.106 1.406.101 11.892c0 2.096.549 4.14 1.595 5.945L0 24l6.335-1.652C14.24 26.618 23.996 20.948 24 11.9c0-3.176-1.24-6.165-3.495-8.41l.015-.04zm1.482 8.416c-.006 7.633-8.385 12.4-15.012 8.504l-.36-.214-3.75.975 1.005-3.645-.239-.375c-4.124-6.565.614-15.145 8.426-15.145a9.865 9.865 0 017.021 2.91 9.788 9.788 0 012.909 6.99z"/></g></svg></svg>