<svg width="16" height="16" viewBox="0 0 16 16" fill="none" xmlns="http://www.w3.org/2000/svg">
<path d="M14.4798 0.208583C14.3398 0.116039 14.1834 0.0524952 14.0194 0.0215805C13.8553 -0.00933422 13.6869 -0.00701365 13.5237 0.0284096C13.3606 0.0638328 13.2059 0.131665 13.0684 0.22803C12.931 0.324395 12.8136 0.447406 12.7228 0.590035L5.60429 11.7708L2.13269 8.49999C2.0102 8.38459 1.86661 8.2949 1.71012 8.23604C1.55362 8.17719 1.38727 8.15032 1.22058 8.15697C0.883941 8.17041 0.566322 8.31956 0.3376 8.57162C0.108879 8.82368 -0.0122091 9.158 0.000973929 9.50103C0.014157 9.84407 0.160531 10.1677 0.407896 10.4008L4.96612 14.6951C4.96612 14.6951 5.09697 14.8099 5.15753 14.85C5.29748 14.9427 5.45397 15.0063 5.61805 15.0372C5.78213 15.0682 5.95059 15.0659 6.1138 15.0304C6.27701 14.995 6.43177 14.9271 6.56923 14.8307C6.70669 14.7343 6.82416 14.6113 6.91493 14.4686L10.8845 8.23375L14.8541 1.99891C14.9449 1.85632 15.0073 1.69689 15.0376 1.52974C15.068 1.36258 15.0657 1.19098 15.0309 1.02472C14.9962 0.858462 14.9296 0.700813 14.835 0.560778C14.7405 0.420743 14.6198 0.301066 14.4798 0.208583Z" fill="white"/>
</svg>
