<svg width="23" height="30" viewBox="0 0 23 30" fill="none" xmlns="http://www.w3.org/2000/svg">
<path d="M13.5046 0.90748V0.904545H13.4091H7.68184C6.83836 0.904545 6.15457 1.58834 6.15457 2.43182V2.81362L5.77277 2.81362L5.77237 2.81362C5.15022 2.81619 4.59434 3.19553 4.36284 3.76819H2.43182C1.58834 3.76819 0.904545 4.45198 0.904545 5.29546V26.2955C0.904545 27.139 1.58834 27.8228 2.43182 27.8228H2.81362V28.2046C2.81362 29.0481 3.49742 29.7319 4.3409 29.7319H20.5682C21.4117 29.7319 22.0955 29.0481 22.0955 28.2046V7.20454C22.0955 6.36106 21.4117 5.67726 20.5682 5.67726H20.1864V5.29546C20.1864 4.45198 19.5026 3.76819 18.6591 3.76819H16.7281C16.4966 3.19552 15.9407 2.81623 15.3186 2.81362H15.3182H14.9364V2.43182C14.9364 1.6204 14.3036 0.956751 13.5046 0.90748ZM20.5683 6.82274C20.7791 6.82274 20.9501 6.99368 20.9501 7.20454V28.2046C20.9501 28.4154 20.7791 28.5864 20.5683 28.5864H4.34095C4.13009 28.5864 3.95914 28.4154 3.95914 28.2046V27.8228H18.6591C19.5026 27.8228 20.1864 27.139 20.1864 26.2955V6.82274H20.5683ZM19.041 5.29546V26.2955C19.041 26.5064 18.87 26.6773 18.6592 26.6773H2.43187C2.22101 26.6773 2.05006 26.5064 2.05006 26.2955V5.29546C2.05006 5.08461 2.22101 4.91366 2.43187 4.91366H4.24549V5.77277C4.24549 6.35267 4.7156 6.82278 5.29551 6.82278H15.7955C16.3754 6.82278 16.8455 6.35267 16.8455 5.77277V4.91366H18.6591C18.8701 4.91366 19.041 5.08461 19.041 5.29546ZM15.3182 3.9591C15.5291 3.9591 15.7001 4.13004 15.7001 4.3409V5.67726H5.39096V4.3409C5.39096 4.13004 5.56191 3.9591 5.77277 3.9591H6.72733C7.04362 3.9591 7.30004 3.70267 7.30004 3.38638V2.43182C7.30004 2.22097 7.47099 2.05002 7.68184 2.05002H13.4091C13.62 2.05002 13.7909 2.22097 13.7909 2.43182V3.38638C13.7909 3.70267 14.0474 3.9591 14.3636 3.9591H15.3182Z" fill="white" stroke="white" stroke-width="0.190909"/>
<path d="M11.9772 3.76819H10.0681C9.75179 3.76819 9.49537 4.02462 9.49537 4.34091C9.49537 4.6572 9.75179 4.91362 10.0681 4.91362H11.9772C12.2934 4.91362 12.5499 4.6572 12.5499 4.34091C12.5499 4.02462 12.2935 3.76819 11.9772 3.76819Z" fill="white" stroke="white" stroke-width="0.190909"/>
<path d="M3.34305 23.0501H6.38025C7.16021 23.0501 7.77737 22.3575 7.77737 21.5228V9.1137C7.77737 8.27899 7.16021 7.58643 6.38025 7.58643H3.34305C3.04236 7.58643 2.81373 7.85162 2.81373 8.15914V22.4773C2.81373 22.4773 2.81373 22.4773 2.81373 22.4773C2.81368 22.7849 3.04233 23.0501 3.34305 23.0501ZM3.87238 17.3228H6.71867V19.0409H3.87238V17.3228ZM3.87238 14.4591H6.71867V16.1773H3.87238V14.4591ZM6.71867 13.3137H3.87238V11.5955H6.71867V13.3137ZM6.71867 21.5228C6.71867 21.7424 6.55879 21.9046 6.38025 21.9046H3.87238V20.1865H6.71867V21.5228ZM3.87238 8.73185H6.38025C6.55879 8.73185 6.71867 8.89404 6.71867 9.11366V10.45H3.87238V8.73185Z" fill="white" stroke="white" stroke-width="0.190909"/>
<path d="M13.8517 7.58648V7.58643H13.7563C12.9763 7.58643 12.3591 8.27899 12.3591 9.1137V21.5228C12.3591 22.3575 12.9763 23.0501 13.7563 23.0501H16.7935C17.0941 23.0501 17.3228 22.7849 17.3228 22.4774V8.15919C17.3228 7.85166 17.0941 7.58648 16.7935 7.58648H13.8517ZM16.2641 13.3137H13.4178V11.5955H16.2641V13.3137ZM16.2641 16.1773H13.4178V14.4592H16.2641V16.1773ZM13.4178 17.3228H16.2641V19.0409H13.4178V17.3228ZM13.4178 9.1137C13.4178 8.89409 13.5777 8.7319 13.7562 8.7319H16.2641V10.4501H13.4178V9.1137ZM16.2641 21.9046H13.7563C13.5777 21.9046 13.4178 21.7424 13.4178 21.5228V20.1865H16.2641V21.9046Z" fill="white" stroke="white" stroke-width="0.190909"/>
<path d="M3.37104 23.8136C3.06032 23.8136 2.81373 24.073 2.81373 24.3863C2.81373 24.6997 3.06032 24.9591 3.37104 24.9591H16.7655C17.0762 24.9591 17.3228 24.6997 17.3228 24.3863C17.3228 24.073 17.0762 23.8136 16.7655 23.8136H3.37104Z" fill="white" stroke="white" stroke-width="0.190909"/>
<path d="M10.0686 9.68643C10.3639 9.68643 10.6413 9.49152 10.6413 9.20917V8.0637C10.6413 7.78134 10.3639 7.58643 10.0686 7.58643C9.77326 7.58643 9.49585 7.78134 9.49585 8.0637V9.20917C9.49585 9.49152 9.77326 9.68643 10.0686 9.68643Z" fill="white" stroke="white" stroke-width="0.190909"/>
<path d="M10.0686 12.5501C10.3639 12.5501 10.6413 12.3552 10.6413 12.0728V10.9273C10.6413 10.645 10.3639 10.4501 10.0686 10.4501C9.77326 10.4501 9.49585 10.645 9.49585 10.9273V12.0728C9.49585 12.3552 9.77326 12.5501 10.0686 12.5501Z" fill="white" stroke="white" stroke-width="0.190909"/>
<path d="M10.0686 16.3683C10.3639 16.3683 10.6413 16.1734 10.6413 15.8911V14.7456C10.6413 14.4632 10.3639 14.2683 10.0686 14.2683C9.77326 14.2683 9.49585 14.4632 9.49585 14.7456V15.8911C9.49585 16.1734 9.77326 16.3683 10.0686 16.3683Z" fill="white" stroke="white" stroke-width="0.190909"/>
<path d="M10.0686 19.2318C10.3639 19.2318 10.6413 19.0369 10.6413 18.7546V17.6091C10.6413 17.3268 10.3639 17.1318 10.0686 17.1318C9.77326 17.1318 9.49585 17.3268 9.49585 17.6091V18.7546C9.49585 19.0369 9.77326 19.2318 10.0686 19.2318Z" fill="white" stroke="white" stroke-width="0.190909"/>
<path d="M10.0686 23.0501C10.3639 23.0501 10.6413 22.8552 10.6413 22.5728V21.4273C10.6413 21.145 10.3639 20.9501 10.0686 20.9501C9.77326 20.9501 9.49585 21.145 9.49585 21.4273V22.5728C9.49585 22.8552 9.77326 23.0501 10.0686 23.0501Z" fill="white" stroke="white" stroke-width="0.190909"/>
</svg>
