<svg width="30" height="30" viewBox="0 0 30 30" fill="none" xmlns="http://www.w3.org/2000/svg">
<path d="M17.5046 0.90748V0.904545H17.4091H11.6818C10.8384 0.904545 10.1546 1.58834 10.1546 2.43182V2.81362L9.77277 2.81362L9.77237 2.81362C9.15022 2.81619 8.59434 3.19553 8.36284 3.76819H6.43182C5.58834 3.76819 4.90455 4.45198 4.90455 5.29546V26.2955C4.90455 27.139 5.58834 27.8228 6.43182 27.8228H6.81362V28.2046C6.81362 29.0481 7.49742 29.7319 8.3409 29.7319H24.5682C25.4117 29.7319 26.0955 29.0481 26.0955 28.2046V7.20454C26.0955 6.36106 25.4117 5.67726 24.5682 5.67726H24.1864V5.29546C24.1864 4.45198 23.5026 3.76819 22.6591 3.76819H20.7281C20.4966 3.19552 19.9407 2.81623 19.3186 2.81362H19.3182H18.9364V2.43182C18.9364 1.6204 18.3036 0.956751 17.5046 0.90748ZM24.5683 6.82274C24.7791 6.82274 24.9501 6.99368 24.9501 7.20454V28.2046C24.9501 28.4154 24.7791 28.5864 24.5683 28.5864H8.34095C8.13009 28.5864 7.95914 28.4154 7.95914 28.2046V27.8228H22.6591C23.5026 27.8228 24.1864 27.139 24.1864 26.2955V6.82274H24.5683ZM23.041 5.29546V26.2955C23.041 26.5064 22.87 26.6773 22.6592 26.6773H6.43187C6.22101 26.6773 6.05006 26.5064 6.05006 26.2955V5.29546C6.05006 5.08461 6.22101 4.91366 6.43187 4.91366H8.24549V5.77277C8.24549 6.35267 8.7156 6.82278 9.29551 6.82278H19.7955C20.3754 6.82278 20.8455 6.35267 20.8455 5.77277V4.91366H22.6591C22.8701 4.91366 23.041 5.08461 23.041 5.29546ZM19.3182 3.9591C19.5291 3.9591 19.7001 4.13004 19.7001 4.3409V5.67726H9.39096V4.3409C9.39096 4.13004 9.56191 3.9591 9.77277 3.9591H10.7273C11.0436 3.9591 11.3 3.70267 11.3 3.38638V2.43182C11.3 2.22097 11.471 2.05002 11.6818 2.05002H17.4091C17.62 2.05002 17.7909 2.22097 17.7909 2.43182V3.38638C17.7909 3.70267 18.0474 3.9591 18.3636 3.9591H19.3182Z" fill="#100D0D" stroke="#100D0D" stroke-width="0.190909"/>
<path d="M15.9772 3.76819H14.0681C13.7518 3.76819 13.4954 4.02462 13.4954 4.34091C13.4954 4.6572 13.7518 4.91362 14.0681 4.91362H15.9772C16.2934 4.91362 16.5499 4.6572 16.5499 4.34091C16.5499 4.02462 16.2935 3.76819 15.9772 3.76819Z" fill="#100D0D" stroke="#100D0D" stroke-width="0.190909"/>
<path d="M7.34305 23.0501H10.3803C11.1602 23.0501 11.7774 22.3575 11.7774 21.5228V9.1137C11.7774 8.27899 11.1602 7.58643 10.3803 7.58643H7.34305C7.04236 7.58643 6.81373 7.85162 6.81373 8.15914V22.4773C6.81373 22.4773 6.81373 22.4773 6.81373 22.4773C6.81368 22.7849 7.04233 23.0501 7.34305 23.0501ZM7.87238 17.3228H10.7187V19.0409H7.87238V17.3228ZM7.87238 14.4591H10.7187V16.1773H7.87238V14.4591ZM10.7187 13.3137H7.87238V11.5955H10.7187V13.3137ZM10.7187 21.5228C10.7187 21.7424 10.5588 21.9046 10.3803 21.9046H7.87238V20.1865H10.7187V21.5228ZM7.87238 8.73185H10.3803C10.5588 8.73185 10.7187 8.89404 10.7187 9.11366V10.45H7.87238V8.73185Z" fill="#100D0D" stroke="#100D0D" stroke-width="0.190909"/>
<path d="M17.8517 7.58648V7.58643H17.7563C16.9763 7.58643 16.3591 8.27899 16.3591 9.1137V21.5228C16.3591 22.3575 16.9763 23.0501 17.7563 23.0501H20.7935C21.0941 23.0501 21.3228 22.7849 21.3228 22.4774V8.15919C21.3228 7.85166 21.0941 7.58648 20.7935 7.58648H17.8517ZM20.2641 13.3137H17.4178V11.5955H20.2641V13.3137ZM20.2641 16.1773H17.4178V14.4592H20.2641V16.1773ZM17.4178 17.3228H20.2641V19.0409H17.4178V17.3228ZM17.4178 9.1137C17.4178 8.89409 17.5777 8.7319 17.7562 8.7319H20.2641V10.4501H17.4178V9.1137ZM20.2641 21.9046H17.7563C17.5777 21.9046 17.4178 21.7424 17.4178 21.5228V20.1865H20.2641V21.9046Z" fill="#100D0D" stroke="#100D0D" stroke-width="0.190909"/>
<path d="M7.37104 23.8136C7.06032 23.8136 6.81373 24.073 6.81373 24.3863C6.81373 24.6997 7.06032 24.9591 7.37104 24.9591H20.7655C21.0762 24.9591 21.3228 24.6997 21.3228 24.3863C21.3228 24.073 21.0762 23.8136 20.7655 23.8136H7.37104Z" fill="#100D0D" stroke="#100D0D" stroke-width="0.190909"/>
<path d="M14.0686 9.68643C14.3639 9.68643 14.6413 9.49152 14.6413 9.20917V8.0637C14.6413 7.78134 14.3639 7.58643 14.0686 7.58643C13.7733 7.58643 13.4959 7.78134 13.4959 8.0637V9.20917C13.4959 9.49152 13.7733 9.68643 14.0686 9.68643Z" fill="#100D0D" stroke="#100D0D" stroke-width="0.190909"/>
<path d="M14.0686 12.5501C14.3639 12.5501 14.6413 12.3552 14.6413 12.0728V10.9273C14.6413 10.645 14.3639 10.4501 14.0686 10.4501C13.7733 10.4501 13.4959 10.645 13.4959 10.9273V12.0728C13.4959 12.3552 13.7733 12.5501 14.0686 12.5501Z" fill="#100D0D" stroke="#100D0D" stroke-width="0.190909"/>
<path d="M14.0686 16.3683C14.3639 16.3683 14.6413 16.1734 14.6413 15.8911V14.7456C14.6413 14.4632 14.3639 14.2683 14.0686 14.2683C13.7733 14.2683 13.4959 14.4632 13.4959 14.7456V15.8911C13.4959 16.1734 13.7733 16.3683 14.0686 16.3683Z" fill="#100D0D" stroke="#100D0D" stroke-width="0.190909"/>
<path d="M14.0686 19.2318C14.3639 19.2318 14.6413 19.0369 14.6413 18.7546V17.6091C14.6413 17.3268 14.3639 17.1318 14.0686 17.1318C13.7733 17.1318 13.4959 17.3268 13.4959 17.6091V18.7546C13.4959 19.0369 13.7733 19.2318 14.0686 19.2318Z" fill="#100D0D" stroke="#100D0D" stroke-width="0.190909"/>
<path d="M14.0686 23.0501C14.3639 23.0501 14.6413 22.8552 14.6413 22.5728V21.4273C14.6413 21.145 14.3639 20.9501 14.0686 20.9501C13.7733 20.9501 13.4959 21.145 13.4959 21.4273V22.5728C13.4959 22.8552 13.7733 23.0501 14.0686 23.0501Z" fill="#100D0D" stroke="#100D0D" stroke-width="0.190909"/>
</svg>
