<svg width="30" height="27" viewBox="0 0 30 27" fill="none" xmlns="http://www.w3.org/2000/svg">
<path d="M20.4 3.52049V3.41501C20.4 2.81574 20.8942 2.33303 21.5 2.33303H23C23.6058 2.33303 24.1 2.81574 24.1 3.41501V6.77218L25.728 8.20051L25.7333 8.20519L25.7331 8.20536C25.7398 8.2121 25.7458 8.21878 25.751 8.22477H29C29.6057 8.22477 30.0999 8.70748 30.1 9.30675V25.018C30.1 25.6173 29.6058 26.1 29 26.1H2.50019H2.50001V26L20.4 3.52049ZM20.4 3.52049L17.7305 1.1742L17.7305 1.17419C17.3144 0.808604 16.6856 0.808604 16.2695 1.17419L8.272 8.20055L8.27135 8.20112C8.26352 8.20813 8.25547 8.21653 8.24806 8.22477H5.10002L20.4 3.52049ZM3.90001 8.82316L3.90001 8.82308L3.90001 8.81573V8.80839V6.85184C3.90001 6.0953 3.27492 5.4789 2.50001 5.4789C1.72505 5.4789 1.10001 6.0953 1.10001 6.85184V21.3844C1.3434 21.2318 1.61178 21.1209 1.89379 21.0565M3.90001 8.82316L1.91603 21.154M3.90001 8.82316L3.90985 21.3988M3.90001 8.82316L4.0099 21.4653M1.89379 21.0565L1.91603 21.154M1.89379 21.0565C1.89373 21.0565 1.89368 21.0565 1.89362 21.0566L1.91603 21.154M1.89379 21.0565C2.58769 20.8971 3.31498 21.0225 3.90985 21.3988M1.91603 21.154C2.60502 20.9956 3.32807 21.1291 3.90994 21.5181L3.90985 21.3988M3.90985 21.3988C3.94364 21.4201 3.977 21.4423 4.0099 21.4653M4.0099 21.4653L4.01 21.5885L4.0099 21.4653ZM2.50001 25.0181H28.9V24.9181M2.50001 25.0181L9.99995 16.6714C9.99995 17.4849 10.6715 18.1444 11.4999 18.1444H22.4999C23.3283 18.1444 23.9999 17.4849 23.9999 16.6714V10.8268C24.0328 10.8374 24.0662 10.8464 24.0999 10.8538M2.50001 25.0181C2.04294 25.0191 1.61053 24.8144 1.32653 24.4628L2.50001 25.0181ZM28.9 24.9181H29V9.40728H28.9M28.9 24.9181V9.40728M28.9 24.9181H2.50001H2.49979C2.07263 24.919 1.66905 24.7277 1.40433 24.4L1.40386 24.3994C1.20392 24.1555 1.09662 23.8514 1.10001 23.5389V23.5378V23.5324M28.9 9.40728V9.30728H25.9559C25.9167 9.44258 25.8485 9.56812 25.7559 9.6755L25.0934 10.436C24.9196 10.6377 24.6699 10.7617 24.4014 10.7797H24.3334C24.2546 10.7793 24.1762 10.7698 24.0999 10.7512V10.8538M28.9 9.40728H26.0283C25.9835 9.52895 25.9169 9.64193 25.8316 9.74081L25.8313 9.74118L25.1692 10.5013C25.1691 10.5013 25.1691 10.5014 25.1691 10.5014C24.9775 10.7236 24.7029 10.8597 24.4081 10.8795L24.4014 10.8799V10.8797H24.3334H24.333C24.2544 10.8793 24.1763 10.8707 24.0999 10.8538M24.0999 10.8538V16.6714C24.0999 17.5418 23.3818 18.2444 22.4999 18.2444H11.4999C10.618 18.2444 9.89995 17.5418 9.89995 16.6714V10.8545M9.89995 10.8545L5.09998 21.5836C5.1003 21.9961 4.86227 22.372 4.48762 22.5542M9.89995 10.8545C9.5087 10.94 9.09563 10.8079 8.83079 10.5014C8.83078 10.5014 8.83077 10.5013 8.83077 10.5013L8.16902 9.74111L8.16871 9.74075C8.08336 9.64175 8.01678 9.5286 7.97205 9.40675H5.09998L9.89995 10.8545ZM1.10001 23.5324C1.10111 23.4255 1.1141 23.3191 1.13874 23.215M1.10001 23.5324C1.10001 23.5326 1.10001 23.5327 1.10001 23.5329L1.00001 23.5319M1.10001 23.5324V23.5319H1.00001M1.13874 23.215C1.25944 22.7175 1.65547 22.3278 2.16428 22.2089L2.16484 22.2087C2.57637 22.11 3.01111 22.1988 3.34817 22.4498M1.13874 23.215C1.13872 23.2151 1.1387 23.2151 1.13868 23.2152L1.0415 23.1917M1.13874 23.215C1.13876 23.2149 1.13878 23.2148 1.13881 23.2147L1.0415 23.1917M3.34817 22.4498C3.67645 22.6964 4.11891 22.7368 4.48762 22.5542M3.34817 22.4498C3.34809 22.4498 3.34801 22.4497 3.34793 22.4497L3.408 22.3697L3.34826 22.4499C3.34823 22.4499 3.3482 22.4499 3.34817 22.4498ZM4.48762 22.5542C4.48747 22.5543 4.48734 22.5544 4.4872 22.5544L4.4435 22.4645L4.48789 22.5541C4.4878 22.5541 4.48771 22.5542 4.48762 22.5542ZM1.0415 23.1917C1.01507 23.3032 1.00115 23.4173 1.00001 23.5319M1.0415 23.1917C1.17122 22.6566 1.59665 22.2389 2.14151 22.1115L1.00001 23.5319M1.00001 23.5319V23.5378V23.5319ZM16.6005 3.5677L16.6665 3.6428L16.6005 3.5677L9.67719 9.65515L9.14453 9.02257L16.9974 2.11457L24.857 9.0461L24.3284 9.65612L17.3995 3.5677C17.1719 3.36759 16.8281 3.36759 16.6005 3.5677ZM18.3999 17.0624H15.6V13.2345C15.6 13.0203 15.7773 12.8436 15.9999 12.8436H17.9999C18.2225 12.8436 18.3999 13.0203 18.3999 13.2345V17.0624ZM1.10001 21.5033C1.06613 21.5258 1.03278 21.5491 1.00001 21.5733V21.4504L1.10001 21.5033ZM21.6 3.51501H22.9V5.71761L21.6 4.57508V3.51501ZM16 11.6616C15.1181 11.6616 14.4 12.3641 14.4 13.2345V17.0624H11.5C11.2774 17.0624 11.1 16.8856 11.1 16.6714V9.98584L17 4.80062L22.8999 9.98584V16.6714C22.8999 16.8856 22.7226 17.0624 22.5 17.0624H19.6V13.2345C19.6 12.3641 18.8819 11.6616 18 11.6616H16Z" stroke="white" stroke-width="0.75"/>
<path d="M7.00001 18.9C6.39249 18.9 5.9 19.3925 5.9 20V23C5.9 23.6075 6.39249 24.1 7.00001 24.1H26C26.6075 24.1 27.1 23.6075 27.1 23V20C27.1 19.3925 26.6075 18.9 26 18.9H7.00001ZM7.10001 22.9V20.1H7.90003V21.5C7.90003 21.8314 8.16866 22.1 8.50001 22.1C8.83136 22.1 9.09999 21.8314 9.09999 21.5V20.1H9.90001V20.5C9.90001 20.8313 10.1686 21.1 10.5 21.1C10.8313 21.1 11.1 20.8313 11.1 20.5V20.1H11.9V21.5C11.9 21.8314 12.1686 22.1 12.5 22.1C12.8313 22.1 13.1 21.8314 13.1 21.5V20.1H13.9V20.5C13.9 20.8313 14.1686 21.1 14.4999 21.1C14.8313 21.1 15.0999 20.8313 15.0999 20.5V20.1H15.8999V21.5C15.8999 21.8314 16.1686 22.1 16.4999 22.1C16.8313 22.1 17.0999 21.8314 17.0999 21.5V20.1H17.8999V20.5C17.8999 20.8313 18.1686 21.1 18.4999 21.1C18.8313 21.1 19.0999 20.8313 19.0999 20.5V20.1H19.8999V21.5C19.8999 21.8314 20.1685 22.1 20.4999 22.1C20.8312 22.1 21.0999 21.8314 21.0999 21.5V20.1H21.8999V20.5C21.8999 20.8313 22.1685 21.1 22.4999 21.1C22.8312 21.1 23.0998 20.8313 23.0998 20.5V20.1H23.8999V21.5C23.8999 21.8314 24.1685 22.1 24.4998 22.1C24.8312 22.1 25.0998 21.8314 25.0998 21.5V20.1H25.8998V22.9H7.10001Z" stroke="white" stroke-width="0.75"/>
</svg>
