<svg width="30" height="30" viewBox="0 0 30 30" fill="none" xmlns="http://www.w3.org/2000/svg">
<path d="M16.0987 5.90254C16.1536 5.43779 16.5547 5.07919 17.0385 5.07919H17.8846C18.4057 5.07919 18.8308 5.49509 18.8308 6.01157V8.07547L19.7483 8.80451C19.7483 8.80452 19.7483 8.80453 19.7484 8.80454C19.9447 8.96043 20.0699 9.18756 20.0952 9.4354M16.0987 5.90254L18.7308 14.7514C18.7308 15.441 18.1626 16 17.4616 16H13.2308H11.5384C10.8375 16 10.2692 15.441 10.2692 14.7514V10.9937M16.0987 5.90254L15.0996 5.10761L15.0993 5.10737C14.749 4.83088 14.2509 4.83087 13.9007 5.10738L13.9004 5.1076L9.25218 8.80482M16.0987 5.90254L9.25218 8.80482M20.0952 9.4354L19.9957 9.44557L20.0952 9.43538C20.0952 9.43539 20.0952 9.43539 20.0952 9.4354ZM20.0952 9.4354C20.1206 9.68329 20.0439 9.93059 19.8829 10.1221L19.8828 10.1221L19.3404 10.7664L19.3402 10.7666C19.2083 10.9222 19.0292 11.0304 18.8308 11.0764M18.8308 11.0764V10.9933H18.7308L18.7444 11.0923C18.7736 11.0884 18.8024 11.083 18.8308 11.0764ZM18.8308 11.0764V14.7514C18.8308 15.4978 18.2162 16.1 17.4616 16.1H13.2308H11.5384C10.7838 16.1 10.1692 15.4978 10.1692 14.7514V11.0768M10.1692 11.0768C10.1976 11.0834 10.2264 11.0887 10.2555 11.0927L10.2692 10.9937M10.1692 11.0768C9.97092 11.0306 9.79194 10.9225 9.6599 10.7671L9.6596 10.7668L9.11719 10.1225L9.11718 10.1225C8.95599 9.93099 8.87935 9.68358 8.90479 9.43565L8.90479 9.43563C8.93027 9.18775 9.05557 8.96061 9.25215 8.80485M10.1692 11.0768V10.9937H10.2692M10.2692 10.9937L9.25215 8.80485M9.25215 8.80485L9.25203 8.80494L9.31428 8.8832M9.25215 8.80485L9.7361 10.7024L9.19369 10.0581C9.04982 9.88718 8.98161 9.66664 9.00427 9.44586C9.02696 9.22507 9.1386 9.02239 9.31428 8.8832M9.31428 8.8832L9.25218 8.80482M9.31428 8.8832L13.9627 5.18586L9.25218 8.80482M9.98889 9.54508L10.4014 10.0353L14.1753 7.09802C14.1753 7.09799 14.1754 7.09797 14.1754 7.09795L14.1755 7.0979L14.2369 7.17682C14.391 7.05643 14.6091 7.05643 14.7632 7.17682L9.98889 9.54508ZM9.98889 9.54508L14.505 5.96068L19.0114 9.54187L18.5937 10.04L14.8247 7.09802L9.98889 9.54508ZM13.7538 15.0677V13.0867C13.7538 12.9136 13.8969 12.7705 14.0769 12.7705H14.9231C15.1031 12.7705 15.2461 12.9136 15.2461 13.0867V15.0677H13.7538ZM17.1385 6.11153H17.7847V7.24339L17.1385 6.72948V6.11153ZM11.2153 14.7514V10.7216L14.5 8.15897L17.7847 10.7216V14.7514C17.7847 14.9245 17.6416 15.0676 17.4616 15.0676H16.2924V13.0867C16.2924 12.3404 15.6778 11.7382 14.9231 11.7382H14.0769C13.3223 11.7382 12.7077 12.3404 12.7077 13.0867V15.0677H11.5384C11.3584 15.0677 11.2153 14.9245 11.2153 14.7514Z"  stroke="white" stroke-width="0.75"/>
<path d="M28.7691 24.511L28.7697 24.5115C28.9598 24.6908 29.0736 24.9362 29.0879 25.1969C29.0926 25.2156 29.0962 25.2344 29.0988 25.2533L29.1007 25.2669H29.0998V28.0655C29.1057 28.3415 28.9987 28.6081 28.8033 28.8034C28.608 28.9987 28.3414 29.1057 28.0654 29.0998H1.93463C1.65855 29.1057 1.39196 28.9987 1.19666 28.8034C1.00135 28.6081 0.894248 28.3415 0.900238 28.0654V25.2669V25.2596L0.901302 25.2523C0.904184 25.2327 0.908149 25.2135 0.913062 25.1946C0.928063 24.9364 1.04034 24.6932 1.22746 24.5143L1.22899 24.5129L1.229 24.5129L6.83313 19.3759L6.83321 19.3759C7.02441 19.201 7.27353 19.1031 7.53264 19.101L7.53347 19.101L9.3038 19.101C7.34414 16.7657 5.5668 13.7194 5.5668 10.3354V10.3354C5.5675 7.57678 6.77529 4.95658 8.87242 3.16402C10.9695 1.37151 13.7459 0.586192 16.4713 1.01455C20.3654 1.61157 23.4715 4.57811 24.2464 8.44043L24.2464 8.44061C25.0697 12.5845 23.0126 16.3417 20.6989 19.101H22.5364H22.5365V19.201C22.7737 19.2007 23.0019 19.2912 23.1744 19.4539L28.7691 24.511ZM28.7691 24.511L23.2431 19.3811C23.2429 19.381 23.2428 19.3809 23.2427 19.3808L28.7691 24.511ZM15.0226 2.03877H15.0228C15.4507 2.03881 15.8779 2.07104 16.3009 2.13517C19.7239 2.65934 22.4544 5.26666 23.1356 8.66157C23.8585 12.3037 22.0719 15.6745 19.9614 18.2321C17.9244 20.7007 15.6007 22.393 15 22.8122C14.4687 22.4413 12.4608 20.9821 10.5526 18.8294C8.56559 16.5879 6.70013 13.6097 6.70013 10.3354V10.3354C6.69945 7.91595 7.75538 5.61689 9.59114 4.0407C11.1034 2.74455 13.0308 2.03414 15.0226 2.03877ZM14.4149 23.784L14.4156 23.7845C14.7666 24.0286 15.2325 24.0286 15.5835 23.7845L15.5841 23.784C17.0644 22.7376 18.4384 21.5486 19.6867 20.2342H22.4977L27.8117 25.167L2.19059 25.1702L7.57238 20.2342H10.3165C11.5637 21.5481 12.9364 22.737 14.4149 23.784ZM2.03357 27.9665V26.3001H27.9664V27.9665H2.03357Z" stroke="white" stroke-width="0.75"/>
</svg>
