<svg width="24" height="24" viewBox="0 0 24 24" xmlns="http://www.w3.org/2000/svg">
<path d="M2.1782 12.986L2.17923 12.9863L2.10296 10.3298C1.58525 10.5274 1.28179 10.7783 1.10965 11.0288C0.93732 11.2795 0.902032 11.522 0.906843 11.6927C0.911655 11.8635 0.96061 12.1036 1.14687 12.3442C1.33292 12.5846 1.65011 12.8179 2.1782 12.986ZM21.1125 3.07331L2.10297 10.3298L2.22508 12.9023L2.19933 12.9923L2.19971 12.9924C2.19982 12.9924 2.19992 12.9924 2.20003 12.9925L6.09585 14.1073L8.21228 20.1594L8.30061 20.1285L8.21229 20.1594C8.51344 21.0204 9.19652 21.5698 10.004 21.5698C10.5107 21.5698 11.0038 21.3573 11.4305 20.9646L11.4305 20.9646L13.8102 18.7735L17.2841 21.5707C17.2857 21.572 17.2872 21.5731 17.2885 21.5741L17.3197 21.5993L17.321 21.6003L17.3254 21.6038L17.3304 21.6077L17.3305 21.6077C17.737 21.923 18.1858 22.0934 18.6295 22.0936H18.6295H18.6297C19.5032 22.0936 20.1861 21.4454 20.3828 20.474L23.4975 5.09429C23.6266 4.45737 23.5208 3.87407 23.1829 3.46094C22.8891 3.10162 22.4505 2.90643 21.9534 2.90643C21.6838 2.90643 21.4008 2.96313 21.1126 3.07329C21.1125 3.0733 21.1125 3.0733 21.1125 3.07331ZM18.7751 7.16673L18.7751 7.1667C18.5556 6.87435 18.1577 6.78234 17.8322 6.9487L6.59844 12.6877L2.90714 11.6316L21.6486 4.47746L21.6486 4.47745C21.7995 4.41979 21.9003 4.40942 21.9534 4.40942C21.9708 4.40942 21.9918 4.41054 22.0093 4.41407C22.015 4.41521 22.0192 4.4164 22.0222 4.41742C22.0241 4.42104 22.0267 4.42688 22.0297 4.43549C22.0354 4.45199 22.0412 4.4759 22.0448 4.50811C22.0522 4.5725 22.0505 4.66714 22.0245 4.7959L18.9098 20.1756C18.8955 20.2459 18.8664 20.3571 18.815 20.4485C18.7626 20.5417 18.7018 20.5904 18.6295 20.5904C18.5381 20.5904 18.4057 20.5384 18.2565 20.4237C18.2562 20.4235 18.256 20.4233 18.2557 20.4231L14.2504 17.1981C14.2483 17.1963 14.2461 17.1945 14.2437 17.1928L11.9405 15.3381L18.7213 8.1329C18.9718 7.86674 18.9945 7.45909 18.7751 7.16673ZM22.0919 4.35337C22.1268 4.39604 22.1714 4.5415 22.1162 4.81444L22.0919 4.35337ZM7.60256 13.8625L14.6568 10.2588L10.2897 14.8991C10.2011 14.9932 10.1382 15.1085 10.1073 15.234L9.26928 18.6285L7.60256 13.8625ZM10.5434 19.7382L11.2839 16.7391L12.6264 17.8202L10.5434 19.7382Z" stroke-width="0.187143"/>
</svg>
