<svg width="16" height="16" viewBox="0 0 16 16" fill="none" xmlns="http://www.w3.org/2000/svg">
<path d="M7.60037 0.00330474C6.31637 0.0188047 3.55587 0.229805 2.01187 1.6463C0.863372 2.7843 0.462372 4.46681 0.415372 6.54731C0.376372 8.62031 0.329372 12.5133 4.08187 13.5733V15.1878C4.08187 15.1878 4.05837 15.8338 4.48537 15.9663C5.01137 16.1328 5.31087 15.6358 5.81087 15.1018L6.74337 14.0473C9.31087 14.2608 11.2774 13.7688 11.5039 13.6958C12.0249 13.5293 14.9594 13.1543 15.4389 9.26081C15.9309 5.23981 15.1994 2.7063 13.8789 1.5603H13.8709C13.4724 1.1933 11.8709 0.0263047 8.29287 0.0133047C8.29287 0.0133047 8.02737 -0.00469526 7.60037 0.00280474V0.00330474ZM7.64437 1.1338C8.00887 1.1313 8.23037 1.1468 8.23037 1.1468C11.2589 1.1548 12.7044 2.0663 13.0454 2.3733C14.1574 3.3263 14.7304 5.6103 14.3109 8.96731C13.9124 12.2223 11.5324 12.4283 11.0919 12.5688C10.9044 12.6288 9.17237 13.0558 6.99037 12.9153C6.99037 12.9153 5.36537 14.8763 4.85737 15.3813C4.77687 15.4698 4.68287 15.4958 4.62287 15.4828C4.53687 15.4618 4.51087 15.3553 4.51587 15.2093L4.53137 12.5298C1.34887 11.6498 1.53637 8.3293 1.57037 6.5948C1.60937 4.8603 1.93487 3.4413 2.90387 2.4803C4.20837 1.3008 6.55237 1.1418 7.64337 1.1338H7.64437ZM7.88437 2.8678C7.85818 2.86754 7.83219 2.87246 7.80791 2.88229C7.78363 2.89212 7.76153 2.90665 7.74289 2.92506C7.72426 2.94346 7.70944 2.96537 7.69932 2.98953C7.68919 3.01369 7.68394 3.03961 7.68387 3.0658C7.68387 3.1778 7.77487 3.2663 7.88437 3.2663C8.38012 3.25688 8.87284 3.34569 9.3341 3.52762C9.79536 3.70955 10.216 3.98099 10.5719 4.3263C11.2984 5.03181 11.6524 5.9798 11.6659 7.21931C11.6659 7.3288 11.7544 7.41981 11.8664 7.41981V7.4118C11.9192 7.41194 11.9699 7.3912 12.0074 7.35411C12.045 7.31702 12.0663 7.26659 12.0669 7.2138C12.0911 6.63038 11.9965 6.04811 11.7888 5.50239C11.581 4.95666 11.2645 4.45889 10.8584 4.0393C10.0669 3.2658 9.06387 2.8673 7.88437 2.8673V2.8678ZM5.24887 3.3263C5.10735 3.30563 4.96301 3.33403 4.83987 3.4068H4.82937C4.5435 3.57437 4.28598 3.78617 4.06637 4.03431C3.88387 4.24531 3.78487 4.4588 3.75887 4.6643C3.74337 4.7868 3.75387 4.9093 3.79037 5.0263L3.80337 5.03431C4.00887 5.63831 4.27737 6.21931 4.60537 6.7663C5.02788 7.53478 5.54785 8.24549 6.15237 8.88081L6.17037 8.90681L6.19887 8.9278L6.21687 8.9488L6.23787 8.9668C6.87549 9.5731 7.58792 10.0955 8.35787 10.5213C9.23787 11.0003 9.77187 11.2268 10.0924 11.3208V11.3258C10.1864 11.3543 10.2719 11.3673 10.3579 11.3673C10.631 11.3473 10.8896 11.2364 11.0924 11.0523C11.3394 10.8326 11.5488 10.5741 11.7124 10.2868V10.2818C11.8659 9.99281 11.8139 9.71931 11.5924 9.5343C11.1488 9.14655 10.6691 8.80215 10.1599 8.50581C9.81887 8.3208 9.47237 8.43281 9.33187 8.62031L9.03237 8.9978C8.87887 9.1853 8.59987 9.1593 8.59987 9.1593L8.59187 9.1643C6.51137 8.6328 5.95637 6.5263 5.95637 6.5263C5.95637 6.5263 5.93037 6.2398 6.12287 6.0938L6.49787 5.7918C6.67737 5.6458 6.80237 5.2998 6.60987 4.9583C6.31557 4.44838 5.97192 3.96858 5.58387 3.5258C5.49904 3.42142 5.38002 3.3504 5.24787 3.3253L5.24887 3.3263ZM8.23037 3.9203C7.96487 3.9203 7.96487 4.3213 8.23287 4.3213C8.56301 4.32666 8.88886 4.39702 9.1918 4.52837C9.49473 4.65972 9.76881 4.84948 9.99837 5.0868C10.2078 5.31781 10.3687 5.5885 10.4716 5.88283C10.5745 6.17716 10.6173 6.48914 10.5974 6.8003C10.5983 6.85296 10.6198 6.90317 10.6573 6.94018C10.6947 6.97719 10.7452 6.99805 10.7979 6.9983L10.8059 7.0088C10.8589 7.00841 10.9097 6.98716 10.9472 6.94965C10.9847 6.91213 11.006 6.86136 11.0064 6.8083C11.0244 6.0138 10.7774 5.3473 10.2929 4.8133C9.80587 4.2793 9.12637 3.9798 8.25887 3.9203H8.23037ZM8.55887 4.9983C8.28537 4.9903 8.27487 5.3993 8.54587 5.4073C9.20487 5.4413 9.52487 5.7743 9.56687 6.4593C9.56779 6.5113 9.58902 6.56087 9.62602 6.59741C9.66303 6.63395 9.71287 6.65455 9.76487 6.6548H9.77287C9.79961 6.65366 9.82585 6.6472 9.85006 6.6358C9.87427 6.6244 9.89597 6.6083 9.91389 6.58842C9.93181 6.56855 9.94559 6.5453 9.95443 6.52004C9.96327 6.49478 9.96699 6.46802 9.96537 6.4413C9.91837 5.5483 9.43137 5.04531 8.56687 4.99881H8.55887V4.9983Z" fill="#F9AF31"/>
</svg>
