<svg width="30" height="30" viewBox="0 0 30 30" fill="none" xmlns="http://www.w3.org/2000/svg">
<g clip-path="url(#clip0_762:21945)">
<path d="M20.4 5.52049V5.41501C20.4 4.81574 20.8942 4.33303 21.5 4.33303H23C23.6058 4.33303 24.1 4.81574 24.1 5.41501V8.77218L25.728 10.2005L25.7333 10.2052L25.7331 10.2054C25.7398 10.2121 25.7458 10.2188 25.751 10.2248H29C29.6057 10.2248 30.0999 10.7075 30.1 11.3067V27.018C30.1 27.6173 29.6058 28.1 29 28.1H2.50019H2.50001V28L20.4 5.52049ZM20.4 5.52049L17.7305 3.1742L17.7305 3.17419C17.3144 2.8086 16.6856 2.8086 16.2695 3.17419L8.272 10.2005L8.27135 10.2011C8.26352 10.2081 8.25547 10.2165 8.24806 10.2248H5.10002L20.4 5.52049ZM3.90001 10.8232L3.90001 10.8231L3.90001 10.8157V10.8084V8.85184C3.90001 8.0953 3.27492 7.4789 2.50001 7.4789C1.72505 7.4789 1.10001 8.0953 1.10001 8.85184V23.3844C1.3434 23.2318 1.61178 23.1209 1.89379 23.0565M3.90001 10.8232L1.91603 23.154M3.90001 10.8232L3.90985 23.3988M3.90001 10.8232L4.0099 23.4653M1.89379 23.0565L1.91603 23.154M1.89379 23.0565C1.89373 23.0565 1.89368 23.0565 1.89362 23.0566L1.91603 23.154M1.89379 23.0565C2.58769 22.8971 3.31498 23.0225 3.90985 23.3988M1.91603 23.154C2.60502 22.9956 3.32807 23.1291 3.90994 23.5181L3.90985 23.3988M3.90985 23.3988C3.94364 23.4201 3.977 23.4423 4.0099 23.4653M4.0099 23.4653L4.01 23.5885L4.0099 23.4653ZM2.50001 27.0181H28.9V26.9181M2.50001 27.0181L9.99995 18.6714C9.99995 19.4849 10.6715 20.1444 11.4999 20.1444H22.4999C23.3283 20.1444 23.9999 19.4849 23.9999 18.6714V12.8268C24.0328 12.8374 24.0662 12.8464 24.0999 12.8538M2.50001 27.0181C2.04294 27.0191 1.61053 26.8144 1.32653 26.4628L2.50001 27.0181ZM28.9 26.9181H29V11.4073H28.9M28.9 26.9181V11.4073M28.9 26.9181H2.50001H2.49979C2.07263 26.919 1.66905 26.7277 1.40433 26.4L1.40386 26.3994C1.20392 26.1555 1.09662 25.8514 1.10001 25.5389V25.5378V25.5324M28.9 11.4073V11.3073H25.9559C25.9167 11.4426 25.8485 11.5681 25.7559 11.6755L25.0934 12.436C24.9196 12.6377 24.6699 12.7617 24.4014 12.7797H24.3334C24.2546 12.7793 24.1762 12.7698 24.0999 12.7512V12.8538M28.9 11.4073H26.0283C25.9835 11.529 25.9169 11.6419 25.8316 11.7408L25.8313 11.7412L25.1692 12.5013C25.1691 12.5013 25.1691 12.5014 25.1691 12.5014C24.9775 12.7236 24.7029 12.8597 24.4081 12.8795L24.4014 12.8799V12.8797H24.3334H24.333C24.2544 12.8793 24.1763 12.8707 24.0999 12.8538M24.0999 12.8538V18.6714C24.0999 19.5418 23.3818 20.2444 22.4999 20.2444H11.4999C10.618 20.2444 9.89995 19.5418 9.89995 18.6714V12.8545M9.89995 12.8545L5.09998 23.5836C5.1003 23.9961 4.86227 24.372 4.48762 24.5542M9.89995 12.8545C9.5087 12.94 9.09563 12.8079 8.83079 12.5014C8.83078 12.5014 8.83077 12.5013 8.83077 12.5013L8.16902 11.7411L8.16871 11.7408C8.08336 11.6418 8.01678 11.5286 7.97205 11.4067H5.09998L9.89995 12.8545ZM1.10001 25.5324C1.10111 25.4255 1.1141 25.3191 1.13874 25.215M1.10001 25.5324C1.10001 25.5326 1.10001 25.5327 1.10001 25.5329L1.00001 25.5319M1.10001 25.5324V25.5319H1.00001M1.13874 25.215C1.25944 24.7175 1.65547 24.3278 2.16428 24.2089L2.16484 24.2087C2.57637 24.11 3.01111 24.1988 3.34817 24.4498M1.13874 25.215C1.13872 25.2151 1.1387 25.2151 1.13868 25.2152L1.0415 25.1917M1.13874 25.215C1.13876 25.2149 1.13878 25.2148 1.13881 25.2147L1.0415 25.1917M3.34817 24.4498C3.67645 24.6964 4.11891 24.7368 4.48762 24.5542M3.34817 24.4498C3.34809 24.4498 3.34801 24.4497 3.34793 24.4497L3.408 24.3697L3.34826 24.4499C3.34823 24.4499 3.3482 24.4499 3.34817 24.4498ZM4.48762 24.5542C4.48747 24.5543 4.48734 24.5544 4.4872 24.5544L4.4435 24.4645L4.48789 24.5541C4.4878 24.5541 4.48771 24.5542 4.48762 24.5542ZM1.0415 25.1917C1.01507 25.3032 1.00115 25.4173 1.00001 25.5319M1.0415 25.1917C1.17122 24.6566 1.59665 24.2389 2.14151 24.1115L1.00001 25.5319M1.00001 25.5319V25.5378V25.5319ZM16.6005 5.5677L16.6665 5.6428L16.6005 5.5677L9.67719 11.6552L9.14453 11.0226L16.9974 4.11457L24.857 11.0461L24.3284 11.6561L17.3995 5.5677C17.1719 5.36759 16.8281 5.36759 16.6005 5.5677ZM18.3999 19.0624H15.6V15.2345C15.6 15.0203 15.7773 14.8436 15.9999 14.8436H17.9999C18.2225 14.8436 18.3999 15.0203 18.3999 15.2345V19.0624ZM1.10001 23.5033C1.06613 23.5258 1.03278 23.5491 1.00001 23.5733V23.4504L1.10001 23.5033ZM21.6 5.51501H22.9V7.71761L21.6 6.57508V5.51501ZM16 13.6616C15.1181 13.6616 14.4 14.3641 14.4 15.2345V19.0624H11.5C11.2774 19.0624 11.1 18.8856 11.1 18.6714V11.9858L17 6.80062L22.8999 11.9858V18.6714C22.8999 18.8856 22.7226 19.0624 22.5 19.0624H19.6V15.2345C19.6 14.3641 18.8819 13.6616 18 13.6616H16Z" fill="#100D0D" stroke="#100D0D" stroke-width="0.2"/>
<path d="M7.00001 20.9C6.39249 20.9 5.9 21.3925 5.9 22V25C5.9 25.6075 6.39249 26.1 7.00001 26.1H26C26.6075 26.1 27.1 25.6075 27.1 25V22C27.1 21.3925 26.6075 20.9 26 20.9H7.00001ZM7.10001 24.9V22.1H7.90003V23.5C7.90003 23.8314 8.16866 24.1 8.50001 24.1C8.83136 24.1 9.09999 23.8314 9.09999 23.5V22.1H9.90001V22.5C9.90001 22.8313 10.1686 23.1 10.5 23.1C10.8313 23.1 11.1 22.8313 11.1 22.5V22.1H11.9V23.5C11.9 23.8314 12.1686 24.1 12.5 24.1C12.8313 24.1 13.1 23.8314 13.1 23.5V22.1H13.9V22.5C13.9 22.8313 14.1686 23.1 14.4999 23.1C14.8313 23.1 15.0999 22.8313 15.0999 22.5V22.1H15.8999V23.5C15.8999 23.8314 16.1686 24.1 16.4999 24.1C16.8313 24.1 17.0999 23.8314 17.0999 23.5V22.1H17.8999V22.5C17.8999 22.8313 18.1686 23.1 18.4999 23.1C18.8313 23.1 19.0999 22.8313 19.0999 22.5V22.1H19.8999V23.5C19.8999 23.8314 20.1685 24.1 20.4999 24.1C20.8312 24.1 21.0999 23.8314 21.0999 23.5V22.1H21.8999V22.5C21.8999 22.8313 22.1685 23.1 22.4999 23.1C22.8312 23.1 23.0998 22.8313 23.0998 22.5V22.1H23.8999V23.5C23.8999 23.8314 24.1685 24.1 24.4998 24.1C24.8312 24.1 25.0998 23.8314 25.0998 23.5V22.1H25.8998V24.9H7.10001Z" fill="#100D0D" stroke="#100D0D" stroke-width="0.2"/>
</g>
<defs>
<clipPath id="clip0_762:21945">
<rect width="30" height="30" fill="white"/>
</clipPath>
</defs>
</svg>
