<svg width="31" height="30" viewBox="0 0 31 30" fill="none" xmlns="http://www.w3.org/2000/svg">
<g clip-path="url(#clip0)">
<path d="M20.5378 10.7325H17.0978C16.7469 10.7325 16.4624 11.017 16.4624 11.3679V14.808C16.4624 15.1588 16.7469 15.4434 17.0978 15.4434H20.5378C20.8886 15.4434 21.1732 15.1588 21.1732 14.808V11.3679C21.1732 11.017 20.8886 10.7325 20.5378 10.7325ZM19.9024 14.1725H17.7332V12.0032H19.9024V14.1725Z" fill="white"/>
<path d="M14.8211 16.4058H11.381C11.0301 16.4058 10.7456 16.6903 10.7456 17.0412V20.4813C10.7456 20.8321 11.0301 21.1167 11.381 21.1167H14.8211C15.172 21.1167 15.4565 20.8321 15.4565 20.4813V17.0412C15.4565 16.6903 15.172 16.4058 14.8211 16.4058ZM14.1857 19.8458H12.0164V17.6765H14.1857V19.8458Z" fill="white"/>
<path d="M20.5378 16.4058H17.0978C16.7469 16.4058 16.4624 16.6903 16.4624 17.0412V20.4813C16.4624 20.8321 16.7469 21.1167 17.0978 21.1167H20.5378C20.8886 21.1167 21.1732 20.8321 21.1732 20.4813V17.0412C21.1732 16.6903 20.8886 16.4058 20.5378 16.4058ZM19.9024 19.8458H17.7332V17.6765H19.9024V19.8458Z" fill="white"/>
<path d="M30.717 17.1912L23.3479 12.0383V11.8197C23.4739 11.8887 23.6203 11.9136 23.7632 11.8886C23.9292 11.8594 24.0769 11.7655 24.1736 11.6275L25.4362 9.82612C25.533 9.68802 25.5709 9.51716 25.5416 9.35098C25.5123 9.18493 25.4182 9.03727 25.2801 8.94065L16.3524 2.69777C16.1338 2.5449 15.8428 2.5449 15.6242 2.69777L6.69643 8.94059C6.55821 9.03721 6.46411 9.18493 6.43475 9.35093C6.40545 9.51704 6.44336 9.68796 6.54022 9.82606L7.80292 11.6275C7.8996 11.7655 8.04731 11.8594 8.21331 11.8886C8.24987 11.895 8.28655 11.8981 8.32317 11.8981C8.42981 11.8981 8.53476 11.8709 8.62856 11.8194V12.0383L1.25962 17.1912C1.00058 17.3724 0.914097 17.7164 1.0566 17.9985L2.13713 20.1367C2.22027 20.3013 2.37092 20.4215 2.5498 20.4664C2.60078 20.4792 2.65269 20.4855 2.7042 20.4855C2.76168 20.4855 2.81875 20.4772 2.874 20.4619V26.7814C2.874 27.1322 3.15848 27.4168 3.50939 27.4168H6.93268C6.93309 27.4168 6.9335 27.4168 6.93391 27.4168C6.93426 27.4168 6.93473 27.4168 6.93514 27.4168H9.26396H13.8935C13.8939 27.4168 13.8943 27.4168 13.8947 27.4168H18.0817C18.0822 27.4168 18.0826 27.4168 18.083 27.4168H22.7126H25.0414C25.0418 27.4168 25.0422 27.4168 25.0426 27.4168C25.043 27.4168 25.0435 27.4168 25.0439 27.4168H28.4672C28.818 27.4168 29.1025 27.1322 29.1025 26.7814V20.462C29.1577 20.4773 29.2148 20.4855 29.2722 20.4855C29.3239 20.4855 29.3757 20.4792 29.4267 20.4665C29.6056 20.4216 29.7562 20.3013 29.8393 20.1368L30.9199 17.9986C31.0625 17.7163 30.976 17.3724 30.717 17.1912ZM8.62856 26.146H7.5693V21.6675C7.5693 21.3166 7.28483 21.0321 6.93391 21.0321C6.58299 21.0321 6.29852 21.3166 6.29852 21.6675V26.146H4.14479V19.6158L5.83592 18.4292L8.62856 16.47V26.146ZM8.62862 14.9176L3.14453 18.7651C3.14453 18.7651 3.14447 18.7651 3.14447 18.7652L2.94033 18.9084L2.43929 17.9169L8.62868 13.589V14.9176H8.62862ZM17.4464 26.1461H14.5301V26.146V23.2299H17.4464V26.1461ZM22.0773 12.3694V15.248V15.2481V26.1462H18.7173V22.5945C18.7173 22.2436 18.4327 21.9591 18.0819 21.9591H13.8949C13.5439 21.9591 13.2595 22.2436 13.2595 22.5945V26.1461H9.89952V15.248H9.89946V10.9331L15.9883 6.66135L22.0772 10.9331V12.3694H22.0773ZM23.0775 10.0825L16.3532 5.36496C16.3258 5.34574 16.2973 5.32893 16.2679 5.31457C16.1798 5.27139 16.084 5.24977 15.9883 5.24977C15.8606 5.24977 15.7329 5.28814 15.6234 5.36496L8.89909 10.0826C8.89903 10.0826 8.89892 10.0827 8.89886 10.0828L8.47874 10.3775L7.946 9.61753L15.9882 3.99375L24.0305 9.61747L23.4978 10.3775L23.0779 10.0829C23.0778 10.0828 23.0776 10.0826 23.0775 10.0825ZM27.8319 26.146H27.8318H25.6781V21.6675C25.6781 21.3166 25.3936 21.0321 25.0427 21.0321C24.6918 21.0321 24.4073 21.3166 24.4073 21.6675V26.146H23.348V16.47L27.3095 19.2492L27.8319 19.6158V26.146ZM29.0363 18.9084L28.8321 18.7652L28.8321 18.7651L23.3479 14.9175V13.589L29.5373 17.9169L29.0363 18.9084Z" fill="white"/>
<path d="M25.6653 19.4465C25.6577 19.4058 25.645 19.3658 25.6291 19.3277C25.6132 19.2895 25.5935 19.2527 25.5706 19.2178C25.5478 19.1835 25.5211 19.1504 25.4918 19.1212C25.4626 19.092 25.4302 19.0653 25.3952 19.0424C25.3609 19.0196 25.324 18.9998 25.2853 18.984C25.2472 18.9681 25.2072 18.956 25.1665 18.9478C25.0846 18.9312 25.0007 18.9312 24.9187 18.9478C24.8781 18.956 24.8381 18.9681 24.7993 18.984C24.7611 18.9998 24.7243 19.0195 24.69 19.0424C24.655 19.0652 24.6226 19.092 24.5934 19.1212C24.5641 19.1504 24.5375 19.1835 24.5146 19.2178C24.4911 19.2527 24.472 19.2896 24.4561 19.3277C24.4402 19.3659 24.4275 19.4058 24.4192 19.4465C24.411 19.4878 24.4072 19.5291 24.4072 19.571C24.4072 19.6123 24.411 19.6537 24.4192 19.6949C24.4275 19.7356 24.4402 19.7757 24.4561 19.8138C24.472 19.8519 24.491 19.8888 24.5146 19.9237C24.5374 19.9579 24.5641 19.9904 24.5934 20.0203C24.6226 20.0495 24.655 20.0755 24.69 20.0991C24.7243 20.1219 24.7611 20.1417 24.7993 20.1575C24.838 20.1734 24.8781 20.1854 24.9187 20.1937C24.9594 20.202 25.0014 20.2064 25.0427 20.2064C25.0839 20.2064 25.1259 20.202 25.1666 20.1937C25.2073 20.1854 25.2473 20.1734 25.2854 20.1575C25.3241 20.1417 25.361 20.1219 25.3953 20.0991C25.4302 20.0756 25.4626 20.0495 25.4919 20.0203C25.5211 19.9904 25.5478 19.958 25.5707 19.9237C25.5935 19.8887 25.6133 19.8518 25.6291 19.8138C25.645 19.7757 25.6577 19.7356 25.6653 19.6949C25.6736 19.6537 25.6781 19.6123 25.6781 19.571C25.678 19.5291 25.6736 19.4878 25.6653 19.4465Z" fill="white"/>
<path d="M7.55647 19.4465C7.54885 19.4058 7.53613 19.3658 7.52026 19.3277C7.50438 19.2895 7.48469 19.2527 7.46178 19.2178C7.43893 19.1835 7.41221 19.1504 7.38297 19.1212C7.35373 19.092 7.32133 19.0653 7.28641 19.0424C7.25207 19.0196 7.21522 18.9998 7.17713 18.984C7.1384 18.9681 7.09832 18.956 7.05766 18.9478C6.97633 18.9312 6.89184 18.9312 6.80986 18.9478C6.7692 18.956 6.72918 18.9681 6.69104 18.984C6.65231 18.9998 6.61545 19.0195 6.58111 19.0424C6.54619 19.0652 6.51379 19.092 6.48455 19.1212C6.45531 19.1504 6.42865 19.1835 6.40574 19.2178C6.38289 19.2527 6.36314 19.2896 6.34727 19.3277C6.33139 19.3659 6.31867 19.4058 6.31105 19.4465C6.30279 19.4878 6.29834 19.5291 6.29834 19.571C6.29834 19.6123 6.30279 19.6537 6.31105 19.6949C6.31932 19.7355 6.33139 19.7756 6.34727 19.8138C6.36314 19.8519 6.38283 19.8888 6.40574 19.9237C6.42859 19.9579 6.45531 19.9904 6.48455 20.0203C6.51379 20.0495 6.54619 20.0755 6.58111 20.0991C6.61545 20.1219 6.65231 20.1417 6.69104 20.1575C6.72918 20.1734 6.7692 20.1854 6.80986 20.1937C6.85053 20.202 6.89248 20.2064 6.93379 20.2064C6.9751 20.2064 7.01705 20.202 7.05772 20.1937C7.09838 20.1854 7.1384 20.1734 7.17654 20.1575C7.21527 20.1417 7.25213 20.1219 7.28647 20.0991C7.32139 20.0756 7.35379 20.0495 7.38303 20.0203C7.41227 19.9904 7.43893 19.958 7.46184 19.9237C7.48469 19.8887 7.50444 19.8518 7.52031 19.8138C7.53619 19.7757 7.54891 19.7356 7.55653 19.6949C7.56479 19.6537 7.56924 19.6123 7.56924 19.571C7.56918 19.5291 7.56473 19.4878 7.55647 19.4465Z" fill="white"/>
</g>
<defs>
<clipPath id="clip0">
<rect width="30" height="30" fill="white" transform="translate(0.988281)"/>
</clipPath>
</defs>
</svg>
