<svg width="30" height="30" viewBox="0 0 30 30" xmlns="http://www.w3.org/2000/svg">
<path d="M19.3404 10.7664L19.3402 10.7666C19.2083 10.9222 19.0292 11.0304 18.8308 11.0764V14.7514C18.8308 15.4978 18.2162 16.1 17.4616 16.1H13.2308H11.5384C10.7838 16.1 10.1692 15.4978 10.1692 14.7514V11.0768C9.97092 11.0306 9.79194 10.9225 9.6599 10.7671L9.6596 10.7668L9.11719 10.1225L9.11718 10.1225C8.95599 9.93099 8.87935 9.68358 8.90479 9.43565L8.90479 9.43563C8.93027 9.18778 9.05554 8.96066 9.25208 8.8049C9.25211 8.80488 9.25215 8.80485 9.25218 8.80482L13.9004 5.1076L13.9007 5.10738C14.2509 4.83087 14.749 4.83088 15.0993 5.10737L15.0996 5.10761L16.0987 5.90254C16.1536 5.43779 16.5547 5.07919 17.0385 5.07919H17.8846C18.4057 5.07919 18.8308 5.49509 18.8308 6.01157V8.07547L19.7483 8.80451C19.9447 8.96039 20.0699 9.18753 20.0952 9.43538L19.3404 10.7664ZM19.3404 10.7664L19.8828 10.1221L19.8829 10.1221M19.3404 10.7664L19.8829 10.1221M19.8829 10.1221C20.0439 9.93059 20.1206 9.68329 20.0952 9.4354L19.8829 10.1221ZM9.98889 9.54508L14.505 5.96068L19.0114 9.54187L18.5937 10.04L14.8247 7.09802C14.8247 7.09801 14.8247 7.098 14.8247 7.09799C14.6345 6.94936 14.3655 6.94937 14.1753 7.09802M9.98889 9.54508L14.1753 7.09802M9.98889 9.54508L10.4014 10.0353L14.1753 7.09802M9.98889 9.54508L14.1753 7.09802M14.1753 7.09802L14.1755 7.0979L14.2369 7.17682L14.1753 7.09802ZM13.7538 15.0677V13.0867C13.7538 12.9136 13.8969 12.7705 14.0769 12.7705H14.9231C15.1031 12.7705 15.2461 12.9136 15.2461 13.0867V15.0677H13.7538ZM17.1385 6.11153H17.7847V7.24339L17.1385 6.72948V6.11153ZM11.2153 14.7514V10.7216L14.5 8.15897L17.7847 10.7216V14.7514C17.7847 14.9245 17.6416 15.0676 17.4616 15.0676H16.2924V13.0867C16.2924 12.3404 15.6778 11.7382 14.9231 11.7382H14.0769C13.3223 11.7382 12.7077 12.3404 12.7077 13.0867V15.0677H11.5384C11.3584 15.0677 11.2153 14.9245 11.2153 14.7514Z"  stroke="white" stroke-width="0.2"/>
<path d="M24.2464 8.44043L24.2464 8.44061C25.0697 12.5845 23.0126 16.3417 20.6989 19.101H22.5364H22.5365V19.201L24.2464 8.44043ZM24.2464 8.44043C23.4715 4.57811 20.3654 1.61157 16.4713 1.01455M24.2464 8.44043L16.4713 1.01455M16.4713 1.01455C13.7459 0.586192 10.9695 1.37151 8.87242 3.16402C6.77529 4.95658 5.5675 7.57678 5.5668 10.3354V10.3354C5.5668 13.7194 7.34414 16.7657 9.3038 19.101L7.53347 19.101L7.53264 19.101C7.27353 19.1031 7.02441 19.201 6.83322 19.3759L6.83313 19.3759L1.229 24.5129L1.22899 24.5129L1.22747 24.5143C1.04034 24.6932 0.928063 24.9364 0.913062 25.1946C0.908149 25.2135 0.904185 25.2327 0.901302 25.2523L0.900238 25.2596V25.2669V28.0654C0.894248 28.3415 1.00135 28.6081 1.19666 28.8034C1.39199 28.9987 1.65861 29.1057 1.93471 29.0998H28.0653C28.3414 29.1057 28.608 28.9987 28.8033 28.8034C28.9987 28.6081 29.1057 28.3415 29.0998 28.0655V25.2669H29.1007L29.0988 25.2533C29.0962 25.2344 29.0926 25.2156 29.0879 25.1969C29.0736 24.9362 28.9598 24.6908 28.7697 24.5115L28.7012 24.5841L28.7691 24.511L23.2431 19.3811C23.243 19.3811 23.2429 19.381 23.2428 19.3809L16.4713 1.01455ZM15.0226 2.03877H15.0228C15.4507 2.03881 15.8779 2.07104 16.3009 2.13517C19.7239 2.65934 22.4544 5.26666 23.1356 8.66157C23.8585 12.3037 22.0719 15.6745 19.9614 18.2321C17.9244 20.7007 15.6007 22.3929 15 22.8122C14.4687 22.4413 12.4608 20.9821 10.5526 18.8294C8.56559 16.5879 6.70013 13.6097 6.70013 10.3354V10.3354C6.69945 7.91593 7.75541 5.61683 9.59121 4.04065C11.1035 2.74453 13.0308 2.03414 15.0226 2.03877ZM14.4149 23.784L14.4156 23.7845C14.7666 24.0286 15.2325 24.0286 15.5835 23.7845L15.5841 23.784C17.0644 22.7376 18.4384 21.5486 19.6867 20.2342H22.4977L27.8117 25.167L2.19059 25.1702L7.57238 20.2342H10.3165C11.5637 21.5481 12.9364 22.737 14.4149 23.784ZM2.03357 27.9665V26.3001H27.9664V27.9665H2.03357Z" stroke="white" stroke-width="0.2"/>
</svg>
