<svg width="24" height="24" viewBox="0 0 24 24" xmlns="http://www.w3.org/2000/svg">
<g clip-path="url(#clip0_762:21999)">
<path d="M23.1551 13.893C23.8711 7.86603 22.8111 4.06103 20.8991 2.34003L20.9001 2.33903C17.8141 -0.599976 7.39208 -1.03498 3.70008 2.47103C2.04208 4.18603 1.45808 6.70303 1.39408 9.81904C1.33008 12.936 1.25408 18.775 6.69508 20.359H6.70008L6.69508 22.7781C6.69508 22.7781 6.65808 23.7581 7.28408 23.9551C8.00008 24.1871 8.32408 23.7321 10.5511 21.0721C14.2751 21.3951 17.1351 20.6551 17.4601 20.5471C18.2121 20.295 22.4671 19.732 23.1551 13.893ZM10.9181 19.37C10.9181 19.37 8.56108 22.3091 7.82808 23.0721C7.58808 23.3201 7.32508 23.2971 7.32908 22.8051C7.32908 22.4821 7.34708 18.789 7.34708 18.789C2.73408 17.467 3.00608 12.495 3.05608 9.89404C3.10608 7.29203 3.58208 5.16103 4.98608 3.72603C8.22508 0.689026 17.3621 1.36803 19.6901 3.55603C22.5361 6.07903 21.5231 13.207 21.5291 13.45C20.9441 18.324 17.4961 18.633 16.8621 18.844C16.5911 18.934 14.0761 19.581 10.9181 19.37V19.37Z" />
<path d="M12.2219 4.297C11.8369 4.297 11.8369 4.897 12.2219 4.902C15.2089 4.925 17.6689 7.007 17.6959 10.826C17.6959 11.229 18.2859 11.224 18.2809 10.821H18.2799C18.2479 6.706 15.5619 4.32 12.2219 4.297V4.297Z" />
<path d="M16.151 10.193C16.142 10.591 16.731 10.61 16.736 10.207C16.785 7.93804 15.3859 6.06904 12.7569 5.87204C12.3719 5.84404 12.3319 6.44904 12.7159 6.47704C14.9959 6.65004 16.197 8.20604 16.151 10.193V10.193Z"/>
<path d="M15.5207 12.774C15.0267 12.488 14.5237 12.666 14.3157 12.947L13.8807 13.51C13.6597 13.796 13.2467 13.758 13.2467 13.758C10.2327 12.961 9.42672 9.80698 9.42672 9.80698C9.42672 9.80698 9.38972 9.37998 9.66572 9.15098L10.2097 8.70098C10.4817 8.48498 10.6537 7.96498 10.3767 7.45398C9.63672 6.11698 9.13972 5.65598 8.88672 5.30198C8.62072 4.96898 8.22072 4.89398 7.80472 5.11898H7.79572C6.93072 5.62498 5.98373 6.57198 6.28673 7.54698C6.80372 8.57498 7.75372 11.852 10.7817 14.328C12.2047 15.499 14.4567 16.699 15.4127 16.976L15.4217 16.99C16.3637 17.304 17.2797 16.32 17.7687 15.429V15.422C17.9857 14.991 17.9137 14.583 17.5967 14.316C17.0347 13.768 16.1867 13.163 15.5207 12.774Z"/>
<path d="M13.1689 8.10405C14.1299 8.16005 14.5959 8.66206 14.6459 9.69306C14.6639 10.0961 15.2489 10.0681 15.2309 9.66506C15.1669 8.31905 14.4649 7.56905 13.2009 7.49905C12.8159 7.47605 12.7799 8.08105 13.1689 8.10405V8.10405Z"/>
</g>

</svg>
