<svg width="15" height="16" viewBox="0 0 15 16" xmlns="http://www.w3.org/2000/svg">
<path d="M12.8972 0.731445H2.25389C1.16958 0.731445 0.290527 1.60851 0.290527 2.69046V13.3103C0.290527 14.3922 1.16954 15.2693 2.25389 15.2693H7.50314L7.51209 10.0743H6.15942C5.98363 10.0743 5.84095 9.93242 5.84028 9.75702L5.83379 8.08245C5.83311 7.90609 5.97622 7.76277 6.15297 7.76277H7.50318V6.1447C7.50318 4.26695 8.65254 3.2445 10.3313 3.2445H11.7089C11.8852 3.2445 12.0281 3.38708 12.0281 3.56297V4.97498C12.0281 5.15081 11.8853 5.29335 11.7091 5.29345L10.8637 5.29385C9.95071 5.29385 9.77392 5.72672 9.77392 6.36199V7.7628H11.7801C11.9712 7.7628 12.1195 7.92935 12.097 8.11876L11.8981 9.79333C11.879 9.95358 11.7429 10.0743 11.5811 10.0743H9.78287L9.77392 15.2694H12.8973C13.9816 15.2694 14.8606 14.3923 14.8606 13.3104V2.69046C14.8606 1.60851 13.9816 0.731445 12.8972 0.731445Z" />
</svg>
