<svg width="30" height="28" viewBox="0 0 30 28" xmlns="http://www.w3.org/2000/svg">
<path d="M26.7871 4.14617C26.1061 3.46484 25.2976 2.92437 24.4076 2.55562C23.5177 2.18687 22.5638 1.99707 21.6005 1.99707C20.6372 1.99707 19.6833 2.18687 18.7933 2.55562C17.9034 2.92437 17.0948 3.46484 16.4138 4.14617L15.0005 5.5595L13.5871 4.14617C12.2116 2.77058 10.3459 1.99778 8.40048 1.99778C6.45511 1.99778 4.58941 2.77058 3.21382 4.14617C1.83823 5.52176 1.06543 7.38746 1.06543 9.33284C1.06543 11.2782 1.83823 13.1439 3.21382 14.5195L4.62715 15.9328L15.0005 26.3062L25.3738 15.9328L26.7871 14.5195C27.4685 13.8385 28.009 13.0299 28.3777 12.14C28.7465 11.25 28.9362 10.2962 28.9362 9.33284C28.9362 8.36952 28.7465 7.41564 28.3777 6.5257C28.009 5.63575 27.4685 4.82718 26.7871 4.14617V4.14617Z" />
</svg>
