<svg width="17" height="16" viewBox="0 0 17 16"
  xmlns="http://www.w3.org/2000/svg">
  <g clip-path="url(#clip0)">
    <path d="M1.35645 3.60883V12.3755C1.35645 14.0968 2.7518 15.4922 4.47308 15.4922H13.2398C14.9611 15.4922 16.3564 14.0968 16.3564 12.3755V3.60883C16.3564 1.88754 14.9611 0.492188 13.2398 0.492188H4.47308C2.7518 0.492188 1.35645 1.88754 1.35645 3.60883ZM10.4453 12.2422C6.74561 13.5188 3.32986 10.103 4.60638 6.40329C5.0365 5.15634 6.02051 4.17224 7.26746 3.74213C10.9673 2.46561 14.383 5.88135 13.1065 9.58118C12.6764 10.8281 11.6924 11.8121 10.4453 12.2422ZM14.0613 3.45648C14.0024 3.76474 13.7474 3.94409 13.4835 3.94409C13.3229 3.94409 13.1592 3.87781 13.0339 3.73398C13.0228 3.72125 13.0125 3.70761 13.0033 3.69342C12.874 3.49567 12.8699 3.26074 12.9799 3.07022C13.0577 2.93536 13.1833 2.83905 13.3337 2.79877C13.484 2.7583 13.6411 2.77908 13.7758 2.85699C13.9664 2.96686 14.0803 3.17239 14.0673 3.40805C14.0663 3.42416 14.0644 3.44055 14.0613 3.45648Z" />
    <path d="M8.85687 4.34814C6.84747 4.34814 5.21289 5.98273 5.21289 7.99213C5.21289 10.0015 6.84747 11.6361 8.85687 11.6361C10.8663 11.6361 12.5009 10.0015 12.5009 7.99213C12.5009 5.98273 10.8663 4.34814 8.85687 4.34814Z" />
  </g>
  <defs>
    <clipPath id="clip0">
      <rect width="16" height="16" transform="translate(0.864258)"/>
    </clipPath>
  </defs>
</svg>
