<svg width="44" height="51" viewBox="0 0 44 51" fill="none" xmlns="http://www.w3.org/2000/svg">
<path d="M37.7303 24H40.7953C41.3685 24 41.8243 24.4808 41.7939 25.0531L40.5181 49.0531C40.4899 49.584 40.0512 50 39.5195 50H36.4545C35.8813 50 35.4255 49.5192 35.4559 48.9469L36.7317 24.9469C36.7599 24.416 37.1986 24 37.7303 24Z" fill="#F4EDE5"/>
<path d="M9.6001 16.6403V23.9013V49C9.6001 49.5523 10.0478 50 10.6001 50H38.8242C39.3453 50 39.7791 49.5998 39.821 49.0803L41.763 24.9816C41.8099 24.3995 41.3502 23.9013 40.7663 23.9013H20.4153C19.863 23.9013 19.4153 23.4535 19.4153 22.9013V16.6895C19.4153 16.5904 19.3997 16.488 19.3695 16.3937C17.1149 9.34089 10.6348 11.8514 9.62095 16.4416C9.60657 16.5067 9.6001 16.5737 9.6001 16.6403Z" stroke="black" stroke-width="2"/>
<path d="M4.07072 24H8.6C9.15228 24 9.6 24.4477 9.6 25V49C9.6 49.5523 9.15229 50 8.6 50H2.08611C1.50132 50 1.04131 49.5004 1.08951 48.9176L3.07412 24.9176C3.117 24.399 3.55039 24 4.07072 24Z" stroke="black" stroke-width="2"/>
<path d="M34.5525 2.80668C34.8587 1.8998 36.1413 1.8998 36.4475 2.80668L37.7794 6.75229C37.8668 7.01105 38.0562 7.22283 38.3036 7.33844L42.061 9.09401C42.8299 9.45328 42.8299 10.5467 42.061 10.906L38.3036 12.6616C38.0562 12.7772 37.8668 12.9889 37.7794 13.2477L36.4475 17.1933C36.1413 18.1002 34.8587 18.1002 34.5525 17.1933L33.2206 13.2477C33.1332 12.9889 32.9438 12.7772 32.6964 12.6616L28.939 10.906C28.1701 10.5467 28.1701 9.45328 28.939 9.09401L32.6964 7.33844C32.9438 7.22283 33.1332 7.01105 33.2206 6.75229L34.5525 2.80668Z" fill="#C09D79"/>
</svg>
