<svg width="45" height="45" viewBox="0 0 45 45" fill="none" xmlns="http://www.w3.org/2000/svg">
<rect x="39.0654" y="8.75391" width="4.22951" height="35.2459" rx="1" fill="#F4EDE5"/>
<rect x="36.894" y="5.86328" width="3.5883" height="14.2591" rx="1" transform="rotate(47.049 36.894 5.86328)" fill="#F4EDE5"/>
<rect x="18.4961" y="15.7314" width="3.4902" height="14.2591" rx="1" transform="rotate(133.399 18.4961 15.7314)" fill="#F4EDE5"/>
<path d="M6.5453 8.75391H2C1.44772 8.75391 1 9.20162 1 9.75391V42.9999C1 43.5521 1.44772 43.9999 2 43.9999H42.2951C42.8474 43.9999 43.2951 43.5521 43.2951 42.9999V9.75391C43.2951 9.20162 42.8474 8.75391 42.2951 8.75391H38.4085" stroke="black" stroke-width="2"/>
<path d="M19.0719 15.4082L22.0451 11.3379C22.4445 10.7911 23.2606 10.7911 23.6601 11.3379L26.6333 15.4082C26.7583 15.5795 26.8258 15.786 26.8258 15.9981V32.2035C26.8258 32.4132 26.7598 32.6176 26.6373 32.7878L23.6641 36.9175C23.2651 37.4718 22.4401 37.4717 22.041 36.9175L19.0678 32.7878C18.9453 32.6176 18.8794 32.4132 18.8794 32.2035V15.9981C18.8794 15.786 18.9468 15.5795 19.0719 15.4082Z" fill="#C09D79"/>
<path d="M22.8226 10.8339L13.5034 2.28906H31.3651L22.8226 10.8339Z" fill="white" stroke="black" stroke-width="2"/>
<path d="M23.3703 11.9191L27.2763 17.1488C27.629 17.621 28.3115 17.6874 28.7485 17.2919L38.0233 8.89881C38.425 8.53527 38.4641 7.91792 38.1115 7.50655L33.488 2.11242C33.109 1.67014 32.4336 1.6442 32.0217 2.05611L23.4643 10.6136C23.113 10.9649 23.0729 11.521 23.3703 11.9191Z" stroke="black" stroke-width="2"/>
<path d="M22.1319 10.572L12.3992 1.74817C11.9585 1.34866 11.2686 1.41981 10.9188 1.90085L6.45496 8.03857C6.15783 8.44712 6.21207 9.01311 6.58138 9.3578L15.7459 17.9114C16.1617 18.2994 16.817 18.263 17.1873 17.8313L22.2193 11.9639C22.5718 11.5528 22.5331 10.9357 22.1319 10.572Z" stroke="black" stroke-width="2"/>
</svg>
