<svg width="52" height="52" viewBox="0 0 52 52" fill="none" xmlns="http://www.w3.org/2000/svg">
<rect x="8" y="11.2998" width="18.2" height="12.6" rx="1" fill="#C09D79"/>
<rect x="1" y="35.0996" width="49" height="4.2" fill="#BF9366" fill-opacity="0.17"/>
<path d="M42.3686 12C42.7543 12 43.1056 12.2218 43.2715 12.5701L49.3191 25.2701C49.6351 25.9337 49.1512 26.7 48.4162 26.7L47.118 26.7C46.7393 26.7 46.393 26.486 46.2236 26.1472L41.1764 16.0528C41.007 15.714 40.6607 15.5 40.282 15.5L33.5 15.5C32.9477 15.5 32.5 15.0523 32.5 14.5L32.5 13C32.5 12.4477 32.9477 12 33.5 12L42.3686 12Z" fill="#BF9366" fill-opacity="0.17"/>
<path d="M32.5 12H42.292C42.7162 12 43.0943 12.2676 43.2352 12.6677L48.7105 28.2107" stroke="black" stroke-width="2"/>
<path d="M32.5 6V26.4C32.5 26.9523 32.9477 27.4 33.5 27.4H49C49.5523 27.4 50 27.8477 50 28.4V38.3C50 38.8523 49.5523 39.3 49 39.3H2C1.44772 39.3 1 38.8523 1 38.3V6C1 5.44772 1.44772 5 2 5H31.5C32.0523 5 32.5 5.44771 32.5 6Z" stroke="black" stroke-width="2"/>
<circle cx="12.2001" cy="42.1" r="4.6" fill="white" stroke="black" stroke-width="2"/>
<circle cx="38.8002" cy="42.1" r="4.6" fill="white" stroke="black" stroke-width="2"/>
</svg>
