<svg width="17" height="14" viewBox="0 0 17 14"  xmlns="http://www.w3.org/2000/svg">
<path d="M6.83156 13.5344C6.13948 13.5344 5.42713 13.4785 4.71051 13.3664C3.44833 13.1688 2.17064 12.51 1.80909 12.3128L0.86084 11.7955L1.88748 11.4586C3.00973 11.0904 3.69241 10.862 4.53749 10.5043C3.69131 10.0954 3.03916 9.35993 2.72523 8.40915L2.4864 7.68571L2.68225 7.71556C2.49653 7.52879 2.34989 7.33922 2.23621 7.16682C1.83193 6.55413 1.61788 5.80547 1.66342 5.1639L1.70836 4.53244L2.08724 4.67888C1.92741 4.37772 1.8119 4.05608 1.74401 3.71897C1.57856 2.89684 1.71703 2.02343 2.13401 1.25966L2.46405 0.655128L2.90546 1.18412C4.30146 2.85737 6.06964 3.84994 8.16822 4.14051C8.08251 3.55096 8.14673 2.982 8.35931 2.47201C8.60682 1.8782 9.04712 1.37467 9.63224 1.01575C10.2821 0.617238 11.0701 0.424134 11.8512 0.472014C12.6799 0.522818 13.4323 0.832638 14.0299 1.36858C14.3217 1.29292 14.5368 1.21215 14.8274 1.10298C15.0022 1.03732 15.2005 0.962755 15.4486 0.877472L16.3629 0.563144L15.7667 2.26222C15.806 2.25893 15.8466 2.25613 15.8889 2.2543L16.8653 2.2102L16.2882 2.99711C16.2551 3.04219 16.2467 3.05498 16.235 3.07265C16.1884 3.14258 16.1306 3.22957 15.3385 4.28488C15.1402 4.54913 15.0412 4.89331 15.0596 5.25418C15.1298 6.62552 14.9612 7.86626 14.5581 8.9418C14.1769 9.95934 13.5862 10.8324 12.8025 11.5367C11.8328 12.4081 10.5962 13.0047 9.1271 13.3097C8.40644 13.4593 7.63256 13.5344 6.83156 13.5344Z" />
</svg>
