<svg width="17" height="12" viewBox="0 0 17 12" xmlns="http://www.w3.org/2000/svg">
<path fill-rule="evenodd" clip-rule="evenodd" d="M15.1293 0.751163C15.8148 0.935374 16.3554 1.4746 16.5399 2.15869C16.8827 3.40821 16.8695 6.01274 16.8695 6.01274C16.8695 6.01274 16.8695 8.60399 16.54 9.85362C16.3554 10.5376 15.8149 11.0769 15.1293 11.261C13.8769 11.59 8.86738 11.59 8.86738 11.59C8.86738 11.59 3.87092 11.59 2.60545 11.248C1.91984 11.0638 1.37941 10.5244 1.19479 9.84047C0.865234 8.60399 0.865234 5.99958 0.865234 5.99958C0.865234 5.99958 0.865234 3.40821 1.19479 2.15869C1.37929 1.47473 1.93303 0.922216 2.60533 0.738127C3.85774 0.40918 8.86726 0.40918 8.86726 0.40918C8.86726 0.40918 13.8769 0.40918 15.1293 0.751163ZM11.4381 5.99958L7.27223 8.39359V3.60557L11.4381 5.99958Z" />
</svg>
